%TF.GenerationSoftware,KiCad,Pcbnew,7.0.6-7.0.6~ubuntu22.04.1*%
%TF.CreationDate,2023-08-01T15:27:09+02:00*%
%TF.ProjectId,ss_v2-autoroute,73735f76-322d-4617-9574-6f726f757465,rev?*%
%TF.SameCoordinates,Original*%
%TF.FileFunction,Legend,Top*%
%TF.FilePolarity,Positive*%
%FSLAX46Y46*%
G04 Gerber Fmt 4.6, Leading zero omitted, Abs format (unit mm)*
G04 Created by KiCad (PCBNEW 7.0.6-7.0.6~ubuntu22.04.1) date 2023-08-01 15:27:09*
%MOMM*%
%LPD*%
G01*
G04 APERTURE LIST*
%ADD10C,0.100000*%
%ADD11C,0.150000*%
%ADD12C,0.300000*%
%ADD13C,0.400000*%
%ADD14C,0.254000*%
%ADD15C,0.120000*%
%ADD16C,0.152400*%
%ADD17C,0.127000*%
%ADD18C,0.200000*%
%ADD19C,0.508000*%
G04 APERTURE END LIST*
D10*
D11*
X177002200Y-166007200D02*
X285002200Y-166007200D01*
X285002200Y-198007200D01*
X177002200Y-198007200D01*
X177002200Y-166007200D01*
D10*
D11*
X10000000Y-10000000D02*
X287002200Y-10000000D01*
X287002200Y-200007200D01*
X10000000Y-200007200D01*
X10000000Y-10000000D01*
D10*
D11*
X12000000Y-12000000D02*
X285002200Y-12000000D01*
X285002200Y-198007200D01*
X12000000Y-198007200D01*
X12000000Y-12000000D01*
D10*
D11*
X60000000Y-12000000D02*
X60000000Y-10000000D01*
D10*
D11*
X110000000Y-12000000D02*
X110000000Y-10000000D01*
D10*
D11*
X160000000Y-12000000D02*
X160000000Y-10000000D01*
D10*
D11*
X210000000Y-12000000D02*
X210000000Y-10000000D01*
D10*
D11*
X260000000Y-12000000D02*
X260000000Y-10000000D01*
D10*
D11*
X36089160Y-11593604D02*
X35346303Y-11593604D01*
X35717731Y-11593604D02*
X35717731Y-10293604D01*
X35717731Y-10293604D02*
X35593922Y-10479319D01*
X35593922Y-10479319D02*
X35470112Y-10603128D01*
X35470112Y-10603128D02*
X35346303Y-10665033D01*
D10*
D11*
X85346303Y-10417414D02*
X85408207Y-10355509D01*
X85408207Y-10355509D02*
X85532017Y-10293604D01*
X85532017Y-10293604D02*
X85841541Y-10293604D01*
X85841541Y-10293604D02*
X85965350Y-10355509D01*
X85965350Y-10355509D02*
X86027255Y-10417414D01*
X86027255Y-10417414D02*
X86089160Y-10541223D01*
X86089160Y-10541223D02*
X86089160Y-10665033D01*
X86089160Y-10665033D02*
X86027255Y-10850747D01*
X86027255Y-10850747D02*
X85284398Y-11593604D01*
X85284398Y-11593604D02*
X86089160Y-11593604D01*
D10*
D11*
X135284398Y-10293604D02*
X136089160Y-10293604D01*
X136089160Y-10293604D02*
X135655826Y-10788842D01*
X135655826Y-10788842D02*
X135841541Y-10788842D01*
X135841541Y-10788842D02*
X135965350Y-10850747D01*
X135965350Y-10850747D02*
X136027255Y-10912652D01*
X136027255Y-10912652D02*
X136089160Y-11036461D01*
X136089160Y-11036461D02*
X136089160Y-11345985D01*
X136089160Y-11345985D02*
X136027255Y-11469795D01*
X136027255Y-11469795D02*
X135965350Y-11531700D01*
X135965350Y-11531700D02*
X135841541Y-11593604D01*
X135841541Y-11593604D02*
X135470112Y-11593604D01*
X135470112Y-11593604D02*
X135346303Y-11531700D01*
X135346303Y-11531700D02*
X135284398Y-11469795D01*
D10*
D11*
X185965350Y-10726938D02*
X185965350Y-11593604D01*
X185655826Y-10231700D02*
X185346303Y-11160271D01*
X185346303Y-11160271D02*
X186151064Y-11160271D01*
D10*
D11*
X236027255Y-10293604D02*
X235408207Y-10293604D01*
X235408207Y-10293604D02*
X235346303Y-10912652D01*
X235346303Y-10912652D02*
X235408207Y-10850747D01*
X235408207Y-10850747D02*
X235532017Y-10788842D01*
X235532017Y-10788842D02*
X235841541Y-10788842D01*
X235841541Y-10788842D02*
X235965350Y-10850747D01*
X235965350Y-10850747D02*
X236027255Y-10912652D01*
X236027255Y-10912652D02*
X236089160Y-11036461D01*
X236089160Y-11036461D02*
X236089160Y-11345985D01*
X236089160Y-11345985D02*
X236027255Y-11469795D01*
X236027255Y-11469795D02*
X235965350Y-11531700D01*
X235965350Y-11531700D02*
X235841541Y-11593604D01*
X235841541Y-11593604D02*
X235532017Y-11593604D01*
X235532017Y-11593604D02*
X235408207Y-11531700D01*
X235408207Y-11531700D02*
X235346303Y-11469795D01*
D10*
D11*
X285965350Y-10293604D02*
X285717731Y-10293604D01*
X285717731Y-10293604D02*
X285593922Y-10355509D01*
X285593922Y-10355509D02*
X285532017Y-10417414D01*
X285532017Y-10417414D02*
X285408207Y-10603128D01*
X285408207Y-10603128D02*
X285346303Y-10850747D01*
X285346303Y-10850747D02*
X285346303Y-11345985D01*
X285346303Y-11345985D02*
X285408207Y-11469795D01*
X285408207Y-11469795D02*
X285470112Y-11531700D01*
X285470112Y-11531700D02*
X285593922Y-11593604D01*
X285593922Y-11593604D02*
X285841541Y-11593604D01*
X285841541Y-11593604D02*
X285965350Y-11531700D01*
X285965350Y-11531700D02*
X286027255Y-11469795D01*
X286027255Y-11469795D02*
X286089160Y-11345985D01*
X286089160Y-11345985D02*
X286089160Y-11036461D01*
X286089160Y-11036461D02*
X286027255Y-10912652D01*
X286027255Y-10912652D02*
X285965350Y-10850747D01*
X285965350Y-10850747D02*
X285841541Y-10788842D01*
X285841541Y-10788842D02*
X285593922Y-10788842D01*
X285593922Y-10788842D02*
X285470112Y-10850747D01*
X285470112Y-10850747D02*
X285408207Y-10912652D01*
X285408207Y-10912652D02*
X285346303Y-11036461D01*
D10*
D11*
X60000000Y-198007200D02*
X60000000Y-200007200D01*
D10*
D11*
X110000000Y-198007200D02*
X110000000Y-200007200D01*
D10*
D11*
X160000000Y-198007200D02*
X160000000Y-200007200D01*
D10*
D11*
X210000000Y-198007200D02*
X210000000Y-200007200D01*
D10*
D11*
X260000000Y-198007200D02*
X260000000Y-200007200D01*
D10*
D11*
X36089160Y-199600804D02*
X35346303Y-199600804D01*
X35717731Y-199600804D02*
X35717731Y-198300804D01*
X35717731Y-198300804D02*
X35593922Y-198486519D01*
X35593922Y-198486519D02*
X35470112Y-198610328D01*
X35470112Y-198610328D02*
X35346303Y-198672233D01*
D10*
D11*
X85346303Y-198424614D02*
X85408207Y-198362709D01*
X85408207Y-198362709D02*
X85532017Y-198300804D01*
X85532017Y-198300804D02*
X85841541Y-198300804D01*
X85841541Y-198300804D02*
X85965350Y-198362709D01*
X85965350Y-198362709D02*
X86027255Y-198424614D01*
X86027255Y-198424614D02*
X86089160Y-198548423D01*
X86089160Y-198548423D02*
X86089160Y-198672233D01*
X86089160Y-198672233D02*
X86027255Y-198857947D01*
X86027255Y-198857947D02*
X85284398Y-199600804D01*
X85284398Y-199600804D02*
X86089160Y-199600804D01*
D10*
D11*
X135284398Y-198300804D02*
X136089160Y-198300804D01*
X136089160Y-198300804D02*
X135655826Y-198796042D01*
X135655826Y-198796042D02*
X135841541Y-198796042D01*
X135841541Y-198796042D02*
X135965350Y-198857947D01*
X135965350Y-198857947D02*
X136027255Y-198919852D01*
X136027255Y-198919852D02*
X136089160Y-199043661D01*
X136089160Y-199043661D02*
X136089160Y-199353185D01*
X136089160Y-199353185D02*
X136027255Y-199476995D01*
X136027255Y-199476995D02*
X135965350Y-199538900D01*
X135965350Y-199538900D02*
X135841541Y-199600804D01*
X135841541Y-199600804D02*
X135470112Y-199600804D01*
X135470112Y-199600804D02*
X135346303Y-199538900D01*
X135346303Y-199538900D02*
X135284398Y-199476995D01*
D10*
D11*
X185965350Y-198734138D02*
X185965350Y-199600804D01*
X185655826Y-198238900D02*
X185346303Y-199167471D01*
X185346303Y-199167471D02*
X186151064Y-199167471D01*
D10*
D11*
X236027255Y-198300804D02*
X235408207Y-198300804D01*
X235408207Y-198300804D02*
X235346303Y-198919852D01*
X235346303Y-198919852D02*
X235408207Y-198857947D01*
X235408207Y-198857947D02*
X235532017Y-198796042D01*
X235532017Y-198796042D02*
X235841541Y-198796042D01*
X235841541Y-198796042D02*
X235965350Y-198857947D01*
X235965350Y-198857947D02*
X236027255Y-198919852D01*
X236027255Y-198919852D02*
X236089160Y-199043661D01*
X236089160Y-199043661D02*
X236089160Y-199353185D01*
X236089160Y-199353185D02*
X236027255Y-199476995D01*
X236027255Y-199476995D02*
X235965350Y-199538900D01*
X235965350Y-199538900D02*
X235841541Y-199600804D01*
X235841541Y-199600804D02*
X235532017Y-199600804D01*
X235532017Y-199600804D02*
X235408207Y-199538900D01*
X235408207Y-199538900D02*
X235346303Y-199476995D01*
D10*
D11*
X285965350Y-198300804D02*
X285717731Y-198300804D01*
X285717731Y-198300804D02*
X285593922Y-198362709D01*
X285593922Y-198362709D02*
X285532017Y-198424614D01*
X285532017Y-198424614D02*
X285408207Y-198610328D01*
X285408207Y-198610328D02*
X285346303Y-198857947D01*
X285346303Y-198857947D02*
X285346303Y-199353185D01*
X285346303Y-199353185D02*
X285408207Y-199476995D01*
X285408207Y-199476995D02*
X285470112Y-199538900D01*
X285470112Y-199538900D02*
X285593922Y-199600804D01*
X285593922Y-199600804D02*
X285841541Y-199600804D01*
X285841541Y-199600804D02*
X285965350Y-199538900D01*
X285965350Y-199538900D02*
X286027255Y-199476995D01*
X286027255Y-199476995D02*
X286089160Y-199353185D01*
X286089160Y-199353185D02*
X286089160Y-199043661D01*
X286089160Y-199043661D02*
X286027255Y-198919852D01*
X286027255Y-198919852D02*
X285965350Y-198857947D01*
X285965350Y-198857947D02*
X285841541Y-198796042D01*
X285841541Y-198796042D02*
X285593922Y-198796042D01*
X285593922Y-198796042D02*
X285470112Y-198857947D01*
X285470112Y-198857947D02*
X285408207Y-198919852D01*
X285408207Y-198919852D02*
X285346303Y-199043661D01*
D10*
D11*
X10000000Y-60000000D02*
X12000000Y-60000000D01*
D10*
D11*
X10000000Y-110000000D02*
X12000000Y-110000000D01*
D10*
D11*
X10000000Y-160000000D02*
X12000000Y-160000000D01*
D10*
D11*
X10690476Y-35222176D02*
X11309523Y-35222176D01*
X10566666Y-35593604D02*
X10999999Y-34293604D01*
X10999999Y-34293604D02*
X11433333Y-35593604D01*
D10*
D11*
X11092857Y-84912652D02*
X11278571Y-84974557D01*
X11278571Y-84974557D02*
X11340476Y-85036461D01*
X11340476Y-85036461D02*
X11402380Y-85160271D01*
X11402380Y-85160271D02*
X11402380Y-85345985D01*
X11402380Y-85345985D02*
X11340476Y-85469795D01*
X11340476Y-85469795D02*
X11278571Y-85531700D01*
X11278571Y-85531700D02*
X11154761Y-85593604D01*
X11154761Y-85593604D02*
X10659523Y-85593604D01*
X10659523Y-85593604D02*
X10659523Y-84293604D01*
X10659523Y-84293604D02*
X11092857Y-84293604D01*
X11092857Y-84293604D02*
X11216666Y-84355509D01*
X11216666Y-84355509D02*
X11278571Y-84417414D01*
X11278571Y-84417414D02*
X11340476Y-84541223D01*
X11340476Y-84541223D02*
X11340476Y-84665033D01*
X11340476Y-84665033D02*
X11278571Y-84788842D01*
X11278571Y-84788842D02*
X11216666Y-84850747D01*
X11216666Y-84850747D02*
X11092857Y-84912652D01*
X11092857Y-84912652D02*
X10659523Y-84912652D01*
D10*
D11*
X11402380Y-135469795D02*
X11340476Y-135531700D01*
X11340476Y-135531700D02*
X11154761Y-135593604D01*
X11154761Y-135593604D02*
X11030952Y-135593604D01*
X11030952Y-135593604D02*
X10845238Y-135531700D01*
X10845238Y-135531700D02*
X10721428Y-135407890D01*
X10721428Y-135407890D02*
X10659523Y-135284080D01*
X10659523Y-135284080D02*
X10597619Y-135036461D01*
X10597619Y-135036461D02*
X10597619Y-134850747D01*
X10597619Y-134850747D02*
X10659523Y-134603128D01*
X10659523Y-134603128D02*
X10721428Y-134479319D01*
X10721428Y-134479319D02*
X10845238Y-134355509D01*
X10845238Y-134355509D02*
X11030952Y-134293604D01*
X11030952Y-134293604D02*
X11154761Y-134293604D01*
X11154761Y-134293604D02*
X11340476Y-134355509D01*
X11340476Y-134355509D02*
X11402380Y-134417414D01*
D10*
D11*
X10659523Y-185593604D02*
X10659523Y-184293604D01*
X10659523Y-184293604D02*
X10969047Y-184293604D01*
X10969047Y-184293604D02*
X11154761Y-184355509D01*
X11154761Y-184355509D02*
X11278571Y-184479319D01*
X11278571Y-184479319D02*
X11340476Y-184603128D01*
X11340476Y-184603128D02*
X11402380Y-184850747D01*
X11402380Y-184850747D02*
X11402380Y-185036461D01*
X11402380Y-185036461D02*
X11340476Y-185284080D01*
X11340476Y-185284080D02*
X11278571Y-185407890D01*
X11278571Y-185407890D02*
X11154761Y-185531700D01*
X11154761Y-185531700D02*
X10969047Y-185593604D01*
X10969047Y-185593604D02*
X10659523Y-185593604D01*
D10*
D11*
X287002200Y-60000000D02*
X285002200Y-60000000D01*
D10*
D11*
X287002200Y-110000000D02*
X285002200Y-110000000D01*
D10*
D11*
X287002200Y-160000000D02*
X285002200Y-160000000D01*
D10*
D11*
X285692676Y-35222176D02*
X286311723Y-35222176D01*
X285568866Y-35593604D02*
X286002199Y-34293604D01*
X286002199Y-34293604D02*
X286435533Y-35593604D01*
D10*
D11*
X286095057Y-84912652D02*
X286280771Y-84974557D01*
X286280771Y-84974557D02*
X286342676Y-85036461D01*
X286342676Y-85036461D02*
X286404580Y-85160271D01*
X286404580Y-85160271D02*
X286404580Y-85345985D01*
X286404580Y-85345985D02*
X286342676Y-85469795D01*
X286342676Y-85469795D02*
X286280771Y-85531700D01*
X286280771Y-85531700D02*
X286156961Y-85593604D01*
X286156961Y-85593604D02*
X285661723Y-85593604D01*
X285661723Y-85593604D02*
X285661723Y-84293604D01*
X285661723Y-84293604D02*
X286095057Y-84293604D01*
X286095057Y-84293604D02*
X286218866Y-84355509D01*
X286218866Y-84355509D02*
X286280771Y-84417414D01*
X286280771Y-84417414D02*
X286342676Y-84541223D01*
X286342676Y-84541223D02*
X286342676Y-84665033D01*
X286342676Y-84665033D02*
X286280771Y-84788842D01*
X286280771Y-84788842D02*
X286218866Y-84850747D01*
X286218866Y-84850747D02*
X286095057Y-84912652D01*
X286095057Y-84912652D02*
X285661723Y-84912652D01*
D10*
D11*
X286404580Y-135469795D02*
X286342676Y-135531700D01*
X286342676Y-135531700D02*
X286156961Y-135593604D01*
X286156961Y-135593604D02*
X286033152Y-135593604D01*
X286033152Y-135593604D02*
X285847438Y-135531700D01*
X285847438Y-135531700D02*
X285723628Y-135407890D01*
X285723628Y-135407890D02*
X285661723Y-135284080D01*
X285661723Y-135284080D02*
X285599819Y-135036461D01*
X285599819Y-135036461D02*
X285599819Y-134850747D01*
X285599819Y-134850747D02*
X285661723Y-134603128D01*
X285661723Y-134603128D02*
X285723628Y-134479319D01*
X285723628Y-134479319D02*
X285847438Y-134355509D01*
X285847438Y-134355509D02*
X286033152Y-134293604D01*
X286033152Y-134293604D02*
X286156961Y-134293604D01*
X286156961Y-134293604D02*
X286342676Y-134355509D01*
X286342676Y-134355509D02*
X286404580Y-134417414D01*
D10*
D11*
X285661723Y-185593604D02*
X285661723Y-184293604D01*
X285661723Y-184293604D02*
X285971247Y-184293604D01*
X285971247Y-184293604D02*
X286156961Y-184355509D01*
X286156961Y-184355509D02*
X286280771Y-184479319D01*
X286280771Y-184479319D02*
X286342676Y-184603128D01*
X286342676Y-184603128D02*
X286404580Y-184850747D01*
X286404580Y-184850747D02*
X286404580Y-185036461D01*
X286404580Y-185036461D02*
X286342676Y-185284080D01*
X286342676Y-185284080D02*
X286280771Y-185407890D01*
X286280771Y-185407890D02*
X286156961Y-185531700D01*
X286156961Y-185531700D02*
X285971247Y-185593604D01*
X285971247Y-185593604D02*
X285661723Y-185593604D01*
D10*
D11*
X200458026Y-193793328D02*
X200458026Y-192293328D01*
X200458026Y-192293328D02*
X200815169Y-192293328D01*
X200815169Y-192293328D02*
X201029455Y-192364757D01*
X201029455Y-192364757D02*
X201172312Y-192507614D01*
X201172312Y-192507614D02*
X201243741Y-192650471D01*
X201243741Y-192650471D02*
X201315169Y-192936185D01*
X201315169Y-192936185D02*
X201315169Y-193150471D01*
X201315169Y-193150471D02*
X201243741Y-193436185D01*
X201243741Y-193436185D02*
X201172312Y-193579042D01*
X201172312Y-193579042D02*
X201029455Y-193721900D01*
X201029455Y-193721900D02*
X200815169Y-193793328D01*
X200815169Y-193793328D02*
X200458026Y-193793328D01*
X202600884Y-193793328D02*
X202600884Y-193007614D01*
X202600884Y-193007614D02*
X202529455Y-192864757D01*
X202529455Y-192864757D02*
X202386598Y-192793328D01*
X202386598Y-192793328D02*
X202100884Y-192793328D01*
X202100884Y-192793328D02*
X201958026Y-192864757D01*
X202600884Y-193721900D02*
X202458026Y-193793328D01*
X202458026Y-193793328D02*
X202100884Y-193793328D01*
X202100884Y-193793328D02*
X201958026Y-193721900D01*
X201958026Y-193721900D02*
X201886598Y-193579042D01*
X201886598Y-193579042D02*
X201886598Y-193436185D01*
X201886598Y-193436185D02*
X201958026Y-193293328D01*
X201958026Y-193293328D02*
X202100884Y-193221900D01*
X202100884Y-193221900D02*
X202458026Y-193221900D01*
X202458026Y-193221900D02*
X202600884Y-193150471D01*
X203100884Y-192793328D02*
X203672312Y-192793328D01*
X203315169Y-192293328D02*
X203315169Y-193579042D01*
X203315169Y-193579042D02*
X203386598Y-193721900D01*
X203386598Y-193721900D02*
X203529455Y-193793328D01*
X203529455Y-193793328D02*
X203672312Y-193793328D01*
X204743741Y-193721900D02*
X204600884Y-193793328D01*
X204600884Y-193793328D02*
X204315170Y-193793328D01*
X204315170Y-193793328D02*
X204172312Y-193721900D01*
X204172312Y-193721900D02*
X204100884Y-193579042D01*
X204100884Y-193579042D02*
X204100884Y-193007614D01*
X204100884Y-193007614D02*
X204172312Y-192864757D01*
X204172312Y-192864757D02*
X204315170Y-192793328D01*
X204315170Y-192793328D02*
X204600884Y-192793328D01*
X204600884Y-192793328D02*
X204743741Y-192864757D01*
X204743741Y-192864757D02*
X204815170Y-193007614D01*
X204815170Y-193007614D02*
X204815170Y-193150471D01*
X204815170Y-193150471D02*
X204100884Y-193293328D01*
X205458026Y-193650471D02*
X205529455Y-193721900D01*
X205529455Y-193721900D02*
X205458026Y-193793328D01*
X205458026Y-193793328D02*
X205386598Y-193721900D01*
X205386598Y-193721900D02*
X205458026Y-193650471D01*
X205458026Y-193650471D02*
X205458026Y-193793328D01*
X205458026Y-192864757D02*
X205529455Y-192936185D01*
X205529455Y-192936185D02*
X205458026Y-193007614D01*
X205458026Y-193007614D02*
X205386598Y-192936185D01*
X205386598Y-192936185D02*
X205458026Y-192864757D01*
X205458026Y-192864757D02*
X205458026Y-193007614D01*
D10*
D11*
X177002200Y-194507200D02*
X285002200Y-194507200D01*
D10*
D11*
X178458026Y-196593328D02*
X178458026Y-195093328D01*
X179315169Y-196593328D02*
X178672312Y-195736185D01*
X179315169Y-195093328D02*
X178458026Y-195950471D01*
X179958026Y-196593328D02*
X179958026Y-195593328D01*
X179958026Y-195093328D02*
X179886598Y-195164757D01*
X179886598Y-195164757D02*
X179958026Y-195236185D01*
X179958026Y-195236185D02*
X180029455Y-195164757D01*
X180029455Y-195164757D02*
X179958026Y-195093328D01*
X179958026Y-195093328D02*
X179958026Y-195236185D01*
X181529455Y-196450471D02*
X181458027Y-196521900D01*
X181458027Y-196521900D02*
X181243741Y-196593328D01*
X181243741Y-196593328D02*
X181100884Y-196593328D01*
X181100884Y-196593328D02*
X180886598Y-196521900D01*
X180886598Y-196521900D02*
X180743741Y-196379042D01*
X180743741Y-196379042D02*
X180672312Y-196236185D01*
X180672312Y-196236185D02*
X180600884Y-195950471D01*
X180600884Y-195950471D02*
X180600884Y-195736185D01*
X180600884Y-195736185D02*
X180672312Y-195450471D01*
X180672312Y-195450471D02*
X180743741Y-195307614D01*
X180743741Y-195307614D02*
X180886598Y-195164757D01*
X180886598Y-195164757D02*
X181100884Y-195093328D01*
X181100884Y-195093328D02*
X181243741Y-195093328D01*
X181243741Y-195093328D02*
X181458027Y-195164757D01*
X181458027Y-195164757D02*
X181529455Y-195236185D01*
X182815170Y-196593328D02*
X182815170Y-195807614D01*
X182815170Y-195807614D02*
X182743741Y-195664757D01*
X182743741Y-195664757D02*
X182600884Y-195593328D01*
X182600884Y-195593328D02*
X182315170Y-195593328D01*
X182315170Y-195593328D02*
X182172312Y-195664757D01*
X182815170Y-196521900D02*
X182672312Y-196593328D01*
X182672312Y-196593328D02*
X182315170Y-196593328D01*
X182315170Y-196593328D02*
X182172312Y-196521900D01*
X182172312Y-196521900D02*
X182100884Y-196379042D01*
X182100884Y-196379042D02*
X182100884Y-196236185D01*
X182100884Y-196236185D02*
X182172312Y-196093328D01*
X182172312Y-196093328D02*
X182315170Y-196021900D01*
X182315170Y-196021900D02*
X182672312Y-196021900D01*
X182672312Y-196021900D02*
X182815170Y-195950471D01*
X184172313Y-196593328D02*
X184172313Y-195093328D01*
X184172313Y-196521900D02*
X184029455Y-196593328D01*
X184029455Y-196593328D02*
X183743741Y-196593328D01*
X183743741Y-196593328D02*
X183600884Y-196521900D01*
X183600884Y-196521900D02*
X183529455Y-196450471D01*
X183529455Y-196450471D02*
X183458027Y-196307614D01*
X183458027Y-196307614D02*
X183458027Y-195879042D01*
X183458027Y-195879042D02*
X183529455Y-195736185D01*
X183529455Y-195736185D02*
X183600884Y-195664757D01*
X183600884Y-195664757D02*
X183743741Y-195593328D01*
X183743741Y-195593328D02*
X184029455Y-195593328D01*
X184029455Y-195593328D02*
X184172313Y-195664757D01*
X186029455Y-195807614D02*
X186529455Y-195807614D01*
X186743741Y-196593328D02*
X186029455Y-196593328D01*
X186029455Y-196593328D02*
X186029455Y-195093328D01*
X186029455Y-195093328D02*
X186743741Y-195093328D01*
X187386598Y-196450471D02*
X187458027Y-196521900D01*
X187458027Y-196521900D02*
X187386598Y-196593328D01*
X187386598Y-196593328D02*
X187315170Y-196521900D01*
X187315170Y-196521900D02*
X187386598Y-196450471D01*
X187386598Y-196450471D02*
X187386598Y-196593328D01*
X188100884Y-196593328D02*
X188100884Y-195093328D01*
X188100884Y-195093328D02*
X188458027Y-195093328D01*
X188458027Y-195093328D02*
X188672313Y-195164757D01*
X188672313Y-195164757D02*
X188815170Y-195307614D01*
X188815170Y-195307614D02*
X188886599Y-195450471D01*
X188886599Y-195450471D02*
X188958027Y-195736185D01*
X188958027Y-195736185D02*
X188958027Y-195950471D01*
X188958027Y-195950471D02*
X188886599Y-196236185D01*
X188886599Y-196236185D02*
X188815170Y-196379042D01*
X188815170Y-196379042D02*
X188672313Y-196521900D01*
X188672313Y-196521900D02*
X188458027Y-196593328D01*
X188458027Y-196593328D02*
X188100884Y-196593328D01*
X189600884Y-196450471D02*
X189672313Y-196521900D01*
X189672313Y-196521900D02*
X189600884Y-196593328D01*
X189600884Y-196593328D02*
X189529456Y-196521900D01*
X189529456Y-196521900D02*
X189600884Y-196450471D01*
X189600884Y-196450471D02*
X189600884Y-196593328D01*
X190243742Y-196164757D02*
X190958028Y-196164757D01*
X190100885Y-196593328D02*
X190600885Y-195093328D01*
X190600885Y-195093328D02*
X191100885Y-196593328D01*
X191600884Y-196450471D02*
X191672313Y-196521900D01*
X191672313Y-196521900D02*
X191600884Y-196593328D01*
X191600884Y-196593328D02*
X191529456Y-196521900D01*
X191529456Y-196521900D02*
X191600884Y-196450471D01*
X191600884Y-196450471D02*
X191600884Y-196593328D01*
X194600884Y-196593328D02*
X194600884Y-195093328D01*
X194743742Y-196021900D02*
X195172313Y-196593328D01*
X195172313Y-195593328D02*
X194600884Y-196164757D01*
X195815170Y-196593328D02*
X195815170Y-195593328D01*
X195815170Y-195093328D02*
X195743742Y-195164757D01*
X195743742Y-195164757D02*
X195815170Y-195236185D01*
X195815170Y-195236185D02*
X195886599Y-195164757D01*
X195886599Y-195164757D02*
X195815170Y-195093328D01*
X195815170Y-195093328D02*
X195815170Y-195236185D01*
X197172314Y-196521900D02*
X197029456Y-196593328D01*
X197029456Y-196593328D02*
X196743742Y-196593328D01*
X196743742Y-196593328D02*
X196600885Y-196521900D01*
X196600885Y-196521900D02*
X196529456Y-196450471D01*
X196529456Y-196450471D02*
X196458028Y-196307614D01*
X196458028Y-196307614D02*
X196458028Y-195879042D01*
X196458028Y-195879042D02*
X196529456Y-195736185D01*
X196529456Y-195736185D02*
X196600885Y-195664757D01*
X196600885Y-195664757D02*
X196743742Y-195593328D01*
X196743742Y-195593328D02*
X197029456Y-195593328D01*
X197029456Y-195593328D02*
X197172314Y-195664757D01*
X198458028Y-196593328D02*
X198458028Y-195807614D01*
X198458028Y-195807614D02*
X198386599Y-195664757D01*
X198386599Y-195664757D02*
X198243742Y-195593328D01*
X198243742Y-195593328D02*
X197958028Y-195593328D01*
X197958028Y-195593328D02*
X197815170Y-195664757D01*
X198458028Y-196521900D02*
X198315170Y-196593328D01*
X198315170Y-196593328D02*
X197958028Y-196593328D01*
X197958028Y-196593328D02*
X197815170Y-196521900D01*
X197815170Y-196521900D02*
X197743742Y-196379042D01*
X197743742Y-196379042D02*
X197743742Y-196236185D01*
X197743742Y-196236185D02*
X197815170Y-196093328D01*
X197815170Y-196093328D02*
X197958028Y-196021900D01*
X197958028Y-196021900D02*
X198315170Y-196021900D01*
X198315170Y-196021900D02*
X198458028Y-195950471D01*
X199815171Y-196593328D02*
X199815171Y-195093328D01*
X199815171Y-196521900D02*
X199672313Y-196593328D01*
X199672313Y-196593328D02*
X199386599Y-196593328D01*
X199386599Y-196593328D02*
X199243742Y-196521900D01*
X199243742Y-196521900D02*
X199172313Y-196450471D01*
X199172313Y-196450471D02*
X199100885Y-196307614D01*
X199100885Y-196307614D02*
X199100885Y-195879042D01*
X199100885Y-195879042D02*
X199172313Y-195736185D01*
X199172313Y-195736185D02*
X199243742Y-195664757D01*
X199243742Y-195664757D02*
X199386599Y-195593328D01*
X199386599Y-195593328D02*
X199672313Y-195593328D01*
X199672313Y-195593328D02*
X199815171Y-195664757D01*
X201529456Y-195093328D02*
X202529456Y-195093328D01*
X202529456Y-195093328D02*
X201886599Y-196593328D01*
X203100884Y-196450471D02*
X203172313Y-196521900D01*
X203172313Y-196521900D02*
X203100884Y-196593328D01*
X203100884Y-196593328D02*
X203029456Y-196521900D01*
X203029456Y-196521900D02*
X203100884Y-196450471D01*
X203100884Y-196450471D02*
X203100884Y-196593328D01*
X204100885Y-195093328D02*
X204243742Y-195093328D01*
X204243742Y-195093328D02*
X204386599Y-195164757D01*
X204386599Y-195164757D02*
X204458028Y-195236185D01*
X204458028Y-195236185D02*
X204529456Y-195379042D01*
X204529456Y-195379042D02*
X204600885Y-195664757D01*
X204600885Y-195664757D02*
X204600885Y-196021900D01*
X204600885Y-196021900D02*
X204529456Y-196307614D01*
X204529456Y-196307614D02*
X204458028Y-196450471D01*
X204458028Y-196450471D02*
X204386599Y-196521900D01*
X204386599Y-196521900D02*
X204243742Y-196593328D01*
X204243742Y-196593328D02*
X204100885Y-196593328D01*
X204100885Y-196593328D02*
X203958028Y-196521900D01*
X203958028Y-196521900D02*
X203886599Y-196450471D01*
X203886599Y-196450471D02*
X203815170Y-196307614D01*
X203815170Y-196307614D02*
X203743742Y-196021900D01*
X203743742Y-196021900D02*
X203743742Y-195664757D01*
X203743742Y-195664757D02*
X203815170Y-195379042D01*
X203815170Y-195379042D02*
X203886599Y-195236185D01*
X203886599Y-195236185D02*
X203958028Y-195164757D01*
X203958028Y-195164757D02*
X204100885Y-195093328D01*
X205243741Y-196450471D02*
X205315170Y-196521900D01*
X205315170Y-196521900D02*
X205243741Y-196593328D01*
X205243741Y-196593328D02*
X205172313Y-196521900D01*
X205172313Y-196521900D02*
X205243741Y-196450471D01*
X205243741Y-196450471D02*
X205243741Y-196593328D01*
X206600885Y-195093328D02*
X206315170Y-195093328D01*
X206315170Y-195093328D02*
X206172313Y-195164757D01*
X206172313Y-195164757D02*
X206100885Y-195236185D01*
X206100885Y-195236185D02*
X205958027Y-195450471D01*
X205958027Y-195450471D02*
X205886599Y-195736185D01*
X205886599Y-195736185D02*
X205886599Y-196307614D01*
X205886599Y-196307614D02*
X205958027Y-196450471D01*
X205958027Y-196450471D02*
X206029456Y-196521900D01*
X206029456Y-196521900D02*
X206172313Y-196593328D01*
X206172313Y-196593328D02*
X206458027Y-196593328D01*
X206458027Y-196593328D02*
X206600885Y-196521900D01*
X206600885Y-196521900D02*
X206672313Y-196450471D01*
X206672313Y-196450471D02*
X206743742Y-196307614D01*
X206743742Y-196307614D02*
X206743742Y-195950471D01*
X206743742Y-195950471D02*
X206672313Y-195807614D01*
X206672313Y-195807614D02*
X206600885Y-195736185D01*
X206600885Y-195736185D02*
X206458027Y-195664757D01*
X206458027Y-195664757D02*
X206172313Y-195664757D01*
X206172313Y-195664757D02*
X206029456Y-195736185D01*
X206029456Y-195736185D02*
X205958027Y-195807614D01*
X205958027Y-195807614D02*
X205886599Y-195950471D01*
X207386598Y-196021900D02*
X208529456Y-196021900D01*
X209100884Y-195093328D02*
X210100884Y-195093328D01*
X210100884Y-195093328D02*
X209458027Y-196593328D01*
X210672312Y-196450471D02*
X210743741Y-196521900D01*
X210743741Y-196521900D02*
X210672312Y-196593328D01*
X210672312Y-196593328D02*
X210600884Y-196521900D01*
X210600884Y-196521900D02*
X210672312Y-196450471D01*
X210672312Y-196450471D02*
X210672312Y-196593328D01*
X211672313Y-195093328D02*
X211815170Y-195093328D01*
X211815170Y-195093328D02*
X211958027Y-195164757D01*
X211958027Y-195164757D02*
X212029456Y-195236185D01*
X212029456Y-195236185D02*
X212100884Y-195379042D01*
X212100884Y-195379042D02*
X212172313Y-195664757D01*
X212172313Y-195664757D02*
X212172313Y-196021900D01*
X212172313Y-196021900D02*
X212100884Y-196307614D01*
X212100884Y-196307614D02*
X212029456Y-196450471D01*
X212029456Y-196450471D02*
X211958027Y-196521900D01*
X211958027Y-196521900D02*
X211815170Y-196593328D01*
X211815170Y-196593328D02*
X211672313Y-196593328D01*
X211672313Y-196593328D02*
X211529456Y-196521900D01*
X211529456Y-196521900D02*
X211458027Y-196450471D01*
X211458027Y-196450471D02*
X211386598Y-196307614D01*
X211386598Y-196307614D02*
X211315170Y-196021900D01*
X211315170Y-196021900D02*
X211315170Y-195664757D01*
X211315170Y-195664757D02*
X211386598Y-195379042D01*
X211386598Y-195379042D02*
X211458027Y-195236185D01*
X211458027Y-195236185D02*
X211529456Y-195164757D01*
X211529456Y-195164757D02*
X211672313Y-195093328D01*
X212815169Y-196450471D02*
X212886598Y-196521900D01*
X212886598Y-196521900D02*
X212815169Y-196593328D01*
X212815169Y-196593328D02*
X212743741Y-196521900D01*
X212743741Y-196521900D02*
X212815169Y-196450471D01*
X212815169Y-196450471D02*
X212815169Y-196593328D01*
X214172313Y-195093328D02*
X213886598Y-195093328D01*
X213886598Y-195093328D02*
X213743741Y-195164757D01*
X213743741Y-195164757D02*
X213672313Y-195236185D01*
X213672313Y-195236185D02*
X213529455Y-195450471D01*
X213529455Y-195450471D02*
X213458027Y-195736185D01*
X213458027Y-195736185D02*
X213458027Y-196307614D01*
X213458027Y-196307614D02*
X213529455Y-196450471D01*
X213529455Y-196450471D02*
X213600884Y-196521900D01*
X213600884Y-196521900D02*
X213743741Y-196593328D01*
X213743741Y-196593328D02*
X214029455Y-196593328D01*
X214029455Y-196593328D02*
X214172313Y-196521900D01*
X214172313Y-196521900D02*
X214243741Y-196450471D01*
X214243741Y-196450471D02*
X214315170Y-196307614D01*
X214315170Y-196307614D02*
X214315170Y-195950471D01*
X214315170Y-195950471D02*
X214243741Y-195807614D01*
X214243741Y-195807614D02*
X214172313Y-195736185D01*
X214172313Y-195736185D02*
X214029455Y-195664757D01*
X214029455Y-195664757D02*
X213743741Y-195664757D01*
X213743741Y-195664757D02*
X213600884Y-195736185D01*
X213600884Y-195736185D02*
X213529455Y-195807614D01*
X213529455Y-195807614D02*
X213458027Y-195950471D01*
X214743741Y-196021900D02*
X214815169Y-195950471D01*
X214815169Y-195950471D02*
X214958026Y-195879042D01*
X214958026Y-195879042D02*
X215243741Y-196021900D01*
X215243741Y-196021900D02*
X215386598Y-195950471D01*
X215386598Y-195950471D02*
X215458026Y-195879042D01*
X216672313Y-195593328D02*
X216672313Y-196593328D01*
X216029455Y-195593328D02*
X216029455Y-196379042D01*
X216029455Y-196379042D02*
X216100884Y-196521900D01*
X216100884Y-196521900D02*
X216243741Y-196593328D01*
X216243741Y-196593328D02*
X216458027Y-196593328D01*
X216458027Y-196593328D02*
X216600884Y-196521900D01*
X216600884Y-196521900D02*
X216672313Y-196450471D01*
X217386598Y-196593328D02*
X217386598Y-195093328D01*
X217386598Y-195664757D02*
X217529456Y-195593328D01*
X217529456Y-195593328D02*
X217815170Y-195593328D01*
X217815170Y-195593328D02*
X217958027Y-195664757D01*
X217958027Y-195664757D02*
X218029456Y-195736185D01*
X218029456Y-195736185D02*
X218100884Y-195879042D01*
X218100884Y-195879042D02*
X218100884Y-196307614D01*
X218100884Y-196307614D02*
X218029456Y-196450471D01*
X218029456Y-196450471D02*
X217958027Y-196521900D01*
X217958027Y-196521900D02*
X217815170Y-196593328D01*
X217815170Y-196593328D02*
X217529456Y-196593328D01*
X217529456Y-196593328D02*
X217386598Y-196521900D01*
X219386599Y-195593328D02*
X219386599Y-196593328D01*
X218743741Y-195593328D02*
X218743741Y-196379042D01*
X218743741Y-196379042D02*
X218815170Y-196521900D01*
X218815170Y-196521900D02*
X218958027Y-196593328D01*
X218958027Y-196593328D02*
X219172313Y-196593328D01*
X219172313Y-196593328D02*
X219315170Y-196521900D01*
X219315170Y-196521900D02*
X219386599Y-196450471D01*
X220100884Y-195593328D02*
X220100884Y-196593328D01*
X220100884Y-195736185D02*
X220172313Y-195664757D01*
X220172313Y-195664757D02*
X220315170Y-195593328D01*
X220315170Y-195593328D02*
X220529456Y-195593328D01*
X220529456Y-195593328D02*
X220672313Y-195664757D01*
X220672313Y-195664757D02*
X220743742Y-195807614D01*
X220743742Y-195807614D02*
X220743742Y-196593328D01*
X221243742Y-195593328D02*
X221815170Y-195593328D01*
X221458027Y-195093328D02*
X221458027Y-196379042D01*
X221458027Y-196379042D02*
X221529456Y-196521900D01*
X221529456Y-196521900D02*
X221672313Y-196593328D01*
X221672313Y-196593328D02*
X221815170Y-196593328D01*
X222958028Y-195593328D02*
X222958028Y-196593328D01*
X222315170Y-195593328D02*
X222315170Y-196379042D01*
X222315170Y-196379042D02*
X222386599Y-196521900D01*
X222386599Y-196521900D02*
X222529456Y-196593328D01*
X222529456Y-196593328D02*
X222743742Y-196593328D01*
X222743742Y-196593328D02*
X222886599Y-196521900D01*
X222886599Y-196521900D02*
X222958028Y-196450471D01*
X223600885Y-195236185D02*
X223672313Y-195164757D01*
X223672313Y-195164757D02*
X223815171Y-195093328D01*
X223815171Y-195093328D02*
X224172313Y-195093328D01*
X224172313Y-195093328D02*
X224315171Y-195164757D01*
X224315171Y-195164757D02*
X224386599Y-195236185D01*
X224386599Y-195236185D02*
X224458028Y-195379042D01*
X224458028Y-195379042D02*
X224458028Y-195521900D01*
X224458028Y-195521900D02*
X224386599Y-195736185D01*
X224386599Y-195736185D02*
X223529456Y-196593328D01*
X223529456Y-196593328D02*
X224458028Y-196593328D01*
X225029456Y-195236185D02*
X225100884Y-195164757D01*
X225100884Y-195164757D02*
X225243742Y-195093328D01*
X225243742Y-195093328D02*
X225600884Y-195093328D01*
X225600884Y-195093328D02*
X225743742Y-195164757D01*
X225743742Y-195164757D02*
X225815170Y-195236185D01*
X225815170Y-195236185D02*
X225886599Y-195379042D01*
X225886599Y-195379042D02*
X225886599Y-195521900D01*
X225886599Y-195521900D02*
X225815170Y-195736185D01*
X225815170Y-195736185D02*
X224958027Y-196593328D01*
X224958027Y-196593328D02*
X225886599Y-196593328D01*
X226529455Y-196450471D02*
X226600884Y-196521900D01*
X226600884Y-196521900D02*
X226529455Y-196593328D01*
X226529455Y-196593328D02*
X226458027Y-196521900D01*
X226458027Y-196521900D02*
X226529455Y-196450471D01*
X226529455Y-196450471D02*
X226529455Y-196593328D01*
X227529456Y-195093328D02*
X227672313Y-195093328D01*
X227672313Y-195093328D02*
X227815170Y-195164757D01*
X227815170Y-195164757D02*
X227886599Y-195236185D01*
X227886599Y-195236185D02*
X227958027Y-195379042D01*
X227958027Y-195379042D02*
X228029456Y-195664757D01*
X228029456Y-195664757D02*
X228029456Y-196021900D01*
X228029456Y-196021900D02*
X227958027Y-196307614D01*
X227958027Y-196307614D02*
X227886599Y-196450471D01*
X227886599Y-196450471D02*
X227815170Y-196521900D01*
X227815170Y-196521900D02*
X227672313Y-196593328D01*
X227672313Y-196593328D02*
X227529456Y-196593328D01*
X227529456Y-196593328D02*
X227386599Y-196521900D01*
X227386599Y-196521900D02*
X227315170Y-196450471D01*
X227315170Y-196450471D02*
X227243741Y-196307614D01*
X227243741Y-196307614D02*
X227172313Y-196021900D01*
X227172313Y-196021900D02*
X227172313Y-195664757D01*
X227172313Y-195664757D02*
X227243741Y-195379042D01*
X227243741Y-195379042D02*
X227315170Y-195236185D01*
X227315170Y-195236185D02*
X227386599Y-195164757D01*
X227386599Y-195164757D02*
X227529456Y-195093328D01*
X229315170Y-195593328D02*
X229315170Y-196593328D01*
X228958027Y-195021900D02*
X228600884Y-196093328D01*
X228600884Y-196093328D02*
X229529455Y-196093328D01*
X230100883Y-196450471D02*
X230172312Y-196521900D01*
X230172312Y-196521900D02*
X230100883Y-196593328D01*
X230100883Y-196593328D02*
X230029455Y-196521900D01*
X230029455Y-196521900D02*
X230100883Y-196450471D01*
X230100883Y-196450471D02*
X230100883Y-196593328D01*
X231600884Y-196593328D02*
X230743741Y-196593328D01*
X231172312Y-196593328D02*
X231172312Y-195093328D01*
X231172312Y-195093328D02*
X231029455Y-195307614D01*
X231029455Y-195307614D02*
X230886598Y-195450471D01*
X230886598Y-195450471D02*
X230743741Y-195521900D01*
D10*
D11*
X177002200Y-191507200D02*
X285002200Y-191507200D01*
D10*
D12*
X264413853Y-193785528D02*
X263913853Y-193071242D01*
X263556710Y-193785528D02*
X263556710Y-192285528D01*
X263556710Y-192285528D02*
X264128139Y-192285528D01*
X264128139Y-192285528D02*
X264270996Y-192356957D01*
X264270996Y-192356957D02*
X264342425Y-192428385D01*
X264342425Y-192428385D02*
X264413853Y-192571242D01*
X264413853Y-192571242D02*
X264413853Y-192785528D01*
X264413853Y-192785528D02*
X264342425Y-192928385D01*
X264342425Y-192928385D02*
X264270996Y-192999814D01*
X264270996Y-192999814D02*
X264128139Y-193071242D01*
X264128139Y-193071242D02*
X263556710Y-193071242D01*
X265628139Y-193714100D02*
X265485282Y-193785528D01*
X265485282Y-193785528D02*
X265199568Y-193785528D01*
X265199568Y-193785528D02*
X265056710Y-193714100D01*
X265056710Y-193714100D02*
X264985282Y-193571242D01*
X264985282Y-193571242D02*
X264985282Y-192999814D01*
X264985282Y-192999814D02*
X265056710Y-192856957D01*
X265056710Y-192856957D02*
X265199568Y-192785528D01*
X265199568Y-192785528D02*
X265485282Y-192785528D01*
X265485282Y-192785528D02*
X265628139Y-192856957D01*
X265628139Y-192856957D02*
X265699568Y-192999814D01*
X265699568Y-192999814D02*
X265699568Y-193142671D01*
X265699568Y-193142671D02*
X264985282Y-193285528D01*
X266199567Y-192785528D02*
X266556710Y-193785528D01*
X266556710Y-193785528D02*
X266913853Y-192785528D01*
X267485281Y-193642671D02*
X267556710Y-193714100D01*
X267556710Y-193714100D02*
X267485281Y-193785528D01*
X267485281Y-193785528D02*
X267413853Y-193714100D01*
X267413853Y-193714100D02*
X267485281Y-193642671D01*
X267485281Y-193642671D02*
X267485281Y-193785528D01*
X267485281Y-192856957D02*
X267556710Y-192928385D01*
X267556710Y-192928385D02*
X267485281Y-192999814D01*
X267485281Y-192999814D02*
X267413853Y-192928385D01*
X267413853Y-192928385D02*
X267485281Y-192856957D01*
X267485281Y-192856957D02*
X267485281Y-192999814D01*
D10*
D11*
X178386598Y-193721900D02*
X178600884Y-193793328D01*
X178600884Y-193793328D02*
X178958026Y-193793328D01*
X178958026Y-193793328D02*
X179100884Y-193721900D01*
X179100884Y-193721900D02*
X179172312Y-193650471D01*
X179172312Y-193650471D02*
X179243741Y-193507614D01*
X179243741Y-193507614D02*
X179243741Y-193364757D01*
X179243741Y-193364757D02*
X179172312Y-193221900D01*
X179172312Y-193221900D02*
X179100884Y-193150471D01*
X179100884Y-193150471D02*
X178958026Y-193079042D01*
X178958026Y-193079042D02*
X178672312Y-193007614D01*
X178672312Y-193007614D02*
X178529455Y-192936185D01*
X178529455Y-192936185D02*
X178458026Y-192864757D01*
X178458026Y-192864757D02*
X178386598Y-192721900D01*
X178386598Y-192721900D02*
X178386598Y-192579042D01*
X178386598Y-192579042D02*
X178458026Y-192436185D01*
X178458026Y-192436185D02*
X178529455Y-192364757D01*
X178529455Y-192364757D02*
X178672312Y-192293328D01*
X178672312Y-192293328D02*
X179029455Y-192293328D01*
X179029455Y-192293328D02*
X179243741Y-192364757D01*
X179886597Y-193793328D02*
X179886597Y-192793328D01*
X179886597Y-192293328D02*
X179815169Y-192364757D01*
X179815169Y-192364757D02*
X179886597Y-192436185D01*
X179886597Y-192436185D02*
X179958026Y-192364757D01*
X179958026Y-192364757D02*
X179886597Y-192293328D01*
X179886597Y-192293328D02*
X179886597Y-192436185D01*
X180458026Y-192793328D02*
X181243741Y-192793328D01*
X181243741Y-192793328D02*
X180458026Y-193793328D01*
X180458026Y-193793328D02*
X181243741Y-193793328D01*
X182386598Y-193721900D02*
X182243741Y-193793328D01*
X182243741Y-193793328D02*
X181958027Y-193793328D01*
X181958027Y-193793328D02*
X181815169Y-193721900D01*
X181815169Y-193721900D02*
X181743741Y-193579042D01*
X181743741Y-193579042D02*
X181743741Y-193007614D01*
X181743741Y-193007614D02*
X181815169Y-192864757D01*
X181815169Y-192864757D02*
X181958027Y-192793328D01*
X181958027Y-192793328D02*
X182243741Y-192793328D01*
X182243741Y-192793328D02*
X182386598Y-192864757D01*
X182386598Y-192864757D02*
X182458027Y-193007614D01*
X182458027Y-193007614D02*
X182458027Y-193150471D01*
X182458027Y-193150471D02*
X181743741Y-193293328D01*
X183100883Y-193650471D02*
X183172312Y-193721900D01*
X183172312Y-193721900D02*
X183100883Y-193793328D01*
X183100883Y-193793328D02*
X183029455Y-193721900D01*
X183029455Y-193721900D02*
X183100883Y-193650471D01*
X183100883Y-193650471D02*
X183100883Y-193793328D01*
X183100883Y-192864757D02*
X183172312Y-192936185D01*
X183172312Y-192936185D02*
X183100883Y-193007614D01*
X183100883Y-193007614D02*
X183029455Y-192936185D01*
X183029455Y-192936185D02*
X183100883Y-192864757D01*
X183100883Y-192864757D02*
X183100883Y-193007614D01*
X184886598Y-193364757D02*
X185600884Y-193364757D01*
X184743741Y-193793328D02*
X185243741Y-192293328D01*
X185243741Y-192293328D02*
X185743741Y-193793328D01*
X186886598Y-192793328D02*
X186886598Y-193793328D01*
X186529455Y-192221900D02*
X186172312Y-193293328D01*
X186172312Y-193293328D02*
X187100883Y-193293328D01*
D10*
D11*
X263458026Y-196593328D02*
X263458026Y-195093328D01*
X264815170Y-196593328D02*
X264815170Y-195093328D01*
X264815170Y-196521900D02*
X264672312Y-196593328D01*
X264672312Y-196593328D02*
X264386598Y-196593328D01*
X264386598Y-196593328D02*
X264243741Y-196521900D01*
X264243741Y-196521900D02*
X264172312Y-196450471D01*
X264172312Y-196450471D02*
X264100884Y-196307614D01*
X264100884Y-196307614D02*
X264100884Y-195879042D01*
X264100884Y-195879042D02*
X264172312Y-195736185D01*
X264172312Y-195736185D02*
X264243741Y-195664757D01*
X264243741Y-195664757D02*
X264386598Y-195593328D01*
X264386598Y-195593328D02*
X264672312Y-195593328D01*
X264672312Y-195593328D02*
X264815170Y-195664757D01*
X265529455Y-196450471D02*
X265600884Y-196521900D01*
X265600884Y-196521900D02*
X265529455Y-196593328D01*
X265529455Y-196593328D02*
X265458027Y-196521900D01*
X265458027Y-196521900D02*
X265529455Y-196450471D01*
X265529455Y-196450471D02*
X265529455Y-196593328D01*
X265529455Y-195664757D02*
X265600884Y-195736185D01*
X265600884Y-195736185D02*
X265529455Y-195807614D01*
X265529455Y-195807614D02*
X265458027Y-195736185D01*
X265458027Y-195736185D02*
X265529455Y-195664757D01*
X265529455Y-195664757D02*
X265529455Y-195807614D01*
X268172313Y-196593328D02*
X267315170Y-196593328D01*
X267743741Y-196593328D02*
X267743741Y-195093328D01*
X267743741Y-195093328D02*
X267600884Y-195307614D01*
X267600884Y-195307614D02*
X267458027Y-195450471D01*
X267458027Y-195450471D02*
X267315170Y-195521900D01*
X269886598Y-195021900D02*
X268600884Y-196950471D01*
X271172313Y-196593328D02*
X270315170Y-196593328D01*
X270743741Y-196593328D02*
X270743741Y-195093328D01*
X270743741Y-195093328D02*
X270600884Y-195307614D01*
X270600884Y-195307614D02*
X270458027Y-195450471D01*
X270458027Y-195450471D02*
X270315170Y-195521900D01*
D10*
D11*
X177002200Y-187507200D02*
X285002200Y-187507200D01*
D10*
D13*
X178693928Y-188211638D02*
X179836785Y-188211638D01*
X179015357Y-190211638D02*
X179265357Y-188211638D01*
X180253452Y-190211638D02*
X180420119Y-188878304D01*
X180503452Y-188211638D02*
X180396309Y-188306876D01*
X180396309Y-188306876D02*
X180479643Y-188402114D01*
X180479643Y-188402114D02*
X180586786Y-188306876D01*
X180586786Y-188306876D02*
X180503452Y-188211638D01*
X180503452Y-188211638D02*
X180479643Y-188402114D01*
X181086786Y-188878304D02*
X181848690Y-188878304D01*
X181455833Y-188211638D02*
X181241548Y-189925923D01*
X181241548Y-189925923D02*
X181312976Y-190116400D01*
X181312976Y-190116400D02*
X181491548Y-190211638D01*
X181491548Y-190211638D02*
X181682024Y-190211638D01*
X182634405Y-190211638D02*
X182455833Y-190116400D01*
X182455833Y-190116400D02*
X182384405Y-189925923D01*
X182384405Y-189925923D02*
X182598690Y-188211638D01*
X184170119Y-190116400D02*
X183967738Y-190211638D01*
X183967738Y-190211638D02*
X183586785Y-190211638D01*
X183586785Y-190211638D02*
X183408214Y-190116400D01*
X183408214Y-190116400D02*
X183336785Y-189925923D01*
X183336785Y-189925923D02*
X183432024Y-189164019D01*
X183432024Y-189164019D02*
X183551071Y-188973542D01*
X183551071Y-188973542D02*
X183753452Y-188878304D01*
X183753452Y-188878304D02*
X184134404Y-188878304D01*
X184134404Y-188878304D02*
X184312976Y-188973542D01*
X184312976Y-188973542D02*
X184384404Y-189164019D01*
X184384404Y-189164019D02*
X184360595Y-189354495D01*
X184360595Y-189354495D02*
X183384404Y-189544971D01*
X185134405Y-190021161D02*
X185217738Y-190116400D01*
X185217738Y-190116400D02*
X185110595Y-190211638D01*
X185110595Y-190211638D02*
X185027262Y-190116400D01*
X185027262Y-190116400D02*
X185134405Y-190021161D01*
X185134405Y-190021161D02*
X185110595Y-190211638D01*
X185265357Y-188973542D02*
X185348690Y-189068780D01*
X185348690Y-189068780D02*
X185241548Y-189164019D01*
X185241548Y-189164019D02*
X185158214Y-189068780D01*
X185158214Y-189068780D02*
X185265357Y-188973542D01*
X185265357Y-188973542D02*
X185241548Y-189164019D01*
D10*
D11*
X178958026Y-185607614D02*
X178458026Y-185607614D01*
X178458026Y-186393328D02*
X178458026Y-184893328D01*
X178458026Y-184893328D02*
X179172312Y-184893328D01*
X179743740Y-186393328D02*
X179743740Y-185393328D01*
X179743740Y-184893328D02*
X179672312Y-184964757D01*
X179672312Y-184964757D02*
X179743740Y-185036185D01*
X179743740Y-185036185D02*
X179815169Y-184964757D01*
X179815169Y-184964757D02*
X179743740Y-184893328D01*
X179743740Y-184893328D02*
X179743740Y-185036185D01*
X180672312Y-186393328D02*
X180529455Y-186321900D01*
X180529455Y-186321900D02*
X180458026Y-186179042D01*
X180458026Y-186179042D02*
X180458026Y-184893328D01*
X181815169Y-186321900D02*
X181672312Y-186393328D01*
X181672312Y-186393328D02*
X181386598Y-186393328D01*
X181386598Y-186393328D02*
X181243740Y-186321900D01*
X181243740Y-186321900D02*
X181172312Y-186179042D01*
X181172312Y-186179042D02*
X181172312Y-185607614D01*
X181172312Y-185607614D02*
X181243740Y-185464757D01*
X181243740Y-185464757D02*
X181386598Y-185393328D01*
X181386598Y-185393328D02*
X181672312Y-185393328D01*
X181672312Y-185393328D02*
X181815169Y-185464757D01*
X181815169Y-185464757D02*
X181886598Y-185607614D01*
X181886598Y-185607614D02*
X181886598Y-185750471D01*
X181886598Y-185750471D02*
X181172312Y-185893328D01*
X182529454Y-186250471D02*
X182600883Y-186321900D01*
X182600883Y-186321900D02*
X182529454Y-186393328D01*
X182529454Y-186393328D02*
X182458026Y-186321900D01*
X182458026Y-186321900D02*
X182529454Y-186250471D01*
X182529454Y-186250471D02*
X182529454Y-186393328D01*
X182529454Y-185464757D02*
X182600883Y-185536185D01*
X182600883Y-185536185D02*
X182529454Y-185607614D01*
X182529454Y-185607614D02*
X182458026Y-185536185D01*
X182458026Y-185536185D02*
X182529454Y-185464757D01*
X182529454Y-185464757D02*
X182529454Y-185607614D01*
X184315169Y-186321900D02*
X184458026Y-186393328D01*
X184458026Y-186393328D02*
X184743740Y-186393328D01*
X184743740Y-186393328D02*
X184886597Y-186321900D01*
X184886597Y-186321900D02*
X184958026Y-186179042D01*
X184958026Y-186179042D02*
X184958026Y-186107614D01*
X184958026Y-186107614D02*
X184886597Y-185964757D01*
X184886597Y-185964757D02*
X184743740Y-185893328D01*
X184743740Y-185893328D02*
X184529455Y-185893328D01*
X184529455Y-185893328D02*
X184386597Y-185821900D01*
X184386597Y-185821900D02*
X184315169Y-185679042D01*
X184315169Y-185679042D02*
X184315169Y-185607614D01*
X184315169Y-185607614D02*
X184386597Y-185464757D01*
X184386597Y-185464757D02*
X184529455Y-185393328D01*
X184529455Y-185393328D02*
X184743740Y-185393328D01*
X184743740Y-185393328D02*
X184886597Y-185464757D01*
X185529455Y-186321900D02*
X185672312Y-186393328D01*
X185672312Y-186393328D02*
X185958026Y-186393328D01*
X185958026Y-186393328D02*
X186100883Y-186321900D01*
X186100883Y-186321900D02*
X186172312Y-186179042D01*
X186172312Y-186179042D02*
X186172312Y-186107614D01*
X186172312Y-186107614D02*
X186100883Y-185964757D01*
X186100883Y-185964757D02*
X185958026Y-185893328D01*
X185958026Y-185893328D02*
X185743741Y-185893328D01*
X185743741Y-185893328D02*
X185600883Y-185821900D01*
X185600883Y-185821900D02*
X185529455Y-185679042D01*
X185529455Y-185679042D02*
X185529455Y-185607614D01*
X185529455Y-185607614D02*
X185600883Y-185464757D01*
X185600883Y-185464757D02*
X185743741Y-185393328D01*
X185743741Y-185393328D02*
X185958026Y-185393328D01*
X185958026Y-185393328D02*
X186100883Y-185464757D01*
X186458027Y-186536185D02*
X187600884Y-186536185D01*
X187815169Y-185393328D02*
X188172312Y-186393328D01*
X188172312Y-186393328D02*
X188529455Y-185393328D01*
X189029455Y-185036185D02*
X189100883Y-184964757D01*
X189100883Y-184964757D02*
X189243741Y-184893328D01*
X189243741Y-184893328D02*
X189600883Y-184893328D01*
X189600883Y-184893328D02*
X189743741Y-184964757D01*
X189743741Y-184964757D02*
X189815169Y-185036185D01*
X189815169Y-185036185D02*
X189886598Y-185179042D01*
X189886598Y-185179042D02*
X189886598Y-185321900D01*
X189886598Y-185321900D02*
X189815169Y-185536185D01*
X189815169Y-185536185D02*
X188958026Y-186393328D01*
X188958026Y-186393328D02*
X189886598Y-186393328D01*
X190529454Y-185821900D02*
X191672312Y-185821900D01*
X193029455Y-186393328D02*
X193029455Y-185607614D01*
X193029455Y-185607614D02*
X192958026Y-185464757D01*
X192958026Y-185464757D02*
X192815169Y-185393328D01*
X192815169Y-185393328D02*
X192529455Y-185393328D01*
X192529455Y-185393328D02*
X192386597Y-185464757D01*
X193029455Y-186321900D02*
X192886597Y-186393328D01*
X192886597Y-186393328D02*
X192529455Y-186393328D01*
X192529455Y-186393328D02*
X192386597Y-186321900D01*
X192386597Y-186321900D02*
X192315169Y-186179042D01*
X192315169Y-186179042D02*
X192315169Y-186036185D01*
X192315169Y-186036185D02*
X192386597Y-185893328D01*
X192386597Y-185893328D02*
X192529455Y-185821900D01*
X192529455Y-185821900D02*
X192886597Y-185821900D01*
X192886597Y-185821900D02*
X193029455Y-185750471D01*
X194386598Y-185393328D02*
X194386598Y-186393328D01*
X193743740Y-185393328D02*
X193743740Y-186179042D01*
X193743740Y-186179042D02*
X193815169Y-186321900D01*
X193815169Y-186321900D02*
X193958026Y-186393328D01*
X193958026Y-186393328D02*
X194172312Y-186393328D01*
X194172312Y-186393328D02*
X194315169Y-186321900D01*
X194315169Y-186321900D02*
X194386598Y-186250471D01*
X194886598Y-185393328D02*
X195458026Y-185393328D01*
X195100883Y-184893328D02*
X195100883Y-186179042D01*
X195100883Y-186179042D02*
X195172312Y-186321900D01*
X195172312Y-186321900D02*
X195315169Y-186393328D01*
X195315169Y-186393328D02*
X195458026Y-186393328D01*
X196172312Y-186393328D02*
X196029455Y-186321900D01*
X196029455Y-186321900D02*
X195958026Y-186250471D01*
X195958026Y-186250471D02*
X195886598Y-186107614D01*
X195886598Y-186107614D02*
X195886598Y-185679042D01*
X195886598Y-185679042D02*
X195958026Y-185536185D01*
X195958026Y-185536185D02*
X196029455Y-185464757D01*
X196029455Y-185464757D02*
X196172312Y-185393328D01*
X196172312Y-185393328D02*
X196386598Y-185393328D01*
X196386598Y-185393328D02*
X196529455Y-185464757D01*
X196529455Y-185464757D02*
X196600884Y-185536185D01*
X196600884Y-185536185D02*
X196672312Y-185679042D01*
X196672312Y-185679042D02*
X196672312Y-186107614D01*
X196672312Y-186107614D02*
X196600884Y-186250471D01*
X196600884Y-186250471D02*
X196529455Y-186321900D01*
X196529455Y-186321900D02*
X196386598Y-186393328D01*
X196386598Y-186393328D02*
X196172312Y-186393328D01*
X197315169Y-186393328D02*
X197315169Y-185393328D01*
X197315169Y-185679042D02*
X197386598Y-185536185D01*
X197386598Y-185536185D02*
X197458027Y-185464757D01*
X197458027Y-185464757D02*
X197600884Y-185393328D01*
X197600884Y-185393328D02*
X197743741Y-185393328D01*
X198458026Y-186393328D02*
X198315169Y-186321900D01*
X198315169Y-186321900D02*
X198243740Y-186250471D01*
X198243740Y-186250471D02*
X198172312Y-186107614D01*
X198172312Y-186107614D02*
X198172312Y-185679042D01*
X198172312Y-185679042D02*
X198243740Y-185536185D01*
X198243740Y-185536185D02*
X198315169Y-185464757D01*
X198315169Y-185464757D02*
X198458026Y-185393328D01*
X198458026Y-185393328D02*
X198672312Y-185393328D01*
X198672312Y-185393328D02*
X198815169Y-185464757D01*
X198815169Y-185464757D02*
X198886598Y-185536185D01*
X198886598Y-185536185D02*
X198958026Y-185679042D01*
X198958026Y-185679042D02*
X198958026Y-186107614D01*
X198958026Y-186107614D02*
X198886598Y-186250471D01*
X198886598Y-186250471D02*
X198815169Y-186321900D01*
X198815169Y-186321900D02*
X198672312Y-186393328D01*
X198672312Y-186393328D02*
X198458026Y-186393328D01*
X200243741Y-185393328D02*
X200243741Y-186393328D01*
X199600883Y-185393328D02*
X199600883Y-186179042D01*
X199600883Y-186179042D02*
X199672312Y-186321900D01*
X199672312Y-186321900D02*
X199815169Y-186393328D01*
X199815169Y-186393328D02*
X200029455Y-186393328D01*
X200029455Y-186393328D02*
X200172312Y-186321900D01*
X200172312Y-186321900D02*
X200243741Y-186250471D01*
X200743741Y-185393328D02*
X201315169Y-185393328D01*
X200958026Y-184893328D02*
X200958026Y-186179042D01*
X200958026Y-186179042D02*
X201029455Y-186321900D01*
X201029455Y-186321900D02*
X201172312Y-186393328D01*
X201172312Y-186393328D02*
X201315169Y-186393328D01*
X202386598Y-186321900D02*
X202243741Y-186393328D01*
X202243741Y-186393328D02*
X201958027Y-186393328D01*
X201958027Y-186393328D02*
X201815169Y-186321900D01*
X201815169Y-186321900D02*
X201743741Y-186179042D01*
X201743741Y-186179042D02*
X201743741Y-185607614D01*
X201743741Y-185607614D02*
X201815169Y-185464757D01*
X201815169Y-185464757D02*
X201958027Y-185393328D01*
X201958027Y-185393328D02*
X202243741Y-185393328D01*
X202243741Y-185393328D02*
X202386598Y-185464757D01*
X202386598Y-185464757D02*
X202458027Y-185607614D01*
X202458027Y-185607614D02*
X202458027Y-185750471D01*
X202458027Y-185750471D02*
X201743741Y-185893328D01*
X203100883Y-186250471D02*
X203172312Y-186321900D01*
X203172312Y-186321900D02*
X203100883Y-186393328D01*
X203100883Y-186393328D02*
X203029455Y-186321900D01*
X203029455Y-186321900D02*
X203100883Y-186250471D01*
X203100883Y-186250471D02*
X203100883Y-186393328D01*
X203815169Y-186393328D02*
X203815169Y-184893328D01*
X203958027Y-185821900D02*
X204386598Y-186393328D01*
X204386598Y-185393328D02*
X203815169Y-185964757D01*
X205029455Y-186393328D02*
X205029455Y-185393328D01*
X205029455Y-184893328D02*
X204958027Y-184964757D01*
X204958027Y-184964757D02*
X205029455Y-185036185D01*
X205029455Y-185036185D02*
X205100884Y-184964757D01*
X205100884Y-184964757D02*
X205029455Y-184893328D01*
X205029455Y-184893328D02*
X205029455Y-185036185D01*
X206386599Y-186321900D02*
X206243741Y-186393328D01*
X206243741Y-186393328D02*
X205958027Y-186393328D01*
X205958027Y-186393328D02*
X205815170Y-186321900D01*
X205815170Y-186321900D02*
X205743741Y-186250471D01*
X205743741Y-186250471D02*
X205672313Y-186107614D01*
X205672313Y-186107614D02*
X205672313Y-185679042D01*
X205672313Y-185679042D02*
X205743741Y-185536185D01*
X205743741Y-185536185D02*
X205815170Y-185464757D01*
X205815170Y-185464757D02*
X205958027Y-185393328D01*
X205958027Y-185393328D02*
X206243741Y-185393328D01*
X206243741Y-185393328D02*
X206386599Y-185464757D01*
X207672313Y-186393328D02*
X207672313Y-185607614D01*
X207672313Y-185607614D02*
X207600884Y-185464757D01*
X207600884Y-185464757D02*
X207458027Y-185393328D01*
X207458027Y-185393328D02*
X207172313Y-185393328D01*
X207172313Y-185393328D02*
X207029455Y-185464757D01*
X207672313Y-186321900D02*
X207529455Y-186393328D01*
X207529455Y-186393328D02*
X207172313Y-186393328D01*
X207172313Y-186393328D02*
X207029455Y-186321900D01*
X207029455Y-186321900D02*
X206958027Y-186179042D01*
X206958027Y-186179042D02*
X206958027Y-186036185D01*
X206958027Y-186036185D02*
X207029455Y-185893328D01*
X207029455Y-185893328D02*
X207172313Y-185821900D01*
X207172313Y-185821900D02*
X207529455Y-185821900D01*
X207529455Y-185821900D02*
X207672313Y-185750471D01*
X209029456Y-186393328D02*
X209029456Y-184893328D01*
X209029456Y-186321900D02*
X208886598Y-186393328D01*
X208886598Y-186393328D02*
X208600884Y-186393328D01*
X208600884Y-186393328D02*
X208458027Y-186321900D01*
X208458027Y-186321900D02*
X208386598Y-186250471D01*
X208386598Y-186250471D02*
X208315170Y-186107614D01*
X208315170Y-186107614D02*
X208315170Y-185679042D01*
X208315170Y-185679042D02*
X208386598Y-185536185D01*
X208386598Y-185536185D02*
X208458027Y-185464757D01*
X208458027Y-185464757D02*
X208600884Y-185393328D01*
X208600884Y-185393328D02*
X208886598Y-185393328D01*
X208886598Y-185393328D02*
X209029456Y-185464757D01*
X209386599Y-186536185D02*
X210529456Y-186536185D01*
X210886598Y-185393328D02*
X210886598Y-186893328D01*
X210886598Y-185464757D02*
X211029456Y-185393328D01*
X211029456Y-185393328D02*
X211315170Y-185393328D01*
X211315170Y-185393328D02*
X211458027Y-185464757D01*
X211458027Y-185464757D02*
X211529456Y-185536185D01*
X211529456Y-185536185D02*
X211600884Y-185679042D01*
X211600884Y-185679042D02*
X211600884Y-186107614D01*
X211600884Y-186107614D02*
X211529456Y-186250471D01*
X211529456Y-186250471D02*
X211458027Y-186321900D01*
X211458027Y-186321900D02*
X211315170Y-186393328D01*
X211315170Y-186393328D02*
X211029456Y-186393328D01*
X211029456Y-186393328D02*
X210886598Y-186321900D01*
X212886599Y-186321900D02*
X212743741Y-186393328D01*
X212743741Y-186393328D02*
X212458027Y-186393328D01*
X212458027Y-186393328D02*
X212315170Y-186321900D01*
X212315170Y-186321900D02*
X212243741Y-186250471D01*
X212243741Y-186250471D02*
X212172313Y-186107614D01*
X212172313Y-186107614D02*
X212172313Y-185679042D01*
X212172313Y-185679042D02*
X212243741Y-185536185D01*
X212243741Y-185536185D02*
X212315170Y-185464757D01*
X212315170Y-185464757D02*
X212458027Y-185393328D01*
X212458027Y-185393328D02*
X212743741Y-185393328D01*
X212743741Y-185393328D02*
X212886599Y-185464757D01*
X213529455Y-186393328D02*
X213529455Y-184893328D01*
X213529455Y-185464757D02*
X213672313Y-185393328D01*
X213672313Y-185393328D02*
X213958027Y-185393328D01*
X213958027Y-185393328D02*
X214100884Y-185464757D01*
X214100884Y-185464757D02*
X214172313Y-185536185D01*
X214172313Y-185536185D02*
X214243741Y-185679042D01*
X214243741Y-185679042D02*
X214243741Y-186107614D01*
X214243741Y-186107614D02*
X214172313Y-186250471D01*
X214172313Y-186250471D02*
X214100884Y-186321900D01*
X214100884Y-186321900D02*
X213958027Y-186393328D01*
X213958027Y-186393328D02*
X213672313Y-186393328D01*
X213672313Y-186393328D02*
X213529455Y-186321900D01*
D10*
D11*
X177002200Y-181507200D02*
X285002200Y-181507200D01*
D10*
D11*
X178386598Y-183621900D02*
X178600884Y-183693328D01*
X178600884Y-183693328D02*
X178958026Y-183693328D01*
X178958026Y-183693328D02*
X179100884Y-183621900D01*
X179100884Y-183621900D02*
X179172312Y-183550471D01*
X179172312Y-183550471D02*
X179243741Y-183407614D01*
X179243741Y-183407614D02*
X179243741Y-183264757D01*
X179243741Y-183264757D02*
X179172312Y-183121900D01*
X179172312Y-183121900D02*
X179100884Y-183050471D01*
X179100884Y-183050471D02*
X178958026Y-182979042D01*
X178958026Y-182979042D02*
X178672312Y-182907614D01*
X178672312Y-182907614D02*
X178529455Y-182836185D01*
X178529455Y-182836185D02*
X178458026Y-182764757D01*
X178458026Y-182764757D02*
X178386598Y-182621900D01*
X178386598Y-182621900D02*
X178386598Y-182479042D01*
X178386598Y-182479042D02*
X178458026Y-182336185D01*
X178458026Y-182336185D02*
X178529455Y-182264757D01*
X178529455Y-182264757D02*
X178672312Y-182193328D01*
X178672312Y-182193328D02*
X179029455Y-182193328D01*
X179029455Y-182193328D02*
X179243741Y-182264757D01*
X179886597Y-183693328D02*
X179886597Y-182193328D01*
X180529455Y-183693328D02*
X180529455Y-182907614D01*
X180529455Y-182907614D02*
X180458026Y-182764757D01*
X180458026Y-182764757D02*
X180315169Y-182693328D01*
X180315169Y-182693328D02*
X180100883Y-182693328D01*
X180100883Y-182693328D02*
X179958026Y-182764757D01*
X179958026Y-182764757D02*
X179886597Y-182836185D01*
X181815169Y-183621900D02*
X181672312Y-183693328D01*
X181672312Y-183693328D02*
X181386598Y-183693328D01*
X181386598Y-183693328D02*
X181243740Y-183621900D01*
X181243740Y-183621900D02*
X181172312Y-183479042D01*
X181172312Y-183479042D02*
X181172312Y-182907614D01*
X181172312Y-182907614D02*
X181243740Y-182764757D01*
X181243740Y-182764757D02*
X181386598Y-182693328D01*
X181386598Y-182693328D02*
X181672312Y-182693328D01*
X181672312Y-182693328D02*
X181815169Y-182764757D01*
X181815169Y-182764757D02*
X181886598Y-182907614D01*
X181886598Y-182907614D02*
X181886598Y-183050471D01*
X181886598Y-183050471D02*
X181172312Y-183193328D01*
X183100883Y-183621900D02*
X182958026Y-183693328D01*
X182958026Y-183693328D02*
X182672312Y-183693328D01*
X182672312Y-183693328D02*
X182529454Y-183621900D01*
X182529454Y-183621900D02*
X182458026Y-183479042D01*
X182458026Y-183479042D02*
X182458026Y-182907614D01*
X182458026Y-182907614D02*
X182529454Y-182764757D01*
X182529454Y-182764757D02*
X182672312Y-182693328D01*
X182672312Y-182693328D02*
X182958026Y-182693328D01*
X182958026Y-182693328D02*
X183100883Y-182764757D01*
X183100883Y-182764757D02*
X183172312Y-182907614D01*
X183172312Y-182907614D02*
X183172312Y-183050471D01*
X183172312Y-183050471D02*
X182458026Y-183193328D01*
X183600883Y-182693328D02*
X184172311Y-182693328D01*
X183815168Y-182193328D02*
X183815168Y-183479042D01*
X183815168Y-183479042D02*
X183886597Y-183621900D01*
X183886597Y-183621900D02*
X184029454Y-183693328D01*
X184029454Y-183693328D02*
X184172311Y-183693328D01*
X184672311Y-183550471D02*
X184743740Y-183621900D01*
X184743740Y-183621900D02*
X184672311Y-183693328D01*
X184672311Y-183693328D02*
X184600883Y-183621900D01*
X184600883Y-183621900D02*
X184672311Y-183550471D01*
X184672311Y-183550471D02*
X184672311Y-183693328D01*
X184672311Y-182764757D02*
X184743740Y-182836185D01*
X184743740Y-182836185D02*
X184672311Y-182907614D01*
X184672311Y-182907614D02*
X184600883Y-182836185D01*
X184600883Y-182836185D02*
X184672311Y-182764757D01*
X184672311Y-182764757D02*
X184672311Y-182907614D01*
D10*
D12*
D10*
D11*
D10*
D11*
D10*
D11*
D10*
D11*
D10*
D11*
X197002200Y-191507200D02*
X197002200Y-194507200D01*
D10*
D11*
X261002200Y-191507200D02*
X261002200Y-198007200D01*
X204341666Y-100504819D02*
X204341666Y-101219104D01*
X204341666Y-101219104D02*
X204294047Y-101361961D01*
X204294047Y-101361961D02*
X204198809Y-101457200D01*
X204198809Y-101457200D02*
X204055952Y-101504819D01*
X204055952Y-101504819D02*
X203960714Y-101504819D01*
X204722619Y-100504819D02*
X205389285Y-100504819D01*
X205389285Y-100504819D02*
X204960714Y-101504819D01*
X258175057Y-107570238D02*
X258127438Y-107665476D01*
X258127438Y-107665476D02*
X258032200Y-107760714D01*
X258032200Y-107760714D02*
X257889342Y-107903571D01*
X257889342Y-107903571D02*
X257841723Y-107998809D01*
X257841723Y-107998809D02*
X257841723Y-108094047D01*
X258079819Y-108046428D02*
X258032200Y-108141666D01*
X258032200Y-108141666D02*
X257936961Y-108236904D01*
X257936961Y-108236904D02*
X257746485Y-108284523D01*
X257746485Y-108284523D02*
X257413152Y-108284523D01*
X257413152Y-108284523D02*
X257222676Y-108236904D01*
X257222676Y-108236904D02*
X257127438Y-108141666D01*
X257127438Y-108141666D02*
X257079819Y-108046428D01*
X257079819Y-108046428D02*
X257079819Y-107855952D01*
X257079819Y-107855952D02*
X257127438Y-107760714D01*
X257127438Y-107760714D02*
X257222676Y-107665476D01*
X257222676Y-107665476D02*
X257413152Y-107617857D01*
X257413152Y-107617857D02*
X257746485Y-107617857D01*
X257746485Y-107617857D02*
X257936961Y-107665476D01*
X257936961Y-107665476D02*
X258032200Y-107760714D01*
X258032200Y-107760714D02*
X258079819Y-107855952D01*
X258079819Y-107855952D02*
X258079819Y-108046428D01*
X257175057Y-107236904D02*
X257127438Y-107189285D01*
X257127438Y-107189285D02*
X257079819Y-107094047D01*
X257079819Y-107094047D02*
X257079819Y-106855952D01*
X257079819Y-106855952D02*
X257127438Y-106760714D01*
X257127438Y-106760714D02*
X257175057Y-106713095D01*
X257175057Y-106713095D02*
X257270295Y-106665476D01*
X257270295Y-106665476D02*
X257365533Y-106665476D01*
X257365533Y-106665476D02*
X257508390Y-106713095D01*
X257508390Y-106713095D02*
X258079819Y-107284523D01*
X258079819Y-107284523D02*
X258079819Y-106665476D01*
X258278980Y-104393950D02*
X258040885Y-104393950D01*
X258136123Y-104155855D02*
X258040885Y-104393950D01*
X258040885Y-104393950D02*
X258136123Y-104632045D01*
X257850409Y-104251093D02*
X258040885Y-104393950D01*
X258040885Y-104393950D02*
X257850409Y-104536807D01*
X257188619Y-104393949D02*
X257426714Y-104393949D01*
X257331476Y-104632044D02*
X257426714Y-104393949D01*
X257426714Y-104393949D02*
X257331476Y-104155854D01*
X257617190Y-104536806D02*
X257426714Y-104393949D01*
X257426714Y-104393949D02*
X257617190Y-104251092D01*
X249801142Y-99006819D02*
X249467809Y-98530628D01*
X249229714Y-99006819D02*
X249229714Y-98006819D01*
X249229714Y-98006819D02*
X249610666Y-98006819D01*
X249610666Y-98006819D02*
X249705904Y-98054438D01*
X249705904Y-98054438D02*
X249753523Y-98102057D01*
X249753523Y-98102057D02*
X249801142Y-98197295D01*
X249801142Y-98197295D02*
X249801142Y-98340152D01*
X249801142Y-98340152D02*
X249753523Y-98435390D01*
X249753523Y-98435390D02*
X249705904Y-98483009D01*
X249705904Y-98483009D02*
X249610666Y-98530628D01*
X249610666Y-98530628D02*
X249229714Y-98530628D01*
X250753523Y-99006819D02*
X250182095Y-99006819D01*
X250467809Y-99006819D02*
X250467809Y-98006819D01*
X250467809Y-98006819D02*
X250372571Y-98149676D01*
X250372571Y-98149676D02*
X250277333Y-98244914D01*
X250277333Y-98244914D02*
X250182095Y-98292533D01*
X251372571Y-98006819D02*
X251467809Y-98006819D01*
X251467809Y-98006819D02*
X251563047Y-98054438D01*
X251563047Y-98054438D02*
X251610666Y-98102057D01*
X251610666Y-98102057D02*
X251658285Y-98197295D01*
X251658285Y-98197295D02*
X251705904Y-98387771D01*
X251705904Y-98387771D02*
X251705904Y-98625866D01*
X251705904Y-98625866D02*
X251658285Y-98816342D01*
X251658285Y-98816342D02*
X251610666Y-98911580D01*
X251610666Y-98911580D02*
X251563047Y-98959200D01*
X251563047Y-98959200D02*
X251467809Y-99006819D01*
X251467809Y-99006819D02*
X251372571Y-99006819D01*
X251372571Y-99006819D02*
X251277333Y-98959200D01*
X251277333Y-98959200D02*
X251229714Y-98911580D01*
X251229714Y-98911580D02*
X251182095Y-98816342D01*
X251182095Y-98816342D02*
X251134476Y-98625866D01*
X251134476Y-98625866D02*
X251134476Y-98387771D01*
X251134476Y-98387771D02*
X251182095Y-98197295D01*
X251182095Y-98197295D02*
X251229714Y-98102057D01*
X251229714Y-98102057D02*
X251277333Y-98054438D01*
X251277333Y-98054438D02*
X251372571Y-98006819D01*
X242050819Y-116016666D02*
X241574628Y-116349999D01*
X242050819Y-116588094D02*
X241050819Y-116588094D01*
X241050819Y-116588094D02*
X241050819Y-116207142D01*
X241050819Y-116207142D02*
X241098438Y-116111904D01*
X241098438Y-116111904D02*
X241146057Y-116064285D01*
X241146057Y-116064285D02*
X241241295Y-116016666D01*
X241241295Y-116016666D02*
X241384152Y-116016666D01*
X241384152Y-116016666D02*
X241479390Y-116064285D01*
X241479390Y-116064285D02*
X241527009Y-116111904D01*
X241527009Y-116111904D02*
X241574628Y-116207142D01*
X241574628Y-116207142D02*
X241574628Y-116588094D01*
X241384152Y-115159523D02*
X242050819Y-115159523D01*
X241003200Y-115397618D02*
X241717485Y-115635713D01*
X241717485Y-115635713D02*
X241717485Y-115016666D01*
X256373333Y-80597580D02*
X256325714Y-80645200D01*
X256325714Y-80645200D02*
X256182857Y-80692819D01*
X256182857Y-80692819D02*
X256087619Y-80692819D01*
X256087619Y-80692819D02*
X255944762Y-80645200D01*
X255944762Y-80645200D02*
X255849524Y-80549961D01*
X255849524Y-80549961D02*
X255801905Y-80454723D01*
X255801905Y-80454723D02*
X255754286Y-80264247D01*
X255754286Y-80264247D02*
X255754286Y-80121390D01*
X255754286Y-80121390D02*
X255801905Y-79930914D01*
X255801905Y-79930914D02*
X255849524Y-79835676D01*
X255849524Y-79835676D02*
X255944762Y-79740438D01*
X255944762Y-79740438D02*
X256087619Y-79692819D01*
X256087619Y-79692819D02*
X256182857Y-79692819D01*
X256182857Y-79692819D02*
X256325714Y-79740438D01*
X256325714Y-79740438D02*
X256373333Y-79788057D01*
X256849524Y-80692819D02*
X257040000Y-80692819D01*
X257040000Y-80692819D02*
X257135238Y-80645200D01*
X257135238Y-80645200D02*
X257182857Y-80597580D01*
X257182857Y-80597580D02*
X257278095Y-80454723D01*
X257278095Y-80454723D02*
X257325714Y-80264247D01*
X257325714Y-80264247D02*
X257325714Y-79883295D01*
X257325714Y-79883295D02*
X257278095Y-79788057D01*
X257278095Y-79788057D02*
X257230476Y-79740438D01*
X257230476Y-79740438D02*
X257135238Y-79692819D01*
X257135238Y-79692819D02*
X256944762Y-79692819D01*
X256944762Y-79692819D02*
X256849524Y-79740438D01*
X256849524Y-79740438D02*
X256801905Y-79788057D01*
X256801905Y-79788057D02*
X256754286Y-79883295D01*
X256754286Y-79883295D02*
X256754286Y-80121390D01*
X256754286Y-80121390D02*
X256801905Y-80216628D01*
X256801905Y-80216628D02*
X256849524Y-80264247D01*
X256849524Y-80264247D02*
X256944762Y-80311866D01*
X256944762Y-80311866D02*
X257135238Y-80311866D01*
X257135238Y-80311866D02*
X257230476Y-80264247D01*
X257230476Y-80264247D02*
X257278095Y-80216628D01*
X257278095Y-80216628D02*
X257325714Y-80121390D01*
X214241142Y-84274819D02*
X213907809Y-83798628D01*
X213669714Y-84274819D02*
X213669714Y-83274819D01*
X213669714Y-83274819D02*
X214050666Y-83274819D01*
X214050666Y-83274819D02*
X214145904Y-83322438D01*
X214145904Y-83322438D02*
X214193523Y-83370057D01*
X214193523Y-83370057D02*
X214241142Y-83465295D01*
X214241142Y-83465295D02*
X214241142Y-83608152D01*
X214241142Y-83608152D02*
X214193523Y-83703390D01*
X214193523Y-83703390D02*
X214145904Y-83751009D01*
X214145904Y-83751009D02*
X214050666Y-83798628D01*
X214050666Y-83798628D02*
X213669714Y-83798628D01*
X215193523Y-84274819D02*
X214622095Y-84274819D01*
X214907809Y-84274819D02*
X214907809Y-83274819D01*
X214907809Y-83274819D02*
X214812571Y-83417676D01*
X214812571Y-83417676D02*
X214717333Y-83512914D01*
X214717333Y-83512914D02*
X214622095Y-83560533D01*
X215764952Y-83703390D02*
X215669714Y-83655771D01*
X215669714Y-83655771D02*
X215622095Y-83608152D01*
X215622095Y-83608152D02*
X215574476Y-83512914D01*
X215574476Y-83512914D02*
X215574476Y-83465295D01*
X215574476Y-83465295D02*
X215622095Y-83370057D01*
X215622095Y-83370057D02*
X215669714Y-83322438D01*
X215669714Y-83322438D02*
X215764952Y-83274819D01*
X215764952Y-83274819D02*
X215955428Y-83274819D01*
X215955428Y-83274819D02*
X216050666Y-83322438D01*
X216050666Y-83322438D02*
X216098285Y-83370057D01*
X216098285Y-83370057D02*
X216145904Y-83465295D01*
X216145904Y-83465295D02*
X216145904Y-83512914D01*
X216145904Y-83512914D02*
X216098285Y-83608152D01*
X216098285Y-83608152D02*
X216050666Y-83655771D01*
X216050666Y-83655771D02*
X215955428Y-83703390D01*
X215955428Y-83703390D02*
X215764952Y-83703390D01*
X215764952Y-83703390D02*
X215669714Y-83751009D01*
X215669714Y-83751009D02*
X215622095Y-83798628D01*
X215622095Y-83798628D02*
X215574476Y-83893866D01*
X215574476Y-83893866D02*
X215574476Y-84084342D01*
X215574476Y-84084342D02*
X215622095Y-84179580D01*
X215622095Y-84179580D02*
X215669714Y-84227200D01*
X215669714Y-84227200D02*
X215764952Y-84274819D01*
X215764952Y-84274819D02*
X215955428Y-84274819D01*
X215955428Y-84274819D02*
X216050666Y-84227200D01*
X216050666Y-84227200D02*
X216098285Y-84179580D01*
X216098285Y-84179580D02*
X216145904Y-84084342D01*
X216145904Y-84084342D02*
X216145904Y-83893866D01*
X216145904Y-83893866D02*
X216098285Y-83798628D01*
X216098285Y-83798628D02*
X216050666Y-83751009D01*
X216050666Y-83751009D02*
X215955428Y-83703390D01*
X235291332Y-81131629D02*
X235243713Y-81179249D01*
X235243713Y-81179249D02*
X235100856Y-81226868D01*
X235100856Y-81226868D02*
X235005618Y-81226868D01*
X235005618Y-81226868D02*
X234862761Y-81179249D01*
X234862761Y-81179249D02*
X234767523Y-81084010D01*
X234767523Y-81084010D02*
X234719904Y-80988772D01*
X234719904Y-80988772D02*
X234672285Y-80798296D01*
X234672285Y-80798296D02*
X234672285Y-80655439D01*
X234672285Y-80655439D02*
X234719904Y-80464963D01*
X234719904Y-80464963D02*
X234767523Y-80369725D01*
X234767523Y-80369725D02*
X234862761Y-80274487D01*
X234862761Y-80274487D02*
X235005618Y-80226868D01*
X235005618Y-80226868D02*
X235100856Y-80226868D01*
X235100856Y-80226868D02*
X235243713Y-80274487D01*
X235243713Y-80274487D02*
X235291332Y-80322106D01*
X235624666Y-80226868D02*
X236291332Y-80226868D01*
X236291332Y-80226868D02*
X235862761Y-81226868D01*
X192960666Y-79206819D02*
X192960666Y-79921104D01*
X192960666Y-79921104D02*
X192913047Y-80063961D01*
X192913047Y-80063961D02*
X192817809Y-80159200D01*
X192817809Y-80159200D02*
X192674952Y-80206819D01*
X192674952Y-80206819D02*
X192579714Y-80206819D01*
X193913047Y-79206819D02*
X193436857Y-79206819D01*
X193436857Y-79206819D02*
X193389238Y-79683009D01*
X193389238Y-79683009D02*
X193436857Y-79635390D01*
X193436857Y-79635390D02*
X193532095Y-79587771D01*
X193532095Y-79587771D02*
X193770190Y-79587771D01*
X193770190Y-79587771D02*
X193865428Y-79635390D01*
X193865428Y-79635390D02*
X193913047Y-79683009D01*
X193913047Y-79683009D02*
X193960666Y-79778247D01*
X193960666Y-79778247D02*
X193960666Y-80016342D01*
X193960666Y-80016342D02*
X193913047Y-80111580D01*
X193913047Y-80111580D02*
X193865428Y-80159200D01*
X193865428Y-80159200D02*
X193770190Y-80206819D01*
X193770190Y-80206819D02*
X193532095Y-80206819D01*
X193532095Y-80206819D02*
X193436857Y-80159200D01*
X193436857Y-80159200D02*
X193389238Y-80111580D01*
X190034442Y-110630419D02*
X189701109Y-110154228D01*
X189463014Y-110630419D02*
X189463014Y-109630419D01*
X189463014Y-109630419D02*
X189843966Y-109630419D01*
X189843966Y-109630419D02*
X189939204Y-109678038D01*
X189939204Y-109678038D02*
X189986823Y-109725657D01*
X189986823Y-109725657D02*
X190034442Y-109820895D01*
X190034442Y-109820895D02*
X190034442Y-109963752D01*
X190034442Y-109963752D02*
X189986823Y-110058990D01*
X189986823Y-110058990D02*
X189939204Y-110106609D01*
X189939204Y-110106609D02*
X189843966Y-110154228D01*
X189843966Y-110154228D02*
X189463014Y-110154228D01*
X190415395Y-109725657D02*
X190463014Y-109678038D01*
X190463014Y-109678038D02*
X190558252Y-109630419D01*
X190558252Y-109630419D02*
X190796347Y-109630419D01*
X190796347Y-109630419D02*
X190891585Y-109678038D01*
X190891585Y-109678038D02*
X190939204Y-109725657D01*
X190939204Y-109725657D02*
X190986823Y-109820895D01*
X190986823Y-109820895D02*
X190986823Y-109916133D01*
X190986823Y-109916133D02*
X190939204Y-110058990D01*
X190939204Y-110058990D02*
X190367776Y-110630419D01*
X190367776Y-110630419D02*
X190986823Y-110630419D01*
X191605871Y-109630419D02*
X191701109Y-109630419D01*
X191701109Y-109630419D02*
X191796347Y-109678038D01*
X191796347Y-109678038D02*
X191843966Y-109725657D01*
X191843966Y-109725657D02*
X191891585Y-109820895D01*
X191891585Y-109820895D02*
X191939204Y-110011371D01*
X191939204Y-110011371D02*
X191939204Y-110249466D01*
X191939204Y-110249466D02*
X191891585Y-110439942D01*
X191891585Y-110439942D02*
X191843966Y-110535180D01*
X191843966Y-110535180D02*
X191796347Y-110582800D01*
X191796347Y-110582800D02*
X191701109Y-110630419D01*
X191701109Y-110630419D02*
X191605871Y-110630419D01*
X191605871Y-110630419D02*
X191510633Y-110582800D01*
X191510633Y-110582800D02*
X191463014Y-110535180D01*
X191463014Y-110535180D02*
X191415395Y-110439942D01*
X191415395Y-110439942D02*
X191367776Y-110249466D01*
X191367776Y-110249466D02*
X191367776Y-110011371D01*
X191367776Y-110011371D02*
X191415395Y-109820895D01*
X191415395Y-109820895D02*
X191463014Y-109725657D01*
X191463014Y-109725657D02*
X191510633Y-109678038D01*
X191510633Y-109678038D02*
X191605871Y-109630419D01*
X248785142Y-88751580D02*
X248737523Y-88799200D01*
X248737523Y-88799200D02*
X248594666Y-88846819D01*
X248594666Y-88846819D02*
X248499428Y-88846819D01*
X248499428Y-88846819D02*
X248356571Y-88799200D01*
X248356571Y-88799200D02*
X248261333Y-88703961D01*
X248261333Y-88703961D02*
X248213714Y-88608723D01*
X248213714Y-88608723D02*
X248166095Y-88418247D01*
X248166095Y-88418247D02*
X248166095Y-88275390D01*
X248166095Y-88275390D02*
X248213714Y-88084914D01*
X248213714Y-88084914D02*
X248261333Y-87989676D01*
X248261333Y-87989676D02*
X248356571Y-87894438D01*
X248356571Y-87894438D02*
X248499428Y-87846819D01*
X248499428Y-87846819D02*
X248594666Y-87846819D01*
X248594666Y-87846819D02*
X248737523Y-87894438D01*
X248737523Y-87894438D02*
X248785142Y-87942057D01*
X249737523Y-88846819D02*
X249166095Y-88846819D01*
X249451809Y-88846819D02*
X249451809Y-87846819D01*
X249451809Y-87846819D02*
X249356571Y-87989676D01*
X249356571Y-87989676D02*
X249261333Y-88084914D01*
X249261333Y-88084914D02*
X249166095Y-88132533D01*
X250118476Y-87942057D02*
X250166095Y-87894438D01*
X250166095Y-87894438D02*
X250261333Y-87846819D01*
X250261333Y-87846819D02*
X250499428Y-87846819D01*
X250499428Y-87846819D02*
X250594666Y-87894438D01*
X250594666Y-87894438D02*
X250642285Y-87942057D01*
X250642285Y-87942057D02*
X250689904Y-88037295D01*
X250689904Y-88037295D02*
X250689904Y-88132533D01*
X250689904Y-88132533D02*
X250642285Y-88275390D01*
X250642285Y-88275390D02*
X250070857Y-88846819D01*
X250070857Y-88846819D02*
X250689904Y-88846819D01*
X238796819Y-111267304D02*
X239606342Y-111267304D01*
X239606342Y-111267304D02*
X239701580Y-111219685D01*
X239701580Y-111219685D02*
X239749200Y-111172066D01*
X239749200Y-111172066D02*
X239796819Y-111076828D01*
X239796819Y-111076828D02*
X239796819Y-110886352D01*
X239796819Y-110886352D02*
X239749200Y-110791114D01*
X239749200Y-110791114D02*
X239701580Y-110743495D01*
X239701580Y-110743495D02*
X239606342Y-110695876D01*
X239606342Y-110695876D02*
X238796819Y-110695876D01*
X238892057Y-110267304D02*
X238844438Y-110219685D01*
X238844438Y-110219685D02*
X238796819Y-110124447D01*
X238796819Y-110124447D02*
X238796819Y-109886352D01*
X238796819Y-109886352D02*
X238844438Y-109791114D01*
X238844438Y-109791114D02*
X238892057Y-109743495D01*
X238892057Y-109743495D02*
X238987295Y-109695876D01*
X238987295Y-109695876D02*
X239082533Y-109695876D01*
X239082533Y-109695876D02*
X239225390Y-109743495D01*
X239225390Y-109743495D02*
X239796819Y-110314923D01*
X239796819Y-110314923D02*
X239796819Y-109695876D01*
X251537567Y-77454447D02*
X251537567Y-78264531D01*
X251537567Y-78264531D02*
X251585219Y-78359835D01*
X251585219Y-78359835D02*
X251632871Y-78407488D01*
X251632871Y-78407488D02*
X251728175Y-78455140D01*
X251728175Y-78455140D02*
X251918783Y-78455140D01*
X251918783Y-78455140D02*
X252014087Y-78407488D01*
X252014087Y-78407488D02*
X252061739Y-78359835D01*
X252061739Y-78359835D02*
X252109391Y-78264531D01*
X252109391Y-78264531D02*
X252109391Y-77454447D01*
X253014780Y-77788011D02*
X253014780Y-78455140D01*
X252776520Y-77406795D02*
X252538260Y-78121575D01*
X252538260Y-78121575D02*
X253157736Y-78121575D01*
X211814628Y-109950190D02*
X212290819Y-109950190D01*
X211290819Y-110283523D02*
X211814628Y-109950190D01*
X211814628Y-109950190D02*
X211290819Y-109616857D01*
X212290819Y-108759714D02*
X212290819Y-109331142D01*
X212290819Y-109045428D02*
X211290819Y-109045428D01*
X211290819Y-109045428D02*
X211433676Y-109140666D01*
X211433676Y-109140666D02*
X211528914Y-109235904D01*
X211528914Y-109235904D02*
X211576533Y-109331142D01*
X254584833Y-119376580D02*
X254584833Y-118662295D01*
X254584833Y-118662295D02*
X254632452Y-118519438D01*
X254632452Y-118519438D02*
X254727690Y-118424200D01*
X254727690Y-118424200D02*
X254870547Y-118376580D01*
X254870547Y-118376580D02*
X254965785Y-118376580D01*
X253584833Y-118376580D02*
X254156261Y-118376580D01*
X253870547Y-118376580D02*
X253870547Y-119376580D01*
X253870547Y-119376580D02*
X253965785Y-119233723D01*
X253965785Y-119233723D02*
X254061023Y-119138485D01*
X254061023Y-119138485D02*
X254156261Y-119090866D01*
X260090959Y-123481220D02*
X260090959Y-123243125D01*
X260329054Y-123338363D02*
X260090959Y-123243125D01*
X260090959Y-123243125D02*
X259852864Y-123338363D01*
X260233816Y-123052649D02*
X260090959Y-123243125D01*
X260090959Y-123243125D02*
X259948102Y-123052649D01*
X260090960Y-122390859D02*
X260090960Y-122628954D01*
X259852865Y-122533716D02*
X260090960Y-122628954D01*
X260090960Y-122628954D02*
X260329055Y-122533716D01*
X259948103Y-122819430D02*
X260090960Y-122628954D01*
X260090960Y-122628954D02*
X260233817Y-122819430D01*
X251166333Y-92783819D02*
X250833000Y-92307628D01*
X250594905Y-92783819D02*
X250594905Y-91783819D01*
X250594905Y-91783819D02*
X250975857Y-91783819D01*
X250975857Y-91783819D02*
X251071095Y-91831438D01*
X251071095Y-91831438D02*
X251118714Y-91879057D01*
X251118714Y-91879057D02*
X251166333Y-91974295D01*
X251166333Y-91974295D02*
X251166333Y-92117152D01*
X251166333Y-92117152D02*
X251118714Y-92212390D01*
X251118714Y-92212390D02*
X251071095Y-92260009D01*
X251071095Y-92260009D02*
X250975857Y-92307628D01*
X250975857Y-92307628D02*
X250594905Y-92307628D01*
X251642524Y-92783819D02*
X251833000Y-92783819D01*
X251833000Y-92783819D02*
X251928238Y-92736200D01*
X251928238Y-92736200D02*
X251975857Y-92688580D01*
X251975857Y-92688580D02*
X252071095Y-92545723D01*
X252071095Y-92545723D02*
X252118714Y-92355247D01*
X252118714Y-92355247D02*
X252118714Y-91974295D01*
X252118714Y-91974295D02*
X252071095Y-91879057D01*
X252071095Y-91879057D02*
X252023476Y-91831438D01*
X252023476Y-91831438D02*
X251928238Y-91783819D01*
X251928238Y-91783819D02*
X251737762Y-91783819D01*
X251737762Y-91783819D02*
X251642524Y-91831438D01*
X251642524Y-91831438D02*
X251594905Y-91879057D01*
X251594905Y-91879057D02*
X251547286Y-91974295D01*
X251547286Y-91974295D02*
X251547286Y-92212390D01*
X251547286Y-92212390D02*
X251594905Y-92307628D01*
X251594905Y-92307628D02*
X251642524Y-92355247D01*
X251642524Y-92355247D02*
X251737762Y-92402866D01*
X251737762Y-92402866D02*
X251928238Y-92402866D01*
X251928238Y-92402866D02*
X252023476Y-92355247D01*
X252023476Y-92355247D02*
X252071095Y-92307628D01*
X252071095Y-92307628D02*
X252118714Y-92212390D01*
X246245142Y-86211580D02*
X246197523Y-86259200D01*
X246197523Y-86259200D02*
X246054666Y-86306819D01*
X246054666Y-86306819D02*
X245959428Y-86306819D01*
X245959428Y-86306819D02*
X245816571Y-86259200D01*
X245816571Y-86259200D02*
X245721333Y-86163961D01*
X245721333Y-86163961D02*
X245673714Y-86068723D01*
X245673714Y-86068723D02*
X245626095Y-85878247D01*
X245626095Y-85878247D02*
X245626095Y-85735390D01*
X245626095Y-85735390D02*
X245673714Y-85544914D01*
X245673714Y-85544914D02*
X245721333Y-85449676D01*
X245721333Y-85449676D02*
X245816571Y-85354438D01*
X245816571Y-85354438D02*
X245959428Y-85306819D01*
X245959428Y-85306819D02*
X246054666Y-85306819D01*
X246054666Y-85306819D02*
X246197523Y-85354438D01*
X246197523Y-85354438D02*
X246245142Y-85402057D01*
X247197523Y-86306819D02*
X246626095Y-86306819D01*
X246911809Y-86306819D02*
X246911809Y-85306819D01*
X246911809Y-85306819D02*
X246816571Y-85449676D01*
X246816571Y-85449676D02*
X246721333Y-85544914D01*
X246721333Y-85544914D02*
X246626095Y-85592533D01*
X248149904Y-86306819D02*
X247578476Y-86306819D01*
X247864190Y-86306819D02*
X247864190Y-85306819D01*
X247864190Y-85306819D02*
X247768952Y-85449676D01*
X247768952Y-85449676D02*
X247673714Y-85544914D01*
X247673714Y-85544914D02*
X247578476Y-85592533D01*
X218559142Y-78940819D02*
X218225809Y-78464628D01*
X217987714Y-78940819D02*
X217987714Y-77940819D01*
X217987714Y-77940819D02*
X218368666Y-77940819D01*
X218368666Y-77940819D02*
X218463904Y-77988438D01*
X218463904Y-77988438D02*
X218511523Y-78036057D01*
X218511523Y-78036057D02*
X218559142Y-78131295D01*
X218559142Y-78131295D02*
X218559142Y-78274152D01*
X218559142Y-78274152D02*
X218511523Y-78369390D01*
X218511523Y-78369390D02*
X218463904Y-78417009D01*
X218463904Y-78417009D02*
X218368666Y-78464628D01*
X218368666Y-78464628D02*
X217987714Y-78464628D01*
X219511523Y-78940819D02*
X218940095Y-78940819D01*
X219225809Y-78940819D02*
X219225809Y-77940819D01*
X219225809Y-77940819D02*
X219130571Y-78083676D01*
X219130571Y-78083676D02*
X219035333Y-78178914D01*
X219035333Y-78178914D02*
X218940095Y-78226533D01*
X220463904Y-78940819D02*
X219892476Y-78940819D01*
X220178190Y-78940819D02*
X220178190Y-77940819D01*
X220178190Y-77940819D02*
X220082952Y-78083676D01*
X220082952Y-78083676D02*
X219987714Y-78178914D01*
X219987714Y-78178914D02*
X219892476Y-78226533D01*
X239331580Y-101740666D02*
X239379200Y-101788285D01*
X239379200Y-101788285D02*
X239426819Y-101931142D01*
X239426819Y-101931142D02*
X239426819Y-102026380D01*
X239426819Y-102026380D02*
X239379200Y-102169237D01*
X239379200Y-102169237D02*
X239283961Y-102264475D01*
X239283961Y-102264475D02*
X239188723Y-102312094D01*
X239188723Y-102312094D02*
X238998247Y-102359713D01*
X238998247Y-102359713D02*
X238855390Y-102359713D01*
X238855390Y-102359713D02*
X238664914Y-102312094D01*
X238664914Y-102312094D02*
X238569676Y-102264475D01*
X238569676Y-102264475D02*
X238474438Y-102169237D01*
X238474438Y-102169237D02*
X238426819Y-102026380D01*
X238426819Y-102026380D02*
X238426819Y-101931142D01*
X238426819Y-101931142D02*
X238474438Y-101788285D01*
X238474438Y-101788285D02*
X238522057Y-101740666D01*
X238760152Y-100883523D02*
X239426819Y-100883523D01*
X238379200Y-101121618D02*
X239093485Y-101359713D01*
X239093485Y-101359713D02*
X239093485Y-100740666D01*
X232302207Y-125961980D02*
X232445064Y-126009599D01*
X232445064Y-126009599D02*
X232683159Y-126009599D01*
X232683159Y-126009599D02*
X232778397Y-125961980D01*
X232778397Y-125961980D02*
X232826016Y-125914360D01*
X232826016Y-125914360D02*
X232873635Y-125819122D01*
X232873635Y-125819122D02*
X232873635Y-125723884D01*
X232873635Y-125723884D02*
X232826016Y-125628646D01*
X232826016Y-125628646D02*
X232778397Y-125581027D01*
X232778397Y-125581027D02*
X232683159Y-125533408D01*
X232683159Y-125533408D02*
X232492683Y-125485789D01*
X232492683Y-125485789D02*
X232397445Y-125438170D01*
X232397445Y-125438170D02*
X232349826Y-125390551D01*
X232349826Y-125390551D02*
X232302207Y-125295313D01*
X232302207Y-125295313D02*
X232302207Y-125200075D01*
X232302207Y-125200075D02*
X232349826Y-125104837D01*
X232349826Y-125104837D02*
X232397445Y-125057218D01*
X232397445Y-125057218D02*
X232492683Y-125009599D01*
X232492683Y-125009599D02*
X232730778Y-125009599D01*
X232730778Y-125009599D02*
X232873635Y-125057218D01*
X233206969Y-125009599D02*
X233445064Y-126009599D01*
X233445064Y-126009599D02*
X233635540Y-125295313D01*
X233635540Y-125295313D02*
X233826016Y-126009599D01*
X233826016Y-126009599D02*
X234064112Y-125009599D01*
X234873635Y-125342932D02*
X234873635Y-126009599D01*
X234635540Y-124961980D02*
X234397445Y-125676265D01*
X234397445Y-125676265D02*
X235016492Y-125676265D01*
X239510819Y-108904666D02*
X239034628Y-109237999D01*
X239510819Y-109476094D02*
X238510819Y-109476094D01*
X238510819Y-109476094D02*
X238510819Y-109095142D01*
X238510819Y-109095142D02*
X238558438Y-108999904D01*
X238558438Y-108999904D02*
X238606057Y-108952285D01*
X238606057Y-108952285D02*
X238701295Y-108904666D01*
X238701295Y-108904666D02*
X238844152Y-108904666D01*
X238844152Y-108904666D02*
X238939390Y-108952285D01*
X238939390Y-108952285D02*
X238987009Y-108999904D01*
X238987009Y-108999904D02*
X239034628Y-109095142D01*
X239034628Y-109095142D02*
X239034628Y-109476094D01*
X238510819Y-107999904D02*
X238510819Y-108476094D01*
X238510819Y-108476094D02*
X238987009Y-108523713D01*
X238987009Y-108523713D02*
X238939390Y-108476094D01*
X238939390Y-108476094D02*
X238891771Y-108380856D01*
X238891771Y-108380856D02*
X238891771Y-108142761D01*
X238891771Y-108142761D02*
X238939390Y-108047523D01*
X238939390Y-108047523D02*
X238987009Y-107999904D01*
X238987009Y-107999904D02*
X239082247Y-107952285D01*
X239082247Y-107952285D02*
X239320342Y-107952285D01*
X239320342Y-107952285D02*
X239415580Y-107999904D01*
X239415580Y-107999904D02*
X239463200Y-108047523D01*
X239463200Y-108047523D02*
X239510819Y-108142761D01*
X239510819Y-108142761D02*
X239510819Y-108380856D01*
X239510819Y-108380856D02*
X239463200Y-108476094D01*
X239463200Y-108476094D02*
X239415580Y-108523713D01*
X216513580Y-115482666D02*
X216561200Y-115530285D01*
X216561200Y-115530285D02*
X216608819Y-115673142D01*
X216608819Y-115673142D02*
X216608819Y-115768380D01*
X216608819Y-115768380D02*
X216561200Y-115911237D01*
X216561200Y-115911237D02*
X216465961Y-116006475D01*
X216465961Y-116006475D02*
X216370723Y-116054094D01*
X216370723Y-116054094D02*
X216180247Y-116101713D01*
X216180247Y-116101713D02*
X216037390Y-116101713D01*
X216037390Y-116101713D02*
X215846914Y-116054094D01*
X215846914Y-116054094D02*
X215751676Y-116006475D01*
X215751676Y-116006475D02*
X215656438Y-115911237D01*
X215656438Y-115911237D02*
X215608819Y-115768380D01*
X215608819Y-115768380D02*
X215608819Y-115673142D01*
X215608819Y-115673142D02*
X215656438Y-115530285D01*
X215656438Y-115530285D02*
X215704057Y-115482666D01*
X216608819Y-114530285D02*
X216608819Y-115101713D01*
X216608819Y-114815999D02*
X215608819Y-114815999D01*
X215608819Y-114815999D02*
X215751676Y-114911237D01*
X215751676Y-114911237D02*
X215846914Y-115006475D01*
X215846914Y-115006475D02*
X215894533Y-115101713D01*
D14*
X193249318Y-71749332D02*
X194156461Y-71749332D01*
X194156461Y-71749332D02*
X194337889Y-71809809D01*
X194337889Y-71809809D02*
X194458842Y-71930761D01*
X194458842Y-71930761D02*
X194519318Y-72112190D01*
X194519318Y-72112190D02*
X194519318Y-72233142D01*
X193249318Y-71265523D02*
X193249318Y-70479332D01*
X193249318Y-70479332D02*
X193733127Y-70902666D01*
X193733127Y-70902666D02*
X193733127Y-70721237D01*
X193733127Y-70721237D02*
X193793603Y-70600285D01*
X193793603Y-70600285D02*
X193854080Y-70539809D01*
X193854080Y-70539809D02*
X193975032Y-70479332D01*
X193975032Y-70479332D02*
X194277413Y-70479332D01*
X194277413Y-70479332D02*
X194398365Y-70539809D01*
X194398365Y-70539809D02*
X194458842Y-70600285D01*
X194458842Y-70600285D02*
X194519318Y-70721237D01*
X194519318Y-70721237D02*
X194519318Y-71084094D01*
X194519318Y-71084094D02*
X194458842Y-71205047D01*
X194458842Y-71205047D02*
X194398365Y-71265523D01*
D11*
X239107142Y-95154819D02*
X238773809Y-94678628D01*
X238535714Y-95154819D02*
X238535714Y-94154819D01*
X238535714Y-94154819D02*
X238916666Y-94154819D01*
X238916666Y-94154819D02*
X239011904Y-94202438D01*
X239011904Y-94202438D02*
X239059523Y-94250057D01*
X239059523Y-94250057D02*
X239107142Y-94345295D01*
X239107142Y-94345295D02*
X239107142Y-94488152D01*
X239107142Y-94488152D02*
X239059523Y-94583390D01*
X239059523Y-94583390D02*
X239011904Y-94631009D01*
X239011904Y-94631009D02*
X238916666Y-94678628D01*
X238916666Y-94678628D02*
X238535714Y-94678628D01*
X239488095Y-94250057D02*
X239535714Y-94202438D01*
X239535714Y-94202438D02*
X239630952Y-94154819D01*
X239630952Y-94154819D02*
X239869047Y-94154819D01*
X239869047Y-94154819D02*
X239964285Y-94202438D01*
X239964285Y-94202438D02*
X240011904Y-94250057D01*
X240011904Y-94250057D02*
X240059523Y-94345295D01*
X240059523Y-94345295D02*
X240059523Y-94440533D01*
X240059523Y-94440533D02*
X240011904Y-94583390D01*
X240011904Y-94583390D02*
X239440476Y-95154819D01*
X239440476Y-95154819D02*
X240059523Y-95154819D01*
X240916666Y-94154819D02*
X240726190Y-94154819D01*
X240726190Y-94154819D02*
X240630952Y-94202438D01*
X240630952Y-94202438D02*
X240583333Y-94250057D01*
X240583333Y-94250057D02*
X240488095Y-94392914D01*
X240488095Y-94392914D02*
X240440476Y-94583390D01*
X240440476Y-94583390D02*
X240440476Y-94964342D01*
X240440476Y-94964342D02*
X240488095Y-95059580D01*
X240488095Y-95059580D02*
X240535714Y-95107200D01*
X240535714Y-95107200D02*
X240630952Y-95154819D01*
X240630952Y-95154819D02*
X240821428Y-95154819D01*
X240821428Y-95154819D02*
X240916666Y-95107200D01*
X240916666Y-95107200D02*
X240964285Y-95059580D01*
X240964285Y-95059580D02*
X241011904Y-94964342D01*
X241011904Y-94964342D02*
X241011904Y-94726247D01*
X241011904Y-94726247D02*
X240964285Y-94631009D01*
X240964285Y-94631009D02*
X240916666Y-94583390D01*
X240916666Y-94583390D02*
X240821428Y-94535771D01*
X240821428Y-94535771D02*
X240630952Y-94535771D01*
X240630952Y-94535771D02*
X240535714Y-94583390D01*
X240535714Y-94583390D02*
X240488095Y-94631009D01*
X240488095Y-94631009D02*
X240440476Y-94726247D01*
X214267142Y-89354819D02*
X213933809Y-88878628D01*
X213695714Y-89354819D02*
X213695714Y-88354819D01*
X213695714Y-88354819D02*
X214076666Y-88354819D01*
X214076666Y-88354819D02*
X214171904Y-88402438D01*
X214171904Y-88402438D02*
X214219523Y-88450057D01*
X214219523Y-88450057D02*
X214267142Y-88545295D01*
X214267142Y-88545295D02*
X214267142Y-88688152D01*
X214267142Y-88688152D02*
X214219523Y-88783390D01*
X214219523Y-88783390D02*
X214171904Y-88831009D01*
X214171904Y-88831009D02*
X214076666Y-88878628D01*
X214076666Y-88878628D02*
X213695714Y-88878628D01*
X215219523Y-89354819D02*
X214648095Y-89354819D01*
X214933809Y-89354819D02*
X214933809Y-88354819D01*
X214933809Y-88354819D02*
X214838571Y-88497676D01*
X214838571Y-88497676D02*
X214743333Y-88592914D01*
X214743333Y-88592914D02*
X214648095Y-88640533D01*
X216076666Y-88354819D02*
X215886190Y-88354819D01*
X215886190Y-88354819D02*
X215790952Y-88402438D01*
X215790952Y-88402438D02*
X215743333Y-88450057D01*
X215743333Y-88450057D02*
X215648095Y-88592914D01*
X215648095Y-88592914D02*
X215600476Y-88783390D01*
X215600476Y-88783390D02*
X215600476Y-89164342D01*
X215600476Y-89164342D02*
X215648095Y-89259580D01*
X215648095Y-89259580D02*
X215695714Y-89307200D01*
X215695714Y-89307200D02*
X215790952Y-89354819D01*
X215790952Y-89354819D02*
X215981428Y-89354819D01*
X215981428Y-89354819D02*
X216076666Y-89307200D01*
X216076666Y-89307200D02*
X216124285Y-89259580D01*
X216124285Y-89259580D02*
X216171904Y-89164342D01*
X216171904Y-89164342D02*
X216171904Y-88926247D01*
X216171904Y-88926247D02*
X216124285Y-88831009D01*
X216124285Y-88831009D02*
X216076666Y-88783390D01*
X216076666Y-88783390D02*
X215981428Y-88735771D01*
X215981428Y-88735771D02*
X215790952Y-88735771D01*
X215790952Y-88735771D02*
X215695714Y-88783390D01*
X215695714Y-88783390D02*
X215648095Y-88831009D01*
X215648095Y-88831009D02*
X215600476Y-88926247D01*
X217829819Y-69978333D02*
X218544104Y-69978333D01*
X218544104Y-69978333D02*
X218686961Y-70025952D01*
X218686961Y-70025952D02*
X218782200Y-70121190D01*
X218782200Y-70121190D02*
X218829819Y-70264047D01*
X218829819Y-70264047D02*
X218829819Y-70359285D01*
X218258390Y-69359285D02*
X218210771Y-69454523D01*
X218210771Y-69454523D02*
X218163152Y-69502142D01*
X218163152Y-69502142D02*
X218067914Y-69549761D01*
X218067914Y-69549761D02*
X218020295Y-69549761D01*
X218020295Y-69549761D02*
X217925057Y-69502142D01*
X217925057Y-69502142D02*
X217877438Y-69454523D01*
X217877438Y-69454523D02*
X217829819Y-69359285D01*
X217829819Y-69359285D02*
X217829819Y-69168809D01*
X217829819Y-69168809D02*
X217877438Y-69073571D01*
X217877438Y-69073571D02*
X217925057Y-69025952D01*
X217925057Y-69025952D02*
X218020295Y-68978333D01*
X218020295Y-68978333D02*
X218067914Y-68978333D01*
X218067914Y-68978333D02*
X218163152Y-69025952D01*
X218163152Y-69025952D02*
X218210771Y-69073571D01*
X218210771Y-69073571D02*
X218258390Y-69168809D01*
X218258390Y-69168809D02*
X218258390Y-69359285D01*
X218258390Y-69359285D02*
X218306009Y-69454523D01*
X218306009Y-69454523D02*
X218353628Y-69502142D01*
X218353628Y-69502142D02*
X218448866Y-69549761D01*
X218448866Y-69549761D02*
X218639342Y-69549761D01*
X218639342Y-69549761D02*
X218734580Y-69502142D01*
X218734580Y-69502142D02*
X218782200Y-69454523D01*
X218782200Y-69454523D02*
X218829819Y-69359285D01*
X218829819Y-69359285D02*
X218829819Y-69168809D01*
X218829819Y-69168809D02*
X218782200Y-69073571D01*
X218782200Y-69073571D02*
X218734580Y-69025952D01*
X218734580Y-69025952D02*
X218639342Y-68978333D01*
X218639342Y-68978333D02*
X218448866Y-68978333D01*
X218448866Y-68978333D02*
X218353628Y-69025952D01*
X218353628Y-69025952D02*
X218306009Y-69073571D01*
X218306009Y-69073571D02*
X218258390Y-69168809D01*
X218051142Y-76400819D02*
X217717809Y-75924628D01*
X217479714Y-76400819D02*
X217479714Y-75400819D01*
X217479714Y-75400819D02*
X217860666Y-75400819D01*
X217860666Y-75400819D02*
X217955904Y-75448438D01*
X217955904Y-75448438D02*
X218003523Y-75496057D01*
X218003523Y-75496057D02*
X218051142Y-75591295D01*
X218051142Y-75591295D02*
X218051142Y-75734152D01*
X218051142Y-75734152D02*
X218003523Y-75829390D01*
X218003523Y-75829390D02*
X217955904Y-75877009D01*
X217955904Y-75877009D02*
X217860666Y-75924628D01*
X217860666Y-75924628D02*
X217479714Y-75924628D01*
X219003523Y-76400819D02*
X218432095Y-76400819D01*
X218717809Y-76400819D02*
X218717809Y-75400819D01*
X218717809Y-75400819D02*
X218622571Y-75543676D01*
X218622571Y-75543676D02*
X218527333Y-75638914D01*
X218527333Y-75638914D02*
X218432095Y-75686533D01*
X219384476Y-75496057D02*
X219432095Y-75448438D01*
X219432095Y-75448438D02*
X219527333Y-75400819D01*
X219527333Y-75400819D02*
X219765428Y-75400819D01*
X219765428Y-75400819D02*
X219860666Y-75448438D01*
X219860666Y-75448438D02*
X219908285Y-75496057D01*
X219908285Y-75496057D02*
X219955904Y-75591295D01*
X219955904Y-75591295D02*
X219955904Y-75686533D01*
X219955904Y-75686533D02*
X219908285Y-75829390D01*
X219908285Y-75829390D02*
X219336857Y-76400819D01*
X219336857Y-76400819D02*
X219955904Y-76400819D01*
X193414666Y-98728819D02*
X193414666Y-99443104D01*
X193414666Y-99443104D02*
X193367047Y-99585961D01*
X193367047Y-99585961D02*
X193271809Y-99681200D01*
X193271809Y-99681200D02*
X193128952Y-99728819D01*
X193128952Y-99728819D02*
X193033714Y-99728819D01*
X193795619Y-98728819D02*
X194462285Y-98728819D01*
X194462285Y-98728819D02*
X194033714Y-99728819D01*
X223469742Y-93970319D02*
X223136409Y-93494128D01*
X222898314Y-93970319D02*
X222898314Y-92970319D01*
X222898314Y-92970319D02*
X223279266Y-92970319D01*
X223279266Y-92970319D02*
X223374504Y-93017938D01*
X223374504Y-93017938D02*
X223422123Y-93065557D01*
X223422123Y-93065557D02*
X223469742Y-93160795D01*
X223469742Y-93160795D02*
X223469742Y-93303652D01*
X223469742Y-93303652D02*
X223422123Y-93398890D01*
X223422123Y-93398890D02*
X223374504Y-93446509D01*
X223374504Y-93446509D02*
X223279266Y-93494128D01*
X223279266Y-93494128D02*
X222898314Y-93494128D01*
X224422123Y-93970319D02*
X223850695Y-93970319D01*
X224136409Y-93970319D02*
X224136409Y-92970319D01*
X224136409Y-92970319D02*
X224041171Y-93113176D01*
X224041171Y-93113176D02*
X223945933Y-93208414D01*
X223945933Y-93208414D02*
X223850695Y-93256033D01*
X225279266Y-93303652D02*
X225279266Y-93970319D01*
X225041171Y-92922700D02*
X224803076Y-93636985D01*
X224803076Y-93636985D02*
X225422123Y-93636985D01*
X214241142Y-81734819D02*
X213907809Y-81258628D01*
X213669714Y-81734819D02*
X213669714Y-80734819D01*
X213669714Y-80734819D02*
X214050666Y-80734819D01*
X214050666Y-80734819D02*
X214145904Y-80782438D01*
X214145904Y-80782438D02*
X214193523Y-80830057D01*
X214193523Y-80830057D02*
X214241142Y-80925295D01*
X214241142Y-80925295D02*
X214241142Y-81068152D01*
X214241142Y-81068152D02*
X214193523Y-81163390D01*
X214193523Y-81163390D02*
X214145904Y-81211009D01*
X214145904Y-81211009D02*
X214050666Y-81258628D01*
X214050666Y-81258628D02*
X213669714Y-81258628D01*
X215193523Y-81734819D02*
X214622095Y-81734819D01*
X214907809Y-81734819D02*
X214907809Y-80734819D01*
X214907809Y-80734819D02*
X214812571Y-80877676D01*
X214812571Y-80877676D02*
X214717333Y-80972914D01*
X214717333Y-80972914D02*
X214622095Y-81020533D01*
X215669714Y-81734819D02*
X215860190Y-81734819D01*
X215860190Y-81734819D02*
X215955428Y-81687200D01*
X215955428Y-81687200D02*
X216003047Y-81639580D01*
X216003047Y-81639580D02*
X216098285Y-81496723D01*
X216098285Y-81496723D02*
X216145904Y-81306247D01*
X216145904Y-81306247D02*
X216145904Y-80925295D01*
X216145904Y-80925295D02*
X216098285Y-80830057D01*
X216098285Y-80830057D02*
X216050666Y-80782438D01*
X216050666Y-80782438D02*
X215955428Y-80734819D01*
X215955428Y-80734819D02*
X215764952Y-80734819D01*
X215764952Y-80734819D02*
X215669714Y-80782438D01*
X215669714Y-80782438D02*
X215622095Y-80830057D01*
X215622095Y-80830057D02*
X215574476Y-80925295D01*
X215574476Y-80925295D02*
X215574476Y-81163390D01*
X215574476Y-81163390D02*
X215622095Y-81258628D01*
X215622095Y-81258628D02*
X215669714Y-81306247D01*
X215669714Y-81306247D02*
X215764952Y-81353866D01*
X215764952Y-81353866D02*
X215955428Y-81353866D01*
X215955428Y-81353866D02*
X216050666Y-81306247D01*
X216050666Y-81306247D02*
X216098285Y-81258628D01*
X216098285Y-81258628D02*
X216145904Y-81163390D01*
X201358666Y-119317819D02*
X201025333Y-118841628D01*
X200787238Y-119317819D02*
X200787238Y-118317819D01*
X200787238Y-118317819D02*
X201168190Y-118317819D01*
X201168190Y-118317819D02*
X201263428Y-118365438D01*
X201263428Y-118365438D02*
X201311047Y-118413057D01*
X201311047Y-118413057D02*
X201358666Y-118508295D01*
X201358666Y-118508295D02*
X201358666Y-118651152D01*
X201358666Y-118651152D02*
X201311047Y-118746390D01*
X201311047Y-118746390D02*
X201263428Y-118794009D01*
X201263428Y-118794009D02*
X201168190Y-118841628D01*
X201168190Y-118841628D02*
X200787238Y-118841628D01*
X201787238Y-118794009D02*
X202120571Y-118794009D01*
X202263428Y-119317819D02*
X201787238Y-119317819D01*
X201787238Y-119317819D02*
X201787238Y-118317819D01*
X201787238Y-118317819D02*
X202263428Y-118317819D01*
X203025333Y-118794009D02*
X202692000Y-118794009D01*
X202692000Y-119317819D02*
X202692000Y-118317819D01*
X202692000Y-118317819D02*
X203168190Y-118317819D01*
X203692000Y-118317819D02*
X203692000Y-118555914D01*
X203453905Y-118460676D02*
X203692000Y-118555914D01*
X203692000Y-118555914D02*
X203930095Y-118460676D01*
X203549143Y-118746390D02*
X203692000Y-118555914D01*
X203692000Y-118555914D02*
X203834857Y-118746390D01*
X204453905Y-118317819D02*
X204453905Y-118555914D01*
X204215810Y-118460676D02*
X204453905Y-118555914D01*
X204453905Y-118555914D02*
X204692000Y-118460676D01*
X204311048Y-118746390D02*
X204453905Y-118555914D01*
X204453905Y-118555914D02*
X204596762Y-118746390D01*
X212452057Y-98296238D02*
X212404438Y-98391476D01*
X212404438Y-98391476D02*
X212309200Y-98486714D01*
X212309200Y-98486714D02*
X212166342Y-98629571D01*
X212166342Y-98629571D02*
X212118723Y-98724809D01*
X212118723Y-98724809D02*
X212118723Y-98820047D01*
X212356819Y-98772428D02*
X212309200Y-98867666D01*
X212309200Y-98867666D02*
X212213961Y-98962904D01*
X212213961Y-98962904D02*
X212023485Y-99010523D01*
X212023485Y-99010523D02*
X211690152Y-99010523D01*
X211690152Y-99010523D02*
X211499676Y-98962904D01*
X211499676Y-98962904D02*
X211404438Y-98867666D01*
X211404438Y-98867666D02*
X211356819Y-98772428D01*
X211356819Y-98772428D02*
X211356819Y-98581952D01*
X211356819Y-98581952D02*
X211404438Y-98486714D01*
X211404438Y-98486714D02*
X211499676Y-98391476D01*
X211499676Y-98391476D02*
X211690152Y-98343857D01*
X211690152Y-98343857D02*
X212023485Y-98343857D01*
X212023485Y-98343857D02*
X212213961Y-98391476D01*
X212213961Y-98391476D02*
X212309200Y-98486714D01*
X212309200Y-98486714D02*
X212356819Y-98581952D01*
X212356819Y-98581952D02*
X212356819Y-98772428D01*
X212356819Y-97391476D02*
X212356819Y-97962904D01*
X212356819Y-97677190D02*
X211356819Y-97677190D01*
X211356819Y-97677190D02*
X211499676Y-97772428D01*
X211499676Y-97772428D02*
X211594914Y-97867666D01*
X211594914Y-97867666D02*
X211642533Y-97962904D01*
X217257302Y-96139819D02*
X216923969Y-95663628D01*
X216685874Y-96139819D02*
X216685874Y-95139819D01*
X216685874Y-95139819D02*
X217066826Y-95139819D01*
X217066826Y-95139819D02*
X217162064Y-95187438D01*
X217162064Y-95187438D02*
X217209683Y-95235057D01*
X217209683Y-95235057D02*
X217257302Y-95330295D01*
X217257302Y-95330295D02*
X217257302Y-95473152D01*
X217257302Y-95473152D02*
X217209683Y-95568390D01*
X217209683Y-95568390D02*
X217162064Y-95616009D01*
X217162064Y-95616009D02*
X217066826Y-95663628D01*
X217066826Y-95663628D02*
X216685874Y-95663628D01*
X218114445Y-95139819D02*
X217923969Y-95139819D01*
X217923969Y-95139819D02*
X217828731Y-95187438D01*
X217828731Y-95187438D02*
X217781112Y-95235057D01*
X217781112Y-95235057D02*
X217685874Y-95377914D01*
X217685874Y-95377914D02*
X217638255Y-95568390D01*
X217638255Y-95568390D02*
X217638255Y-95949342D01*
X217638255Y-95949342D02*
X217685874Y-96044580D01*
X217685874Y-96044580D02*
X217733493Y-96092200D01*
X217733493Y-96092200D02*
X217828731Y-96139819D01*
X217828731Y-96139819D02*
X218019207Y-96139819D01*
X218019207Y-96139819D02*
X218114445Y-96092200D01*
X218114445Y-96092200D02*
X218162064Y-96044580D01*
X218162064Y-96044580D02*
X218209683Y-95949342D01*
X218209683Y-95949342D02*
X218209683Y-95711247D01*
X218209683Y-95711247D02*
X218162064Y-95616009D01*
X218162064Y-95616009D02*
X218114445Y-95568390D01*
X218114445Y-95568390D02*
X218019207Y-95520771D01*
X218019207Y-95520771D02*
X217828731Y-95520771D01*
X217828731Y-95520771D02*
X217733493Y-95568390D01*
X217733493Y-95568390D02*
X217685874Y-95616009D01*
X217685874Y-95616009D02*
X217638255Y-95711247D01*
X258875057Y-99445238D02*
X258827438Y-99540476D01*
X258827438Y-99540476D02*
X258732200Y-99635714D01*
X258732200Y-99635714D02*
X258589342Y-99778571D01*
X258589342Y-99778571D02*
X258541723Y-99873809D01*
X258541723Y-99873809D02*
X258541723Y-99969047D01*
X258779819Y-99921428D02*
X258732200Y-100016666D01*
X258732200Y-100016666D02*
X258636961Y-100111904D01*
X258636961Y-100111904D02*
X258446485Y-100159523D01*
X258446485Y-100159523D02*
X258113152Y-100159523D01*
X258113152Y-100159523D02*
X257922676Y-100111904D01*
X257922676Y-100111904D02*
X257827438Y-100016666D01*
X257827438Y-100016666D02*
X257779819Y-99921428D01*
X257779819Y-99921428D02*
X257779819Y-99730952D01*
X257779819Y-99730952D02*
X257827438Y-99635714D01*
X257827438Y-99635714D02*
X257922676Y-99540476D01*
X257922676Y-99540476D02*
X258113152Y-99492857D01*
X258113152Y-99492857D02*
X258446485Y-99492857D01*
X258446485Y-99492857D02*
X258636961Y-99540476D01*
X258636961Y-99540476D02*
X258732200Y-99635714D01*
X258732200Y-99635714D02*
X258779819Y-99730952D01*
X258779819Y-99730952D02*
X258779819Y-99921428D01*
X257779819Y-99159523D02*
X257779819Y-98540476D01*
X257779819Y-98540476D02*
X258160771Y-98873809D01*
X258160771Y-98873809D02*
X258160771Y-98730952D01*
X258160771Y-98730952D02*
X258208390Y-98635714D01*
X258208390Y-98635714D02*
X258256009Y-98588095D01*
X258256009Y-98588095D02*
X258351247Y-98540476D01*
X258351247Y-98540476D02*
X258589342Y-98540476D01*
X258589342Y-98540476D02*
X258684580Y-98588095D01*
X258684580Y-98588095D02*
X258732200Y-98635714D01*
X258732200Y-98635714D02*
X258779819Y-98730952D01*
X258779819Y-98730952D02*
X258779819Y-99016666D01*
X258779819Y-99016666D02*
X258732200Y-99111904D01*
X258732200Y-99111904D02*
X258684580Y-99159523D01*
X208911692Y-71411320D02*
X208768835Y-71363700D01*
X208768835Y-71363700D02*
X208530740Y-71363700D01*
X208530740Y-71363700D02*
X208435502Y-71411320D01*
X208435502Y-71411320D02*
X208387883Y-71458939D01*
X208387883Y-71458939D02*
X208340264Y-71554177D01*
X208340264Y-71554177D02*
X208340264Y-71649415D01*
X208340264Y-71649415D02*
X208387883Y-71744653D01*
X208387883Y-71744653D02*
X208435502Y-71792272D01*
X208435502Y-71792272D02*
X208530740Y-71839891D01*
X208530740Y-71839891D02*
X208721216Y-71887510D01*
X208721216Y-71887510D02*
X208816454Y-71935129D01*
X208816454Y-71935129D02*
X208864073Y-71982748D01*
X208864073Y-71982748D02*
X208911692Y-72077986D01*
X208911692Y-72077986D02*
X208911692Y-72173224D01*
X208911692Y-72173224D02*
X208864073Y-72268462D01*
X208864073Y-72268462D02*
X208816454Y-72316081D01*
X208816454Y-72316081D02*
X208721216Y-72363700D01*
X208721216Y-72363700D02*
X208483121Y-72363700D01*
X208483121Y-72363700D02*
X208340264Y-72316081D01*
X208006930Y-72363700D02*
X207768835Y-71363700D01*
X207768835Y-71363700D02*
X207578359Y-72077986D01*
X207578359Y-72077986D02*
X207387883Y-71363700D01*
X207387883Y-71363700D02*
X207149788Y-72363700D01*
X206245026Y-71363700D02*
X206816454Y-71363700D01*
X206530740Y-71363700D02*
X206530740Y-72363700D01*
X206530740Y-72363700D02*
X206625978Y-72220843D01*
X206625978Y-72220843D02*
X206721216Y-72125605D01*
X206721216Y-72125605D02*
X206816454Y-72077986D01*
X226407142Y-90074819D02*
X226073809Y-89598628D01*
X225835714Y-90074819D02*
X225835714Y-89074819D01*
X225835714Y-89074819D02*
X226216666Y-89074819D01*
X226216666Y-89074819D02*
X226311904Y-89122438D01*
X226311904Y-89122438D02*
X226359523Y-89170057D01*
X226359523Y-89170057D02*
X226407142Y-89265295D01*
X226407142Y-89265295D02*
X226407142Y-89408152D01*
X226407142Y-89408152D02*
X226359523Y-89503390D01*
X226359523Y-89503390D02*
X226311904Y-89551009D01*
X226311904Y-89551009D02*
X226216666Y-89598628D01*
X226216666Y-89598628D02*
X225835714Y-89598628D01*
X227359523Y-90074819D02*
X226788095Y-90074819D01*
X227073809Y-90074819D02*
X227073809Y-89074819D01*
X227073809Y-89074819D02*
X226978571Y-89217676D01*
X226978571Y-89217676D02*
X226883333Y-89312914D01*
X226883333Y-89312914D02*
X226788095Y-89360533D01*
X227692857Y-89074819D02*
X228311904Y-89074819D01*
X228311904Y-89074819D02*
X227978571Y-89455771D01*
X227978571Y-89455771D02*
X228121428Y-89455771D01*
X228121428Y-89455771D02*
X228216666Y-89503390D01*
X228216666Y-89503390D02*
X228264285Y-89551009D01*
X228264285Y-89551009D02*
X228311904Y-89646247D01*
X228311904Y-89646247D02*
X228311904Y-89884342D01*
X228311904Y-89884342D02*
X228264285Y-89979580D01*
X228264285Y-89979580D02*
X228216666Y-90027200D01*
X228216666Y-90027200D02*
X228121428Y-90074819D01*
X228121428Y-90074819D02*
X227835714Y-90074819D01*
X227835714Y-90074819D02*
X227740476Y-90027200D01*
X227740476Y-90027200D02*
X227692857Y-89979580D01*
X222397095Y-99934119D02*
X222397095Y-100743642D01*
X222397095Y-100743642D02*
X222444714Y-100838880D01*
X222444714Y-100838880D02*
X222492333Y-100886500D01*
X222492333Y-100886500D02*
X222587571Y-100934119D01*
X222587571Y-100934119D02*
X222778047Y-100934119D01*
X222778047Y-100934119D02*
X222873285Y-100886500D01*
X222873285Y-100886500D02*
X222920904Y-100838880D01*
X222920904Y-100838880D02*
X222968523Y-100743642D01*
X222968523Y-100743642D02*
X222968523Y-99934119D01*
X223968523Y-100934119D02*
X223397095Y-100934119D01*
X223682809Y-100934119D02*
X223682809Y-99934119D01*
X223682809Y-99934119D02*
X223587571Y-100076976D01*
X223587571Y-100076976D02*
X223492333Y-100172214D01*
X223492333Y-100172214D02*
X223397095Y-100219833D01*
X248146819Y-101740666D02*
X247670628Y-102073999D01*
X248146819Y-102312094D02*
X247146819Y-102312094D01*
X247146819Y-102312094D02*
X247146819Y-101931142D01*
X247146819Y-101931142D02*
X247194438Y-101835904D01*
X247194438Y-101835904D02*
X247242057Y-101788285D01*
X247242057Y-101788285D02*
X247337295Y-101740666D01*
X247337295Y-101740666D02*
X247480152Y-101740666D01*
X247480152Y-101740666D02*
X247575390Y-101788285D01*
X247575390Y-101788285D02*
X247623009Y-101835904D01*
X247623009Y-101835904D02*
X247670628Y-101931142D01*
X247670628Y-101931142D02*
X247670628Y-102312094D01*
X247146819Y-101407332D02*
X247146819Y-100788285D01*
X247146819Y-100788285D02*
X247527771Y-101121618D01*
X247527771Y-101121618D02*
X247527771Y-100978761D01*
X247527771Y-100978761D02*
X247575390Y-100883523D01*
X247575390Y-100883523D02*
X247623009Y-100835904D01*
X247623009Y-100835904D02*
X247718247Y-100788285D01*
X247718247Y-100788285D02*
X247956342Y-100788285D01*
X247956342Y-100788285D02*
X248051580Y-100835904D01*
X248051580Y-100835904D02*
X248099200Y-100883523D01*
X248099200Y-100883523D02*
X248146819Y-100978761D01*
X248146819Y-100978761D02*
X248146819Y-101264475D01*
X248146819Y-101264475D02*
X248099200Y-101359713D01*
X248099200Y-101359713D02*
X248051580Y-101407332D01*
X248146819Y-107328666D02*
X247670628Y-107661999D01*
X248146819Y-107900094D02*
X247146819Y-107900094D01*
X247146819Y-107900094D02*
X247146819Y-107519142D01*
X247146819Y-107519142D02*
X247194438Y-107423904D01*
X247194438Y-107423904D02*
X247242057Y-107376285D01*
X247242057Y-107376285D02*
X247337295Y-107328666D01*
X247337295Y-107328666D02*
X247480152Y-107328666D01*
X247480152Y-107328666D02*
X247575390Y-107376285D01*
X247575390Y-107376285D02*
X247623009Y-107423904D01*
X247623009Y-107423904D02*
X247670628Y-107519142D01*
X247670628Y-107519142D02*
X247670628Y-107900094D01*
X247242057Y-106947713D02*
X247194438Y-106900094D01*
X247194438Y-106900094D02*
X247146819Y-106804856D01*
X247146819Y-106804856D02*
X247146819Y-106566761D01*
X247146819Y-106566761D02*
X247194438Y-106471523D01*
X247194438Y-106471523D02*
X247242057Y-106423904D01*
X247242057Y-106423904D02*
X247337295Y-106376285D01*
X247337295Y-106376285D02*
X247432533Y-106376285D01*
X247432533Y-106376285D02*
X247575390Y-106423904D01*
X247575390Y-106423904D02*
X248146819Y-106995332D01*
X248146819Y-106995332D02*
X248146819Y-106376285D01*
X232313442Y-122516419D02*
X231980109Y-122040228D01*
X231742014Y-122516419D02*
X231742014Y-121516419D01*
X231742014Y-121516419D02*
X232122966Y-121516419D01*
X232122966Y-121516419D02*
X232218204Y-121564038D01*
X232218204Y-121564038D02*
X232265823Y-121611657D01*
X232265823Y-121611657D02*
X232313442Y-121706895D01*
X232313442Y-121706895D02*
X232313442Y-121849752D01*
X232313442Y-121849752D02*
X232265823Y-121944990D01*
X232265823Y-121944990D02*
X232218204Y-121992609D01*
X232218204Y-121992609D02*
X232122966Y-122040228D01*
X232122966Y-122040228D02*
X231742014Y-122040228D01*
X232694395Y-121611657D02*
X232742014Y-121564038D01*
X232742014Y-121564038D02*
X232837252Y-121516419D01*
X232837252Y-121516419D02*
X233075347Y-121516419D01*
X233075347Y-121516419D02*
X233170585Y-121564038D01*
X233170585Y-121564038D02*
X233218204Y-121611657D01*
X233218204Y-121611657D02*
X233265823Y-121706895D01*
X233265823Y-121706895D02*
X233265823Y-121802133D01*
X233265823Y-121802133D02*
X233218204Y-121944990D01*
X233218204Y-121944990D02*
X232646776Y-122516419D01*
X232646776Y-122516419D02*
X233265823Y-122516419D01*
X234122966Y-121849752D02*
X234122966Y-122516419D01*
X233884871Y-121468800D02*
X233646776Y-122183085D01*
X233646776Y-122183085D02*
X234265823Y-122183085D01*
X232751333Y-81131580D02*
X232703714Y-81179200D01*
X232703714Y-81179200D02*
X232560857Y-81226819D01*
X232560857Y-81226819D02*
X232465619Y-81226819D01*
X232465619Y-81226819D02*
X232322762Y-81179200D01*
X232322762Y-81179200D02*
X232227524Y-81083961D01*
X232227524Y-81083961D02*
X232179905Y-80988723D01*
X232179905Y-80988723D02*
X232132286Y-80798247D01*
X232132286Y-80798247D02*
X232132286Y-80655390D01*
X232132286Y-80655390D02*
X232179905Y-80464914D01*
X232179905Y-80464914D02*
X232227524Y-80369676D01*
X232227524Y-80369676D02*
X232322762Y-80274438D01*
X232322762Y-80274438D02*
X232465619Y-80226819D01*
X232465619Y-80226819D02*
X232560857Y-80226819D01*
X232560857Y-80226819D02*
X232703714Y-80274438D01*
X232703714Y-80274438D02*
X232751333Y-80322057D01*
X233608476Y-80226819D02*
X233418000Y-80226819D01*
X233418000Y-80226819D02*
X233322762Y-80274438D01*
X233322762Y-80274438D02*
X233275143Y-80322057D01*
X233275143Y-80322057D02*
X233179905Y-80464914D01*
X233179905Y-80464914D02*
X233132286Y-80655390D01*
X233132286Y-80655390D02*
X233132286Y-81036342D01*
X233132286Y-81036342D02*
X233179905Y-81131580D01*
X233179905Y-81131580D02*
X233227524Y-81179200D01*
X233227524Y-81179200D02*
X233322762Y-81226819D01*
X233322762Y-81226819D02*
X233513238Y-81226819D01*
X233513238Y-81226819D02*
X233608476Y-81179200D01*
X233608476Y-81179200D02*
X233656095Y-81131580D01*
X233656095Y-81131580D02*
X233703714Y-81036342D01*
X233703714Y-81036342D02*
X233703714Y-80798247D01*
X233703714Y-80798247D02*
X233656095Y-80703009D01*
X233656095Y-80703009D02*
X233608476Y-80655390D01*
X233608476Y-80655390D02*
X233513238Y-80607771D01*
X233513238Y-80607771D02*
X233322762Y-80607771D01*
X233322762Y-80607771D02*
X233227524Y-80655390D01*
X233227524Y-80655390D02*
X233179905Y-80703009D01*
X233179905Y-80703009D02*
X233132286Y-80798247D01*
X217257333Y-91894819D02*
X216924000Y-91418628D01*
X216685905Y-91894819D02*
X216685905Y-90894819D01*
X216685905Y-90894819D02*
X217066857Y-90894819D01*
X217066857Y-90894819D02*
X217162095Y-90942438D01*
X217162095Y-90942438D02*
X217209714Y-90990057D01*
X217209714Y-90990057D02*
X217257333Y-91085295D01*
X217257333Y-91085295D02*
X217257333Y-91228152D01*
X217257333Y-91228152D02*
X217209714Y-91323390D01*
X217209714Y-91323390D02*
X217162095Y-91371009D01*
X217162095Y-91371009D02*
X217066857Y-91418628D01*
X217066857Y-91418628D02*
X216685905Y-91418628D01*
X217828762Y-91323390D02*
X217733524Y-91275771D01*
X217733524Y-91275771D02*
X217685905Y-91228152D01*
X217685905Y-91228152D02*
X217638286Y-91132914D01*
X217638286Y-91132914D02*
X217638286Y-91085295D01*
X217638286Y-91085295D02*
X217685905Y-90990057D01*
X217685905Y-90990057D02*
X217733524Y-90942438D01*
X217733524Y-90942438D02*
X217828762Y-90894819D01*
X217828762Y-90894819D02*
X218019238Y-90894819D01*
X218019238Y-90894819D02*
X218114476Y-90942438D01*
X218114476Y-90942438D02*
X218162095Y-90990057D01*
X218162095Y-90990057D02*
X218209714Y-91085295D01*
X218209714Y-91085295D02*
X218209714Y-91132914D01*
X218209714Y-91132914D02*
X218162095Y-91228152D01*
X218162095Y-91228152D02*
X218114476Y-91275771D01*
X218114476Y-91275771D02*
X218019238Y-91323390D01*
X218019238Y-91323390D02*
X217828762Y-91323390D01*
X217828762Y-91323390D02*
X217733524Y-91371009D01*
X217733524Y-91371009D02*
X217685905Y-91418628D01*
X217685905Y-91418628D02*
X217638286Y-91513866D01*
X217638286Y-91513866D02*
X217638286Y-91704342D01*
X217638286Y-91704342D02*
X217685905Y-91799580D01*
X217685905Y-91799580D02*
X217733524Y-91847200D01*
X217733524Y-91847200D02*
X217828762Y-91894819D01*
X217828762Y-91894819D02*
X218019238Y-91894819D01*
X218019238Y-91894819D02*
X218114476Y-91847200D01*
X218114476Y-91847200D02*
X218162095Y-91799580D01*
X218162095Y-91799580D02*
X218209714Y-91704342D01*
X218209714Y-91704342D02*
X218209714Y-91513866D01*
X218209714Y-91513866D02*
X218162095Y-91418628D01*
X218162095Y-91418628D02*
X218114476Y-91371009D01*
X218114476Y-91371009D02*
X218019238Y-91323390D01*
X215751580Y-103290666D02*
X215799200Y-103338285D01*
X215799200Y-103338285D02*
X215846819Y-103481142D01*
X215846819Y-103481142D02*
X215846819Y-103576380D01*
X215846819Y-103576380D02*
X215799200Y-103719237D01*
X215799200Y-103719237D02*
X215703961Y-103814475D01*
X215703961Y-103814475D02*
X215608723Y-103862094D01*
X215608723Y-103862094D02*
X215418247Y-103909713D01*
X215418247Y-103909713D02*
X215275390Y-103909713D01*
X215275390Y-103909713D02*
X215084914Y-103862094D01*
X215084914Y-103862094D02*
X214989676Y-103814475D01*
X214989676Y-103814475D02*
X214894438Y-103719237D01*
X214894438Y-103719237D02*
X214846819Y-103576380D01*
X214846819Y-103576380D02*
X214846819Y-103481142D01*
X214846819Y-103481142D02*
X214894438Y-103338285D01*
X214894438Y-103338285D02*
X214942057Y-103290666D01*
X214942057Y-102909713D02*
X214894438Y-102862094D01*
X214894438Y-102862094D02*
X214846819Y-102766856D01*
X214846819Y-102766856D02*
X214846819Y-102528761D01*
X214846819Y-102528761D02*
X214894438Y-102433523D01*
X214894438Y-102433523D02*
X214942057Y-102385904D01*
X214942057Y-102385904D02*
X215037295Y-102338285D01*
X215037295Y-102338285D02*
X215132533Y-102338285D01*
X215132533Y-102338285D02*
X215275390Y-102385904D01*
X215275390Y-102385904D02*
X215846819Y-102957332D01*
X215846819Y-102957332D02*
X215846819Y-102338285D01*
X191628142Y-122618519D02*
X191294809Y-122142328D01*
X191056714Y-122618519D02*
X191056714Y-121618519D01*
X191056714Y-121618519D02*
X191437666Y-121618519D01*
X191437666Y-121618519D02*
X191532904Y-121666138D01*
X191532904Y-121666138D02*
X191580523Y-121713757D01*
X191580523Y-121713757D02*
X191628142Y-121808995D01*
X191628142Y-121808995D02*
X191628142Y-121951852D01*
X191628142Y-121951852D02*
X191580523Y-122047090D01*
X191580523Y-122047090D02*
X191532904Y-122094709D01*
X191532904Y-122094709D02*
X191437666Y-122142328D01*
X191437666Y-122142328D02*
X191056714Y-122142328D01*
X192009095Y-121713757D02*
X192056714Y-121666138D01*
X192056714Y-121666138D02*
X192151952Y-121618519D01*
X192151952Y-121618519D02*
X192390047Y-121618519D01*
X192390047Y-121618519D02*
X192485285Y-121666138D01*
X192485285Y-121666138D02*
X192532904Y-121713757D01*
X192532904Y-121713757D02*
X192580523Y-121808995D01*
X192580523Y-121808995D02*
X192580523Y-121904233D01*
X192580523Y-121904233D02*
X192532904Y-122047090D01*
X192532904Y-122047090D02*
X191961476Y-122618519D01*
X191961476Y-122618519D02*
X192580523Y-122618519D01*
X192961476Y-121713757D02*
X193009095Y-121666138D01*
X193009095Y-121666138D02*
X193104333Y-121618519D01*
X193104333Y-121618519D02*
X193342428Y-121618519D01*
X193342428Y-121618519D02*
X193437666Y-121666138D01*
X193437666Y-121666138D02*
X193485285Y-121713757D01*
X193485285Y-121713757D02*
X193532904Y-121808995D01*
X193532904Y-121808995D02*
X193532904Y-121904233D01*
X193532904Y-121904233D02*
X193485285Y-122047090D01*
X193485285Y-122047090D02*
X192913857Y-122618519D01*
X192913857Y-122618519D02*
X193532904Y-122618519D01*
X211982207Y-125961980D02*
X212125064Y-126009599D01*
X212125064Y-126009599D02*
X212363159Y-126009599D01*
X212363159Y-126009599D02*
X212458397Y-125961980D01*
X212458397Y-125961980D02*
X212506016Y-125914360D01*
X212506016Y-125914360D02*
X212553635Y-125819122D01*
X212553635Y-125819122D02*
X212553635Y-125723884D01*
X212553635Y-125723884D02*
X212506016Y-125628646D01*
X212506016Y-125628646D02*
X212458397Y-125581027D01*
X212458397Y-125581027D02*
X212363159Y-125533408D01*
X212363159Y-125533408D02*
X212172683Y-125485789D01*
X212172683Y-125485789D02*
X212077445Y-125438170D01*
X212077445Y-125438170D02*
X212029826Y-125390551D01*
X212029826Y-125390551D02*
X211982207Y-125295313D01*
X211982207Y-125295313D02*
X211982207Y-125200075D01*
X211982207Y-125200075D02*
X212029826Y-125104837D01*
X212029826Y-125104837D02*
X212077445Y-125057218D01*
X212077445Y-125057218D02*
X212172683Y-125009599D01*
X212172683Y-125009599D02*
X212410778Y-125009599D01*
X212410778Y-125009599D02*
X212553635Y-125057218D01*
X212886969Y-125009599D02*
X213125064Y-126009599D01*
X213125064Y-126009599D02*
X213315540Y-125295313D01*
X213315540Y-125295313D02*
X213506016Y-126009599D01*
X213506016Y-126009599D02*
X213744112Y-125009599D01*
X214029826Y-125009599D02*
X214648873Y-125009599D01*
X214648873Y-125009599D02*
X214315540Y-125390551D01*
X214315540Y-125390551D02*
X214458397Y-125390551D01*
X214458397Y-125390551D02*
X214553635Y-125438170D01*
X214553635Y-125438170D02*
X214601254Y-125485789D01*
X214601254Y-125485789D02*
X214648873Y-125581027D01*
X214648873Y-125581027D02*
X214648873Y-125819122D01*
X214648873Y-125819122D02*
X214601254Y-125914360D01*
X214601254Y-125914360D02*
X214553635Y-125961980D01*
X214553635Y-125961980D02*
X214458397Y-126009599D01*
X214458397Y-126009599D02*
X214172683Y-126009599D01*
X214172683Y-126009599D02*
X214077445Y-125961980D01*
X214077445Y-125961980D02*
X214029826Y-125914360D01*
X195745742Y-110632819D02*
X195412409Y-110156628D01*
X195174314Y-110632819D02*
X195174314Y-109632819D01*
X195174314Y-109632819D02*
X195555266Y-109632819D01*
X195555266Y-109632819D02*
X195650504Y-109680438D01*
X195650504Y-109680438D02*
X195698123Y-109728057D01*
X195698123Y-109728057D02*
X195745742Y-109823295D01*
X195745742Y-109823295D02*
X195745742Y-109966152D01*
X195745742Y-109966152D02*
X195698123Y-110061390D01*
X195698123Y-110061390D02*
X195650504Y-110109009D01*
X195650504Y-110109009D02*
X195555266Y-110156628D01*
X195555266Y-110156628D02*
X195174314Y-110156628D01*
X196126695Y-109728057D02*
X196174314Y-109680438D01*
X196174314Y-109680438D02*
X196269552Y-109632819D01*
X196269552Y-109632819D02*
X196507647Y-109632819D01*
X196507647Y-109632819D02*
X196602885Y-109680438D01*
X196602885Y-109680438D02*
X196650504Y-109728057D01*
X196650504Y-109728057D02*
X196698123Y-109823295D01*
X196698123Y-109823295D02*
X196698123Y-109918533D01*
X196698123Y-109918533D02*
X196650504Y-110061390D01*
X196650504Y-110061390D02*
X196079076Y-110632819D01*
X196079076Y-110632819D02*
X196698123Y-110632819D01*
X197650504Y-110632819D02*
X197079076Y-110632819D01*
X197364790Y-110632819D02*
X197364790Y-109632819D01*
X197364790Y-109632819D02*
X197269552Y-109775676D01*
X197269552Y-109775676D02*
X197174314Y-109870914D01*
X197174314Y-109870914D02*
X197079076Y-109918533D01*
X211976142Y-122498319D02*
X211642809Y-122022128D01*
X211404714Y-122498319D02*
X211404714Y-121498319D01*
X211404714Y-121498319D02*
X211785666Y-121498319D01*
X211785666Y-121498319D02*
X211880904Y-121545938D01*
X211880904Y-121545938D02*
X211928523Y-121593557D01*
X211928523Y-121593557D02*
X211976142Y-121688795D01*
X211976142Y-121688795D02*
X211976142Y-121831652D01*
X211976142Y-121831652D02*
X211928523Y-121926890D01*
X211928523Y-121926890D02*
X211880904Y-121974509D01*
X211880904Y-121974509D02*
X211785666Y-122022128D01*
X211785666Y-122022128D02*
X211404714Y-122022128D01*
X212357095Y-121593557D02*
X212404714Y-121545938D01*
X212404714Y-121545938D02*
X212499952Y-121498319D01*
X212499952Y-121498319D02*
X212738047Y-121498319D01*
X212738047Y-121498319D02*
X212833285Y-121545938D01*
X212833285Y-121545938D02*
X212880904Y-121593557D01*
X212880904Y-121593557D02*
X212928523Y-121688795D01*
X212928523Y-121688795D02*
X212928523Y-121784033D01*
X212928523Y-121784033D02*
X212880904Y-121926890D01*
X212880904Y-121926890D02*
X212309476Y-122498319D01*
X212309476Y-122498319D02*
X212928523Y-122498319D01*
X213261857Y-121498319D02*
X213880904Y-121498319D01*
X213880904Y-121498319D02*
X213547571Y-121879271D01*
X213547571Y-121879271D02*
X213690428Y-121879271D01*
X213690428Y-121879271D02*
X213785666Y-121926890D01*
X213785666Y-121926890D02*
X213833285Y-121974509D01*
X213833285Y-121974509D02*
X213880904Y-122069747D01*
X213880904Y-122069747D02*
X213880904Y-122307842D01*
X213880904Y-122307842D02*
X213833285Y-122403080D01*
X213833285Y-122403080D02*
X213785666Y-122450700D01*
X213785666Y-122450700D02*
X213690428Y-122498319D01*
X213690428Y-122498319D02*
X213404714Y-122498319D01*
X213404714Y-122498319D02*
X213309476Y-122450700D01*
X213309476Y-122450700D02*
X213261857Y-122403080D01*
X196461142Y-97990819D02*
X196127809Y-97514628D01*
X195889714Y-97990819D02*
X195889714Y-96990819D01*
X195889714Y-96990819D02*
X196270666Y-96990819D01*
X196270666Y-96990819D02*
X196365904Y-97038438D01*
X196365904Y-97038438D02*
X196413523Y-97086057D01*
X196413523Y-97086057D02*
X196461142Y-97181295D01*
X196461142Y-97181295D02*
X196461142Y-97324152D01*
X196461142Y-97324152D02*
X196413523Y-97419390D01*
X196413523Y-97419390D02*
X196365904Y-97467009D01*
X196365904Y-97467009D02*
X196270666Y-97514628D01*
X196270666Y-97514628D02*
X195889714Y-97514628D01*
X196842095Y-97086057D02*
X196889714Y-97038438D01*
X196889714Y-97038438D02*
X196984952Y-96990819D01*
X196984952Y-96990819D02*
X197223047Y-96990819D01*
X197223047Y-96990819D02*
X197318285Y-97038438D01*
X197318285Y-97038438D02*
X197365904Y-97086057D01*
X197365904Y-97086057D02*
X197413523Y-97181295D01*
X197413523Y-97181295D02*
X197413523Y-97276533D01*
X197413523Y-97276533D02*
X197365904Y-97419390D01*
X197365904Y-97419390D02*
X196794476Y-97990819D01*
X196794476Y-97990819D02*
X197413523Y-97990819D01*
X197746857Y-96990819D02*
X198413523Y-96990819D01*
X198413523Y-96990819D02*
X197984952Y-97990819D01*
X258701333Y-94460819D02*
X258368000Y-93984628D01*
X258129905Y-94460819D02*
X258129905Y-93460819D01*
X258129905Y-93460819D02*
X258510857Y-93460819D01*
X258510857Y-93460819D02*
X258606095Y-93508438D01*
X258606095Y-93508438D02*
X258653714Y-93556057D01*
X258653714Y-93556057D02*
X258701333Y-93651295D01*
X258701333Y-93651295D02*
X258701333Y-93794152D01*
X258701333Y-93794152D02*
X258653714Y-93889390D01*
X258653714Y-93889390D02*
X258606095Y-93937009D01*
X258606095Y-93937009D02*
X258510857Y-93984628D01*
X258510857Y-93984628D02*
X258129905Y-93984628D01*
X259034667Y-93460819D02*
X259701333Y-93460819D01*
X259701333Y-93460819D02*
X259272762Y-94460819D01*
X229679580Y-110757666D02*
X229727200Y-110805285D01*
X229727200Y-110805285D02*
X229774819Y-110948142D01*
X229774819Y-110948142D02*
X229774819Y-111043380D01*
X229774819Y-111043380D02*
X229727200Y-111186237D01*
X229727200Y-111186237D02*
X229631961Y-111281475D01*
X229631961Y-111281475D02*
X229536723Y-111329094D01*
X229536723Y-111329094D02*
X229346247Y-111376713D01*
X229346247Y-111376713D02*
X229203390Y-111376713D01*
X229203390Y-111376713D02*
X229012914Y-111329094D01*
X229012914Y-111329094D02*
X228917676Y-111281475D01*
X228917676Y-111281475D02*
X228822438Y-111186237D01*
X228822438Y-111186237D02*
X228774819Y-111043380D01*
X228774819Y-111043380D02*
X228774819Y-110948142D01*
X228774819Y-110948142D02*
X228822438Y-110805285D01*
X228822438Y-110805285D02*
X228870057Y-110757666D01*
X228774819Y-110424332D02*
X228774819Y-109805285D01*
X228774819Y-109805285D02*
X229155771Y-110138618D01*
X229155771Y-110138618D02*
X229155771Y-109995761D01*
X229155771Y-109995761D02*
X229203390Y-109900523D01*
X229203390Y-109900523D02*
X229251009Y-109852904D01*
X229251009Y-109852904D02*
X229346247Y-109805285D01*
X229346247Y-109805285D02*
X229584342Y-109805285D01*
X229584342Y-109805285D02*
X229679580Y-109852904D01*
X229679580Y-109852904D02*
X229727200Y-109900523D01*
X229727200Y-109900523D02*
X229774819Y-109995761D01*
X229774819Y-109995761D02*
X229774819Y-110281475D01*
X229774819Y-110281475D02*
X229727200Y-110376713D01*
X229727200Y-110376713D02*
X229679580Y-110424332D01*
X230324819Y-81167266D02*
X230324819Y-81643456D01*
X230324819Y-81643456D02*
X229324819Y-81643456D01*
X230324819Y-80310123D02*
X230324819Y-80881551D01*
X230324819Y-80595837D02*
X229324819Y-80595837D01*
X229324819Y-80595837D02*
X229467676Y-80691075D01*
X229467676Y-80691075D02*
X229562914Y-80786313D01*
X229562914Y-80786313D02*
X229610533Y-80881551D01*
X233870666Y-85281819D02*
X233537333Y-84805628D01*
X233299238Y-85281819D02*
X233299238Y-84281819D01*
X233299238Y-84281819D02*
X233680190Y-84281819D01*
X233680190Y-84281819D02*
X233775428Y-84329438D01*
X233775428Y-84329438D02*
X233823047Y-84377057D01*
X233823047Y-84377057D02*
X233870666Y-84472295D01*
X233870666Y-84472295D02*
X233870666Y-84615152D01*
X233870666Y-84615152D02*
X233823047Y-84710390D01*
X233823047Y-84710390D02*
X233775428Y-84758009D01*
X233775428Y-84758009D02*
X233680190Y-84805628D01*
X233680190Y-84805628D02*
X233299238Y-84805628D01*
X234299238Y-84758009D02*
X234632571Y-84758009D01*
X234775428Y-85281819D02*
X234299238Y-85281819D01*
X234299238Y-85281819D02*
X234299238Y-84281819D01*
X234299238Y-84281819D02*
X234775428Y-84281819D01*
X235537333Y-84758009D02*
X235204000Y-84758009D01*
X235204000Y-85281819D02*
X235204000Y-84281819D01*
X235204000Y-84281819D02*
X235680190Y-84281819D01*
X236204000Y-84281819D02*
X236204000Y-84519914D01*
X235965905Y-84424676D02*
X236204000Y-84519914D01*
X236204000Y-84519914D02*
X236442095Y-84424676D01*
X236061143Y-84710390D02*
X236204000Y-84519914D01*
X236204000Y-84519914D02*
X236346857Y-84710390D01*
X236965905Y-84281819D02*
X236965905Y-84519914D01*
X236727810Y-84424676D02*
X236965905Y-84519914D01*
X236965905Y-84519914D02*
X237204000Y-84424676D01*
X236823048Y-84710390D02*
X236965905Y-84519914D01*
X236965905Y-84519914D02*
X237108762Y-84710390D01*
X242181142Y-76559580D02*
X242133523Y-76607200D01*
X242133523Y-76607200D02*
X241990666Y-76654819D01*
X241990666Y-76654819D02*
X241895428Y-76654819D01*
X241895428Y-76654819D02*
X241752571Y-76607200D01*
X241752571Y-76607200D02*
X241657333Y-76511961D01*
X241657333Y-76511961D02*
X241609714Y-76416723D01*
X241609714Y-76416723D02*
X241562095Y-76226247D01*
X241562095Y-76226247D02*
X241562095Y-76083390D01*
X241562095Y-76083390D02*
X241609714Y-75892914D01*
X241609714Y-75892914D02*
X241657333Y-75797676D01*
X241657333Y-75797676D02*
X241752571Y-75702438D01*
X241752571Y-75702438D02*
X241895428Y-75654819D01*
X241895428Y-75654819D02*
X241990666Y-75654819D01*
X241990666Y-75654819D02*
X242133523Y-75702438D01*
X242133523Y-75702438D02*
X242181142Y-75750057D01*
X243133523Y-76654819D02*
X242562095Y-76654819D01*
X242847809Y-76654819D02*
X242847809Y-75654819D01*
X242847809Y-75654819D02*
X242752571Y-75797676D01*
X242752571Y-75797676D02*
X242657333Y-75892914D01*
X242657333Y-75892914D02*
X242562095Y-75940533D01*
X243752571Y-75654819D02*
X243847809Y-75654819D01*
X243847809Y-75654819D02*
X243943047Y-75702438D01*
X243943047Y-75702438D02*
X243990666Y-75750057D01*
X243990666Y-75750057D02*
X244038285Y-75845295D01*
X244038285Y-75845295D02*
X244085904Y-76035771D01*
X244085904Y-76035771D02*
X244085904Y-76273866D01*
X244085904Y-76273866D02*
X244038285Y-76464342D01*
X244038285Y-76464342D02*
X243990666Y-76559580D01*
X243990666Y-76559580D02*
X243943047Y-76607200D01*
X243943047Y-76607200D02*
X243847809Y-76654819D01*
X243847809Y-76654819D02*
X243752571Y-76654819D01*
X243752571Y-76654819D02*
X243657333Y-76607200D01*
X243657333Y-76607200D02*
X243609714Y-76559580D01*
X243609714Y-76559580D02*
X243562095Y-76464342D01*
X243562095Y-76464342D02*
X243514476Y-76273866D01*
X243514476Y-76273866D02*
X243514476Y-76035771D01*
X243514476Y-76035771D02*
X243562095Y-75845295D01*
X243562095Y-75845295D02*
X243609714Y-75750057D01*
X243609714Y-75750057D02*
X243657333Y-75702438D01*
X243657333Y-75702438D02*
X243752571Y-75654819D01*
X199412819Y-87963333D02*
X200127104Y-87963333D01*
X200127104Y-87963333D02*
X200269961Y-88010952D01*
X200269961Y-88010952D02*
X200365200Y-88106190D01*
X200365200Y-88106190D02*
X200412819Y-88249047D01*
X200412819Y-88249047D02*
X200412819Y-88344285D01*
X199412819Y-87058571D02*
X199412819Y-87249047D01*
X199412819Y-87249047D02*
X199460438Y-87344285D01*
X199460438Y-87344285D02*
X199508057Y-87391904D01*
X199508057Y-87391904D02*
X199650914Y-87487142D01*
X199650914Y-87487142D02*
X199841390Y-87534761D01*
X199841390Y-87534761D02*
X200222342Y-87534761D01*
X200222342Y-87534761D02*
X200317580Y-87487142D01*
X200317580Y-87487142D02*
X200365200Y-87439523D01*
X200365200Y-87439523D02*
X200412819Y-87344285D01*
X200412819Y-87344285D02*
X200412819Y-87153809D01*
X200412819Y-87153809D02*
X200365200Y-87058571D01*
X200365200Y-87058571D02*
X200317580Y-87010952D01*
X200317580Y-87010952D02*
X200222342Y-86963333D01*
X200222342Y-86963333D02*
X199984247Y-86963333D01*
X199984247Y-86963333D02*
X199889009Y-87010952D01*
X199889009Y-87010952D02*
X199841390Y-87058571D01*
X199841390Y-87058571D02*
X199793771Y-87153809D01*
X199793771Y-87153809D02*
X199793771Y-87344285D01*
X199793771Y-87344285D02*
X199841390Y-87439523D01*
X199841390Y-87439523D02*
X199889009Y-87487142D01*
X199889009Y-87487142D02*
X199984247Y-87534761D01*
X246233333Y-116359580D02*
X246185714Y-116407200D01*
X246185714Y-116407200D02*
X246042857Y-116454819D01*
X246042857Y-116454819D02*
X245947619Y-116454819D01*
X245947619Y-116454819D02*
X245804762Y-116407200D01*
X245804762Y-116407200D02*
X245709524Y-116311961D01*
X245709524Y-116311961D02*
X245661905Y-116216723D01*
X245661905Y-116216723D02*
X245614286Y-116026247D01*
X245614286Y-116026247D02*
X245614286Y-115883390D01*
X245614286Y-115883390D02*
X245661905Y-115692914D01*
X245661905Y-115692914D02*
X245709524Y-115597676D01*
X245709524Y-115597676D02*
X245804762Y-115502438D01*
X245804762Y-115502438D02*
X245947619Y-115454819D01*
X245947619Y-115454819D02*
X246042857Y-115454819D01*
X246042857Y-115454819D02*
X246185714Y-115502438D01*
X246185714Y-115502438D02*
X246233333Y-115550057D01*
X247138095Y-115454819D02*
X246661905Y-115454819D01*
X246661905Y-115454819D02*
X246614286Y-115931009D01*
X246614286Y-115931009D02*
X246661905Y-115883390D01*
X246661905Y-115883390D02*
X246757143Y-115835771D01*
X246757143Y-115835771D02*
X246995238Y-115835771D01*
X246995238Y-115835771D02*
X247090476Y-115883390D01*
X247090476Y-115883390D02*
X247138095Y-115931009D01*
X247138095Y-115931009D02*
X247185714Y-116026247D01*
X247185714Y-116026247D02*
X247185714Y-116264342D01*
X247185714Y-116264342D02*
X247138095Y-116359580D01*
X247138095Y-116359580D02*
X247090476Y-116407200D01*
X247090476Y-116407200D02*
X246995238Y-116454819D01*
X246995238Y-116454819D02*
X246757143Y-116454819D01*
X246757143Y-116454819D02*
X246661905Y-116407200D01*
X246661905Y-116407200D02*
X246614286Y-116359580D01*
X238038133Y-81182680D02*
X237990514Y-81230300D01*
X237990514Y-81230300D02*
X237847657Y-81277919D01*
X237847657Y-81277919D02*
X237752419Y-81277919D01*
X237752419Y-81277919D02*
X237609562Y-81230300D01*
X237609562Y-81230300D02*
X237514324Y-81135061D01*
X237514324Y-81135061D02*
X237466705Y-81039823D01*
X237466705Y-81039823D02*
X237419086Y-80849347D01*
X237419086Y-80849347D02*
X237419086Y-80706490D01*
X237419086Y-80706490D02*
X237466705Y-80516014D01*
X237466705Y-80516014D02*
X237514324Y-80420776D01*
X237514324Y-80420776D02*
X237609562Y-80325538D01*
X237609562Y-80325538D02*
X237752419Y-80277919D01*
X237752419Y-80277919D02*
X237847657Y-80277919D01*
X237847657Y-80277919D02*
X237990514Y-80325538D01*
X237990514Y-80325538D02*
X238038133Y-80373157D01*
X238609562Y-80706490D02*
X238514324Y-80658871D01*
X238514324Y-80658871D02*
X238466705Y-80611252D01*
X238466705Y-80611252D02*
X238419086Y-80516014D01*
X238419086Y-80516014D02*
X238419086Y-80468395D01*
X238419086Y-80468395D02*
X238466705Y-80373157D01*
X238466705Y-80373157D02*
X238514324Y-80325538D01*
X238514324Y-80325538D02*
X238609562Y-80277919D01*
X238609562Y-80277919D02*
X238800038Y-80277919D01*
X238800038Y-80277919D02*
X238895276Y-80325538D01*
X238895276Y-80325538D02*
X238942895Y-80373157D01*
X238942895Y-80373157D02*
X238990514Y-80468395D01*
X238990514Y-80468395D02*
X238990514Y-80516014D01*
X238990514Y-80516014D02*
X238942895Y-80611252D01*
X238942895Y-80611252D02*
X238895276Y-80658871D01*
X238895276Y-80658871D02*
X238800038Y-80706490D01*
X238800038Y-80706490D02*
X238609562Y-80706490D01*
X238609562Y-80706490D02*
X238514324Y-80754109D01*
X238514324Y-80754109D02*
X238466705Y-80801728D01*
X238466705Y-80801728D02*
X238419086Y-80896966D01*
X238419086Y-80896966D02*
X238419086Y-81087442D01*
X238419086Y-81087442D02*
X238466705Y-81182680D01*
X238466705Y-81182680D02*
X238514324Y-81230300D01*
X238514324Y-81230300D02*
X238609562Y-81277919D01*
X238609562Y-81277919D02*
X238800038Y-81277919D01*
X238800038Y-81277919D02*
X238895276Y-81230300D01*
X238895276Y-81230300D02*
X238942895Y-81182680D01*
X238942895Y-81182680D02*
X238990514Y-81087442D01*
X238990514Y-81087442D02*
X238990514Y-80896966D01*
X238990514Y-80896966D02*
X238942895Y-80801728D01*
X238942895Y-80801728D02*
X238895276Y-80754109D01*
X238895276Y-80754109D02*
X238800038Y-80706490D01*
D14*
X250520667Y-69589318D02*
X250520667Y-70496461D01*
X250520667Y-70496461D02*
X250460190Y-70677889D01*
X250460190Y-70677889D02*
X250339238Y-70798842D01*
X250339238Y-70798842D02*
X250157809Y-70859318D01*
X250157809Y-70859318D02*
X250036857Y-70859318D01*
X251064952Y-69710270D02*
X251125428Y-69649794D01*
X251125428Y-69649794D02*
X251246381Y-69589318D01*
X251246381Y-69589318D02*
X251548762Y-69589318D01*
X251548762Y-69589318D02*
X251669714Y-69649794D01*
X251669714Y-69649794D02*
X251730190Y-69710270D01*
X251730190Y-69710270D02*
X251790667Y-69831222D01*
X251790667Y-69831222D02*
X251790667Y-69952175D01*
X251790667Y-69952175D02*
X251730190Y-70133603D01*
X251730190Y-70133603D02*
X251004476Y-70859318D01*
X251004476Y-70859318D02*
X251790667Y-70859318D01*
D11*
X221932666Y-119444819D02*
X221599333Y-118968628D01*
X221361238Y-119444819D02*
X221361238Y-118444819D01*
X221361238Y-118444819D02*
X221742190Y-118444819D01*
X221742190Y-118444819D02*
X221837428Y-118492438D01*
X221837428Y-118492438D02*
X221885047Y-118540057D01*
X221885047Y-118540057D02*
X221932666Y-118635295D01*
X221932666Y-118635295D02*
X221932666Y-118778152D01*
X221932666Y-118778152D02*
X221885047Y-118873390D01*
X221885047Y-118873390D02*
X221837428Y-118921009D01*
X221837428Y-118921009D02*
X221742190Y-118968628D01*
X221742190Y-118968628D02*
X221361238Y-118968628D01*
X222361238Y-118921009D02*
X222694571Y-118921009D01*
X222837428Y-119444819D02*
X222361238Y-119444819D01*
X222361238Y-119444819D02*
X222361238Y-118444819D01*
X222361238Y-118444819D02*
X222837428Y-118444819D01*
X223599333Y-118921009D02*
X223266000Y-118921009D01*
X223266000Y-119444819D02*
X223266000Y-118444819D01*
X223266000Y-118444819D02*
X223742190Y-118444819D01*
X224266000Y-118444819D02*
X224266000Y-118682914D01*
X224027905Y-118587676D02*
X224266000Y-118682914D01*
X224266000Y-118682914D02*
X224504095Y-118587676D01*
X224123143Y-118873390D02*
X224266000Y-118682914D01*
X224266000Y-118682914D02*
X224408857Y-118873390D01*
X225027905Y-118444819D02*
X225027905Y-118682914D01*
X224789810Y-118587676D02*
X225027905Y-118682914D01*
X225027905Y-118682914D02*
X225266000Y-118587676D01*
X224885048Y-118873390D02*
X225027905Y-118682914D01*
X225027905Y-118682914D02*
X225170762Y-118873390D01*
X226304819Y-77511904D02*
X227114342Y-77511904D01*
X227114342Y-77511904D02*
X227209580Y-77464285D01*
X227209580Y-77464285D02*
X227257200Y-77416666D01*
X227257200Y-77416666D02*
X227304819Y-77321428D01*
X227304819Y-77321428D02*
X227304819Y-77130952D01*
X227304819Y-77130952D02*
X227257200Y-77035714D01*
X227257200Y-77035714D02*
X227209580Y-76988095D01*
X227209580Y-76988095D02*
X227114342Y-76940476D01*
X227114342Y-76940476D02*
X226304819Y-76940476D01*
X226304819Y-76559523D02*
X226304819Y-75940476D01*
X226304819Y-75940476D02*
X226685771Y-76273809D01*
X226685771Y-76273809D02*
X226685771Y-76130952D01*
X226685771Y-76130952D02*
X226733390Y-76035714D01*
X226733390Y-76035714D02*
X226781009Y-75988095D01*
X226781009Y-75988095D02*
X226876247Y-75940476D01*
X226876247Y-75940476D02*
X227114342Y-75940476D01*
X227114342Y-75940476D02*
X227209580Y-75988095D01*
X227209580Y-75988095D02*
X227257200Y-76035714D01*
X227257200Y-76035714D02*
X227304819Y-76130952D01*
X227304819Y-76130952D02*
X227304819Y-76416666D01*
X227304819Y-76416666D02*
X227257200Y-76511904D01*
X227257200Y-76511904D02*
X227209580Y-76559523D01*
X231439180Y-71462514D02*
X232439180Y-71462514D01*
X232439180Y-71462514D02*
X232439180Y-71700609D01*
X232439180Y-71700609D02*
X232391561Y-71843466D01*
X232391561Y-71843466D02*
X232296323Y-71938704D01*
X232296323Y-71938704D02*
X232201085Y-71986323D01*
X232201085Y-71986323D02*
X232010609Y-72033942D01*
X232010609Y-72033942D02*
X231867752Y-72033942D01*
X231867752Y-72033942D02*
X231677276Y-71986323D01*
X231677276Y-71986323D02*
X231582038Y-71938704D01*
X231582038Y-71938704D02*
X231486800Y-71843466D01*
X231486800Y-71843466D02*
X231439180Y-71700609D01*
X231439180Y-71700609D02*
X231439180Y-71462514D01*
X231486800Y-72843466D02*
X231439180Y-72748228D01*
X231439180Y-72748228D02*
X231439180Y-72557752D01*
X231439180Y-72557752D02*
X231486800Y-72462514D01*
X231486800Y-72462514D02*
X231582038Y-72414895D01*
X231582038Y-72414895D02*
X231962990Y-72414895D01*
X231962990Y-72414895D02*
X232058228Y-72462514D01*
X232058228Y-72462514D02*
X232105847Y-72557752D01*
X232105847Y-72557752D02*
X232105847Y-72748228D01*
X232105847Y-72748228D02*
X232058228Y-72843466D01*
X232058228Y-72843466D02*
X231962990Y-72891085D01*
X231962990Y-72891085D02*
X231867752Y-72891085D01*
X231867752Y-72891085D02*
X231772514Y-72414895D01*
X231486800Y-73272038D02*
X231439180Y-73367276D01*
X231439180Y-73367276D02*
X231439180Y-73557752D01*
X231439180Y-73557752D02*
X231486800Y-73652990D01*
X231486800Y-73652990D02*
X231582038Y-73700609D01*
X231582038Y-73700609D02*
X231629657Y-73700609D01*
X231629657Y-73700609D02*
X231724895Y-73652990D01*
X231724895Y-73652990D02*
X231772514Y-73557752D01*
X231772514Y-73557752D02*
X231772514Y-73414895D01*
X231772514Y-73414895D02*
X231820133Y-73319657D01*
X231820133Y-73319657D02*
X231915371Y-73272038D01*
X231915371Y-73272038D02*
X231962990Y-73272038D01*
X231962990Y-73272038D02*
X232058228Y-73319657D01*
X232058228Y-73319657D02*
X232105847Y-73414895D01*
X232105847Y-73414895D02*
X232105847Y-73557752D01*
X232105847Y-73557752D02*
X232058228Y-73652990D01*
X231439180Y-74129181D02*
X232105847Y-74129181D01*
X232439180Y-74129181D02*
X232391561Y-74081562D01*
X232391561Y-74081562D02*
X232343942Y-74129181D01*
X232343942Y-74129181D02*
X232391561Y-74176800D01*
X232391561Y-74176800D02*
X232439180Y-74129181D01*
X232439180Y-74129181D02*
X232343942Y-74129181D01*
X232105847Y-75033942D02*
X231296323Y-75033942D01*
X231296323Y-75033942D02*
X231201085Y-74986323D01*
X231201085Y-74986323D02*
X231153466Y-74938704D01*
X231153466Y-74938704D02*
X231105847Y-74843466D01*
X231105847Y-74843466D02*
X231105847Y-74700609D01*
X231105847Y-74700609D02*
X231153466Y-74605371D01*
X231486800Y-75033942D02*
X231439180Y-74938704D01*
X231439180Y-74938704D02*
X231439180Y-74748228D01*
X231439180Y-74748228D02*
X231486800Y-74652990D01*
X231486800Y-74652990D02*
X231534419Y-74605371D01*
X231534419Y-74605371D02*
X231629657Y-74557752D01*
X231629657Y-74557752D02*
X231915371Y-74557752D01*
X231915371Y-74557752D02*
X232010609Y-74605371D01*
X232010609Y-74605371D02*
X232058228Y-74652990D01*
X232058228Y-74652990D02*
X232105847Y-74748228D01*
X232105847Y-74748228D02*
X232105847Y-74938704D01*
X232105847Y-74938704D02*
X232058228Y-75033942D01*
X232105847Y-75510133D02*
X231439180Y-75510133D01*
X232010609Y-75510133D02*
X232058228Y-75557752D01*
X232058228Y-75557752D02*
X232105847Y-75652990D01*
X232105847Y-75652990D02*
X232105847Y-75795847D01*
X232105847Y-75795847D02*
X232058228Y-75891085D01*
X232058228Y-75891085D02*
X231962990Y-75938704D01*
X231962990Y-75938704D02*
X231439180Y-75938704D01*
X231439180Y-76843466D02*
X231962990Y-76843466D01*
X231962990Y-76843466D02*
X232058228Y-76795847D01*
X232058228Y-76795847D02*
X232105847Y-76700609D01*
X232105847Y-76700609D02*
X232105847Y-76510133D01*
X232105847Y-76510133D02*
X232058228Y-76414895D01*
X231486800Y-76843466D02*
X231439180Y-76748228D01*
X231439180Y-76748228D02*
X231439180Y-76510133D01*
X231439180Y-76510133D02*
X231486800Y-76414895D01*
X231486800Y-76414895D02*
X231582038Y-76367276D01*
X231582038Y-76367276D02*
X231677276Y-76367276D01*
X231677276Y-76367276D02*
X231772514Y-76414895D01*
X231772514Y-76414895D02*
X231820133Y-76510133D01*
X231820133Y-76510133D02*
X231820133Y-76748228D01*
X231820133Y-76748228D02*
X231867752Y-76843466D01*
X232105847Y-77176800D02*
X232105847Y-77557752D01*
X232439180Y-77319657D02*
X231582038Y-77319657D01*
X231582038Y-77319657D02*
X231486800Y-77367276D01*
X231486800Y-77367276D02*
X231439180Y-77462514D01*
X231439180Y-77462514D02*
X231439180Y-77557752D01*
X231439180Y-78033943D02*
X231486800Y-77938705D01*
X231486800Y-77938705D02*
X231534419Y-77891086D01*
X231534419Y-77891086D02*
X231629657Y-77843467D01*
X231629657Y-77843467D02*
X231915371Y-77843467D01*
X231915371Y-77843467D02*
X232010609Y-77891086D01*
X232010609Y-77891086D02*
X232058228Y-77938705D01*
X232058228Y-77938705D02*
X232105847Y-78033943D01*
X232105847Y-78033943D02*
X232105847Y-78176800D01*
X232105847Y-78176800D02*
X232058228Y-78272038D01*
X232058228Y-78272038D02*
X232010609Y-78319657D01*
X232010609Y-78319657D02*
X231915371Y-78367276D01*
X231915371Y-78367276D02*
X231629657Y-78367276D01*
X231629657Y-78367276D02*
X231534419Y-78319657D01*
X231534419Y-78319657D02*
X231486800Y-78272038D01*
X231486800Y-78272038D02*
X231439180Y-78176800D01*
X231439180Y-78176800D02*
X231439180Y-78033943D01*
X231439180Y-78795848D02*
X232105847Y-78795848D01*
X231915371Y-78795848D02*
X232010609Y-78843467D01*
X232010609Y-78843467D02*
X232058228Y-78891086D01*
X232058228Y-78891086D02*
X232105847Y-78986324D01*
X232105847Y-78986324D02*
X232105847Y-79081562D01*
X231439180Y-79462515D02*
X231439180Y-79652991D01*
X231439180Y-79652991D02*
X231486800Y-79748229D01*
X231486800Y-79748229D02*
X231534419Y-79795848D01*
X231534419Y-79795848D02*
X231677276Y-79891086D01*
X231677276Y-79891086D02*
X231867752Y-79938705D01*
X231867752Y-79938705D02*
X232248704Y-79938705D01*
X232248704Y-79938705D02*
X232343942Y-79891086D01*
X232343942Y-79891086D02*
X232391561Y-79843467D01*
X232391561Y-79843467D02*
X232439180Y-79748229D01*
X232439180Y-79748229D02*
X232439180Y-79557753D01*
X232439180Y-79557753D02*
X232391561Y-79462515D01*
X232391561Y-79462515D02*
X232343942Y-79414896D01*
X232343942Y-79414896D02*
X232248704Y-79367277D01*
X232248704Y-79367277D02*
X232010609Y-79367277D01*
X232010609Y-79367277D02*
X231915371Y-79414896D01*
X231915371Y-79414896D02*
X231867752Y-79462515D01*
X231867752Y-79462515D02*
X231820133Y-79557753D01*
X231820133Y-79557753D02*
X231820133Y-79748229D01*
X231820133Y-79748229D02*
X231867752Y-79843467D01*
X231867752Y-79843467D02*
X231915371Y-79891086D01*
X231915371Y-79891086D02*
X232010609Y-79938705D01*
X246858333Y-114004819D02*
X246525000Y-113528628D01*
X246286905Y-114004819D02*
X246286905Y-113004819D01*
X246286905Y-113004819D02*
X246667857Y-113004819D01*
X246667857Y-113004819D02*
X246763095Y-113052438D01*
X246763095Y-113052438D02*
X246810714Y-113100057D01*
X246810714Y-113100057D02*
X246858333Y-113195295D01*
X246858333Y-113195295D02*
X246858333Y-113338152D01*
X246858333Y-113338152D02*
X246810714Y-113433390D01*
X246810714Y-113433390D02*
X246763095Y-113481009D01*
X246763095Y-113481009D02*
X246667857Y-113528628D01*
X246667857Y-113528628D02*
X246286905Y-113528628D01*
X247810714Y-114004819D02*
X247239286Y-114004819D01*
X247525000Y-114004819D02*
X247525000Y-113004819D01*
X247525000Y-113004819D02*
X247429762Y-113147676D01*
X247429762Y-113147676D02*
X247334524Y-113242914D01*
X247334524Y-113242914D02*
X247239286Y-113290533D01*
X234027142Y-95154819D02*
X233693809Y-94678628D01*
X233455714Y-95154819D02*
X233455714Y-94154819D01*
X233455714Y-94154819D02*
X233836666Y-94154819D01*
X233836666Y-94154819D02*
X233931904Y-94202438D01*
X233931904Y-94202438D02*
X233979523Y-94250057D01*
X233979523Y-94250057D02*
X234027142Y-94345295D01*
X234027142Y-94345295D02*
X234027142Y-94488152D01*
X234027142Y-94488152D02*
X233979523Y-94583390D01*
X233979523Y-94583390D02*
X233931904Y-94631009D01*
X233931904Y-94631009D02*
X233836666Y-94678628D01*
X233836666Y-94678628D02*
X233455714Y-94678628D01*
X234408095Y-94250057D02*
X234455714Y-94202438D01*
X234455714Y-94202438D02*
X234550952Y-94154819D01*
X234550952Y-94154819D02*
X234789047Y-94154819D01*
X234789047Y-94154819D02*
X234884285Y-94202438D01*
X234884285Y-94202438D02*
X234931904Y-94250057D01*
X234931904Y-94250057D02*
X234979523Y-94345295D01*
X234979523Y-94345295D02*
X234979523Y-94440533D01*
X234979523Y-94440533D02*
X234931904Y-94583390D01*
X234931904Y-94583390D02*
X234360476Y-95154819D01*
X234360476Y-95154819D02*
X234979523Y-95154819D01*
X235884285Y-94154819D02*
X235408095Y-94154819D01*
X235408095Y-94154819D02*
X235360476Y-94631009D01*
X235360476Y-94631009D02*
X235408095Y-94583390D01*
X235408095Y-94583390D02*
X235503333Y-94535771D01*
X235503333Y-94535771D02*
X235741428Y-94535771D01*
X235741428Y-94535771D02*
X235836666Y-94583390D01*
X235836666Y-94583390D02*
X235884285Y-94631009D01*
X235884285Y-94631009D02*
X235931904Y-94726247D01*
X235931904Y-94726247D02*
X235931904Y-94964342D01*
X235931904Y-94964342D02*
X235884285Y-95059580D01*
X235884285Y-95059580D02*
X235836666Y-95107200D01*
X235836666Y-95107200D02*
X235741428Y-95154819D01*
X235741428Y-95154819D02*
X235503333Y-95154819D01*
X235503333Y-95154819D02*
X235408095Y-95107200D01*
X235408095Y-95107200D02*
X235360476Y-95059580D01*
X214267142Y-86814819D02*
X213933809Y-86338628D01*
X213695714Y-86814819D02*
X213695714Y-85814819D01*
X213695714Y-85814819D02*
X214076666Y-85814819D01*
X214076666Y-85814819D02*
X214171904Y-85862438D01*
X214171904Y-85862438D02*
X214219523Y-85910057D01*
X214219523Y-85910057D02*
X214267142Y-86005295D01*
X214267142Y-86005295D02*
X214267142Y-86148152D01*
X214267142Y-86148152D02*
X214219523Y-86243390D01*
X214219523Y-86243390D02*
X214171904Y-86291009D01*
X214171904Y-86291009D02*
X214076666Y-86338628D01*
X214076666Y-86338628D02*
X213695714Y-86338628D01*
X215219523Y-86814819D02*
X214648095Y-86814819D01*
X214933809Y-86814819D02*
X214933809Y-85814819D01*
X214933809Y-85814819D02*
X214838571Y-85957676D01*
X214838571Y-85957676D02*
X214743333Y-86052914D01*
X214743333Y-86052914D02*
X214648095Y-86100533D01*
X215552857Y-85814819D02*
X216219523Y-85814819D01*
X216219523Y-85814819D02*
X215790952Y-86814819D01*
X191662207Y-125961980D02*
X191805064Y-126009599D01*
X191805064Y-126009599D02*
X192043159Y-126009599D01*
X192043159Y-126009599D02*
X192138397Y-125961980D01*
X192138397Y-125961980D02*
X192186016Y-125914360D01*
X192186016Y-125914360D02*
X192233635Y-125819122D01*
X192233635Y-125819122D02*
X192233635Y-125723884D01*
X192233635Y-125723884D02*
X192186016Y-125628646D01*
X192186016Y-125628646D02*
X192138397Y-125581027D01*
X192138397Y-125581027D02*
X192043159Y-125533408D01*
X192043159Y-125533408D02*
X191852683Y-125485789D01*
X191852683Y-125485789D02*
X191757445Y-125438170D01*
X191757445Y-125438170D02*
X191709826Y-125390551D01*
X191709826Y-125390551D02*
X191662207Y-125295313D01*
X191662207Y-125295313D02*
X191662207Y-125200075D01*
X191662207Y-125200075D02*
X191709826Y-125104837D01*
X191709826Y-125104837D02*
X191757445Y-125057218D01*
X191757445Y-125057218D02*
X191852683Y-125009599D01*
X191852683Y-125009599D02*
X192090778Y-125009599D01*
X192090778Y-125009599D02*
X192233635Y-125057218D01*
X192566969Y-125009599D02*
X192805064Y-126009599D01*
X192805064Y-126009599D02*
X192995540Y-125295313D01*
X192995540Y-125295313D02*
X193186016Y-126009599D01*
X193186016Y-126009599D02*
X193424112Y-125009599D01*
X193757445Y-125104837D02*
X193805064Y-125057218D01*
X193805064Y-125057218D02*
X193900302Y-125009599D01*
X193900302Y-125009599D02*
X194138397Y-125009599D01*
X194138397Y-125009599D02*
X194233635Y-125057218D01*
X194233635Y-125057218D02*
X194281254Y-125104837D01*
X194281254Y-125104837D02*
X194328873Y-125200075D01*
X194328873Y-125200075D02*
X194328873Y-125295313D01*
X194328873Y-125295313D02*
X194281254Y-125438170D01*
X194281254Y-125438170D02*
X193709826Y-126009599D01*
X193709826Y-126009599D02*
X194328873Y-126009599D01*
X214241142Y-79194819D02*
X213907809Y-78718628D01*
X213669714Y-79194819D02*
X213669714Y-78194819D01*
X213669714Y-78194819D02*
X214050666Y-78194819D01*
X214050666Y-78194819D02*
X214145904Y-78242438D01*
X214145904Y-78242438D02*
X214193523Y-78290057D01*
X214193523Y-78290057D02*
X214241142Y-78385295D01*
X214241142Y-78385295D02*
X214241142Y-78528152D01*
X214241142Y-78528152D02*
X214193523Y-78623390D01*
X214193523Y-78623390D02*
X214145904Y-78671009D01*
X214145904Y-78671009D02*
X214050666Y-78718628D01*
X214050666Y-78718628D02*
X213669714Y-78718628D01*
X215193523Y-79194819D02*
X214622095Y-79194819D01*
X214907809Y-79194819D02*
X214907809Y-78194819D01*
X214907809Y-78194819D02*
X214812571Y-78337676D01*
X214812571Y-78337676D02*
X214717333Y-78432914D01*
X214717333Y-78432914D02*
X214622095Y-78480533D01*
X216098285Y-78194819D02*
X215622095Y-78194819D01*
X215622095Y-78194819D02*
X215574476Y-78671009D01*
X215574476Y-78671009D02*
X215622095Y-78623390D01*
X215622095Y-78623390D02*
X215717333Y-78575771D01*
X215717333Y-78575771D02*
X215955428Y-78575771D01*
X215955428Y-78575771D02*
X216050666Y-78623390D01*
X216050666Y-78623390D02*
X216098285Y-78671009D01*
X216098285Y-78671009D02*
X216145904Y-78766247D01*
X216145904Y-78766247D02*
X216145904Y-79004342D01*
X216145904Y-79004342D02*
X216098285Y-79099580D01*
X216098285Y-79099580D02*
X216050666Y-79147200D01*
X216050666Y-79147200D02*
X215955428Y-79194819D01*
X215955428Y-79194819D02*
X215717333Y-79194819D01*
X215717333Y-79194819D02*
X215622095Y-79147200D01*
X215622095Y-79147200D02*
X215574476Y-79099580D01*
D15*
%TO.C,J7*%
X206150000Y-98275000D02*
X211900000Y-98275000D01*
X206150000Y-104275000D02*
X206150000Y-98275000D01*
X207500000Y-103165000D02*
X212580000Y-103165000D01*
X207500000Y-104175000D02*
X207500000Y-103165000D01*
X212580000Y-103165000D02*
X212580000Y-104175000D01*
X213250000Y-98325000D02*
X216450000Y-98325000D01*
X216450000Y-98325000D02*
X216450000Y-104275000D01*
X216450000Y-104275000D02*
X206150000Y-104275000D01*
D16*
%TO.C,Q2*%
X251498100Y-105251200D02*
X251498100Y-109493000D01*
X256755900Y-109493000D02*
X256755900Y-105251200D01*
D15*
%TO.C,R10*%
X250706936Y-100690000D02*
X252161064Y-100690000D01*
X250706936Y-102510000D02*
X252161064Y-102510000D01*
%TO.C,R4*%
X240686000Y-115122936D02*
X240686000Y-116577064D01*
X238866000Y-115122936D02*
X238866000Y-116577064D01*
%TO.C,C9*%
X253598000Y-80965064D02*
X253598000Y-79510936D01*
X255418000Y-80965064D02*
X255418000Y-79510936D01*
%TO.C,R18*%
X211573064Y-84730000D02*
X210118936Y-84730000D01*
X211573064Y-82910000D02*
X210118936Y-82910000D01*
%TO.C,C7*%
X236433400Y-76750836D02*
X236433400Y-78204964D01*
X234613400Y-76750836D02*
X234613400Y-78204964D01*
%TO.C,J5*%
X187344000Y-85352000D02*
X187344000Y-86352000D01*
X187344000Y-86352000D02*
X188344000Y-85852000D01*
X188344000Y-85852000D02*
X187344000Y-85352000D01*
X188734000Y-80642000D02*
X197854000Y-80642000D01*
X188734000Y-86342000D02*
X190044000Y-86342000D01*
X188734000Y-96142000D02*
X188734000Y-80642000D01*
X190044000Y-81942000D02*
X196544000Y-81942000D01*
X190044000Y-86342000D02*
X190044000Y-81942000D01*
X190044000Y-90442000D02*
X188734000Y-90442000D01*
X190044000Y-90442000D02*
X190044000Y-90442000D01*
X190044000Y-94842000D02*
X190044000Y-90442000D01*
X196544000Y-81942000D02*
X196544000Y-94842000D01*
X196544000Y-94842000D02*
X190044000Y-94842000D01*
X197854000Y-80642000D02*
X197854000Y-96142000D01*
X197854000Y-96142000D02*
X188734000Y-96142000D01*
%TO.C,R20*%
X191404364Y-109265600D02*
X189950236Y-109265600D01*
X191404364Y-107445600D02*
X189950236Y-107445600D01*
%TO.C,C12*%
X248518000Y-86097064D02*
X248518000Y-84642936D01*
X250338000Y-86097064D02*
X250338000Y-84642936D01*
%TO.C,U2*%
X240182000Y-110505400D02*
X240182000Y-112305400D01*
X240182000Y-110505400D02*
X240182000Y-109705400D01*
X243302000Y-110505400D02*
X243302000Y-111305400D01*
X243302000Y-110505400D02*
X243302000Y-109705400D01*
D17*
%TO.C,U4*%
X249702000Y-79522000D02*
X249702000Y-79872000D01*
X249702000Y-79522000D02*
X249892000Y-79522000D01*
X249702000Y-82022000D02*
X249702000Y-81672000D01*
X249702000Y-82022000D02*
X249892000Y-82022000D01*
X252202000Y-79522000D02*
X252012000Y-79522000D01*
X252202000Y-79522000D02*
X252202000Y-79872000D01*
X252202000Y-82022000D02*
X252012000Y-82022000D01*
X252202000Y-82022000D02*
X252202000Y-81672000D01*
D18*
X248792000Y-80212000D02*
G75*
G03*
X248792000Y-80212000I-100000J0D01*
G01*
D15*
%TO.C,Y1*%
X214361000Y-106339000D02*
X214361000Y-112589000D01*
X209311000Y-106339000D02*
X209311000Y-112589000D01*
X214361000Y-106339000D02*
G75*
G03*
X209311000Y-106339000I-2525000J0D01*
G01*
X209311000Y-112589000D02*
G75*
G03*
X214361000Y-112589000I2525000J0D01*
G01*
D16*
%TO.C,J1*%
X257680500Y-124863900D02*
X257680500Y-124018080D01*
X257680500Y-121854000D02*
X257680500Y-120817680D01*
X257680500Y-118653600D02*
X257680500Y-117419160D01*
X257680500Y-115255080D02*
X257680500Y-112798900D01*
X257680500Y-112798900D02*
X250822500Y-112798900D01*
X256880400Y-127251500D02*
X256880400Y-124863900D01*
X256880400Y-124863900D02*
X257680500Y-124863900D01*
X251622600Y-127251500D02*
X256880400Y-127251500D01*
X251622600Y-124863900D02*
X251622600Y-127251500D01*
X250822500Y-124863900D02*
X251622600Y-124863900D01*
X250822500Y-124018080D02*
X250822500Y-124863900D01*
X250822500Y-120817680D02*
X250822500Y-121854000D01*
X250822500Y-117419160D02*
X250822500Y-118653600D01*
X250822500Y-112798900D02*
X250822500Y-115255080D01*
D15*
%TO.C,R9*%
X253685064Y-96414000D02*
X252230936Y-96414000D01*
X253685064Y-94594000D02*
X252230936Y-94594000D01*
%TO.C,C11*%
X245978000Y-83505064D02*
X245978000Y-82050936D01*
X247798000Y-83505064D02*
X247798000Y-82050936D01*
%TO.C,R11*%
X222004936Y-77576000D02*
X223459064Y-77576000D01*
X222004936Y-79396000D02*
X223459064Y-79396000D01*
%TO.C,C4*%
X239882000Y-102301064D02*
X239882000Y-100846936D01*
X241702000Y-102301064D02*
X241702000Y-100846936D01*
D16*
%TO.C,SW4*%
X229762040Y-122024180D02*
X237509040Y-122024180D01*
X229762040Y-122696140D02*
X229762040Y-122024180D01*
X229762040Y-129085380D02*
X229762040Y-125207940D01*
X232009940Y-129085380D02*
X229762040Y-129085380D01*
X232009940Y-137594380D02*
X232009940Y-129085380D01*
X235261140Y-129085380D02*
X235261140Y-137594380D01*
X235261140Y-137594380D02*
X232009940Y-137594380D01*
X237509040Y-122024180D02*
X237509040Y-122696140D01*
X237509040Y-125207940D02*
X237509040Y-129085380D01*
X237509040Y-129085380D02*
X235261140Y-129085380D01*
D19*
X228365040Y-126451400D02*
G75*
G03*
X228365040Y-126451400I-381000J0D01*
G01*
D15*
%TO.C,R5*%
X238146000Y-108010936D02*
X238146000Y-109465064D01*
X236326000Y-108010936D02*
X236326000Y-109465064D01*
%TO.C,C1*%
X215244000Y-112513064D02*
X215244000Y-111058936D01*
X217064000Y-112513064D02*
X217064000Y-111058936D01*
D10*
%TO.C,J3*%
X196333000Y-63676000D02*
X190333000Y-63676000D01*
X190333000Y-63676000D02*
X190333000Y-72676000D01*
X196333000Y-68676000D02*
X196333000Y-63676000D01*
D12*
X198333000Y-77676000D02*
X198333000Y-77676000D01*
D10*
X193658000Y-77676000D02*
X190333000Y-77676000D01*
X190333000Y-77676000D02*
X190333000Y-76676000D01*
D12*
X198333000Y-77776000D02*
X198333000Y-77776000D01*
X198333000Y-77776000D02*
G75*
G03*
X198333000Y-77676000I0J50000D01*
G01*
X198333000Y-77676000D02*
G75*
G03*
X198333000Y-77776000I0J-50000D01*
G01*
D15*
%TO.C,R26*%
X239022936Y-95610000D02*
X240477064Y-95610000D01*
X239022936Y-97430000D02*
X240477064Y-97430000D01*
%TO.C,R16*%
X211573064Y-89810000D02*
X210118936Y-89810000D01*
X211573064Y-87990000D02*
X210118936Y-87990000D01*
%TO.C,J8*%
X223975000Y-75595000D02*
X224975000Y-75595000D01*
X224975000Y-75595000D02*
X224475000Y-74595000D01*
X224475000Y-74595000D02*
X223975000Y-75595000D01*
X219265000Y-74205000D02*
X219265000Y-65085000D01*
X224965000Y-74205000D02*
X224965000Y-72895000D01*
X234765000Y-74205000D02*
X219265000Y-74205000D01*
X220565000Y-72895000D02*
X220565000Y-66395000D01*
X224965000Y-72895000D02*
X220565000Y-72895000D01*
X229065000Y-72895000D02*
X229065000Y-74205000D01*
X229065000Y-72895000D02*
X229065000Y-72895000D01*
X233465000Y-72895000D02*
X229065000Y-72895000D01*
X220565000Y-66395000D02*
X233465000Y-66395000D01*
X233465000Y-66395000D02*
X233465000Y-72895000D01*
X219265000Y-65085000D02*
X234765000Y-65085000D01*
X234765000Y-65085000D02*
X234765000Y-74205000D01*
%TO.C,R12*%
X223459064Y-76856000D02*
X222004936Y-76856000D01*
X223459064Y-75036000D02*
X222004936Y-75036000D01*
%TO.C,J7*%
X188398000Y-100224000D02*
X194148000Y-100224000D01*
X188398000Y-106224000D02*
X188398000Y-100224000D01*
X189748000Y-105114000D02*
X194828000Y-105114000D01*
X189748000Y-106124000D02*
X189748000Y-105114000D01*
X194828000Y-105114000D02*
X194828000Y-106124000D01*
X195498000Y-100274000D02*
X198698000Y-100274000D01*
X198698000Y-100274000D02*
X198698000Y-106224000D01*
X198698000Y-106224000D02*
X188398000Y-106224000D01*
%TO.C,R14*%
X223385536Y-94425500D02*
X224839664Y-94425500D01*
X223385536Y-96245500D02*
X224839664Y-96245500D01*
%TO.C,R19*%
X211573064Y-82190000D02*
X210118936Y-82190000D01*
X211573064Y-80370000D02*
X210118936Y-80370000D01*
%TO.C,Q1*%
X212888000Y-95074500D02*
X212888000Y-93399500D01*
X212888000Y-95074500D02*
X212888000Y-95724500D01*
X209768000Y-95074500D02*
X209768000Y-94424500D01*
X209768000Y-95074500D02*
X209768000Y-95724500D01*
%TO.C,R6*%
X214141800Y-96412064D02*
X214141800Y-94957936D01*
X215961800Y-96412064D02*
X215961800Y-94957936D01*
%TO.C,Q3*%
X257592000Y-99060000D02*
X257592000Y-97385000D01*
X257592000Y-99060000D02*
X257592000Y-99710000D01*
X254472000Y-99060000D02*
X254472000Y-98410000D01*
X254472000Y-99060000D02*
X254472000Y-99710000D01*
D16*
%TO.C,SW1*%
X211451860Y-75349120D02*
X203704860Y-75349120D01*
X211451860Y-74677160D02*
X211451860Y-75349120D01*
X211451860Y-68287920D02*
X211451860Y-72165360D01*
X209203960Y-68287920D02*
X211451860Y-68287920D01*
X209203960Y-59778920D02*
X209203960Y-68287920D01*
X205952760Y-68287920D02*
X205952760Y-59778920D01*
X205952760Y-59778920D02*
X209203960Y-59778920D01*
X203704860Y-75349120D02*
X203704860Y-74677160D01*
X203704860Y-72165360D02*
X203704860Y-68287920D01*
X203704860Y-68287920D02*
X205952760Y-68287920D01*
D19*
X213610860Y-70921900D02*
G75*
G03*
X213610860Y-70921900I-381000J0D01*
G01*
D15*
%TO.C,R13*%
X226322936Y-90530000D02*
X227777064Y-90530000D01*
X226322936Y-92350000D02*
X227777064Y-92350000D01*
D10*
%TO.C,U1*%
X219559000Y-103479300D02*
X219559000Y-103579300D01*
X219559000Y-103579300D02*
X218259000Y-103579300D01*
X219559000Y-110329300D02*
X219559000Y-109879300D01*
X219559000Y-110329300D02*
X220009000Y-110329300D01*
X219909000Y-103129300D02*
X219559000Y-103479300D01*
X220009000Y-103129300D02*
X219909000Y-103129300D01*
X226759000Y-103129300D02*
X226309000Y-103129300D01*
X226759000Y-103129300D02*
X226759000Y-103579300D01*
X226759000Y-110329300D02*
X226309000Y-110329300D01*
X226759000Y-110329300D02*
X226759000Y-109879300D01*
D15*
%TO.C,R3*%
X246782000Y-100846936D02*
X246782000Y-102301064D01*
X244962000Y-100846936D02*
X244962000Y-102301064D01*
%TO.C,R2*%
X246782000Y-106434936D02*
X246782000Y-107889064D01*
X244962000Y-106434936D02*
X244962000Y-107889064D01*
%TO.C,R24*%
X233683364Y-121151600D02*
X232229236Y-121151600D01*
X233683364Y-119331600D02*
X232229236Y-119331600D01*
%TO.C,C6*%
X233828000Y-76768936D02*
X233828000Y-78223064D01*
X232008000Y-76768936D02*
X232008000Y-78223064D01*
%TO.C,R8*%
X214621064Y-92350000D02*
X213166936Y-92350000D01*
X214621064Y-90530000D02*
X213166936Y-90530000D01*
%TO.C,C2*%
X217064000Y-105926936D02*
X217064000Y-107381064D01*
X215244000Y-105926936D02*
X215244000Y-107381064D01*
%TO.C,R22*%
X192998064Y-121253700D02*
X191543936Y-121253700D01*
X192998064Y-119433700D02*
X191543936Y-119433700D01*
D16*
%TO.C,SW3*%
X209442040Y-122024180D02*
X217189040Y-122024180D01*
X209442040Y-122696140D02*
X209442040Y-122024180D01*
X209442040Y-129085380D02*
X209442040Y-125207940D01*
X211689940Y-129085380D02*
X209442040Y-129085380D01*
X211689940Y-137594380D02*
X211689940Y-129085380D01*
X214941140Y-129085380D02*
X214941140Y-137594380D01*
X214941140Y-137594380D02*
X211689940Y-137594380D01*
X217189040Y-122024180D02*
X217189040Y-122696140D01*
X217189040Y-125207940D02*
X217189040Y-129085380D01*
X217189040Y-129085380D02*
X214941140Y-129085380D01*
D19*
X208045040Y-126451400D02*
G75*
G03*
X208045040Y-126451400I-381000J0D01*
G01*
D15*
%TO.C,R21*%
X197115664Y-109268000D02*
X195661536Y-109268000D01*
X197115664Y-107448000D02*
X195661536Y-107448000D01*
%TO.C,R23*%
X213346064Y-121133500D02*
X211891936Y-121133500D01*
X213346064Y-119313500D02*
X211891936Y-119313500D01*
%TO.C,R27*%
X193741064Y-98954000D02*
X192286936Y-98954000D01*
X193741064Y-97134000D02*
X192286936Y-97134000D01*
%TO.C,R7*%
X257958000Y-93278936D02*
X257958000Y-94733064D01*
X256138000Y-93278936D02*
X256138000Y-94733064D01*
%TO.C,C3*%
X230230000Y-111318064D02*
X230230000Y-109863936D01*
X232050000Y-111318064D02*
X232050000Y-109863936D01*
D16*
%TO.C,L1*%
X229489000Y-85445600D02*
X230251000Y-85445600D01*
X229870000Y-85064600D02*
X229870000Y-85826600D01*
X231343200Y-82829400D02*
X231343200Y-79171800D01*
X228396800Y-79171800D02*
X228396800Y-82829400D01*
D15*
%TO.C,C10*%
X246134936Y-76306000D02*
X247589064Y-76306000D01*
X246134936Y-78126000D02*
X247589064Y-78126000D01*
%TO.C,J6*%
X200748000Y-99430000D02*
X200748000Y-97020000D01*
X203158000Y-99430000D02*
X200748000Y-99430000D01*
X201048000Y-99130000D02*
X203578000Y-99130000D01*
X203578000Y-99130000D02*
X203578000Y-99000000D01*
X205388000Y-99130000D02*
X206368000Y-99130000D01*
X206368000Y-99130000D02*
X206368000Y-91550000D01*
X203578000Y-99000000D02*
X205388000Y-99000000D01*
X205388000Y-99000000D02*
X205388000Y-99130000D01*
X206368000Y-91550000D02*
X207868000Y-91550000D01*
X207868000Y-91550000D02*
X207868000Y-83710000D01*
X206368000Y-83710000D02*
X206368000Y-76130000D01*
X207868000Y-83710000D02*
X206368000Y-83710000D01*
X203578000Y-76260000D02*
X203578000Y-76130000D01*
X205388000Y-76260000D02*
X203578000Y-76260000D01*
X201048000Y-76130000D02*
X201048000Y-99130000D01*
X203578000Y-76130000D02*
X201048000Y-76130000D01*
X205388000Y-76130000D02*
X205388000Y-76260000D01*
X206368000Y-76130000D02*
X205388000Y-76130000D01*
%TO.C,C5*%
X243438000Y-116525064D02*
X243438000Y-115070936D01*
X245258000Y-116525064D02*
X245258000Y-115070936D01*
%TO.C,C8*%
X239114800Y-76768036D02*
X239114800Y-78222164D01*
X237294800Y-76768036D02*
X237294800Y-78222164D01*
D18*
%TO.C,J2*%
X255614000Y-67460000D02*
X255614000Y-66360000D01*
X255614000Y-66360000D02*
X246274000Y-66360000D01*
X254344000Y-73160000D02*
X255144000Y-73160000D01*
D10*
X251444000Y-74760000D02*
X251444000Y-74760000D01*
X251444000Y-74660000D02*
X251444000Y-74660000D01*
D18*
X247544000Y-73160000D02*
X246744000Y-73160000D01*
X246274000Y-66360000D02*
X246274000Y-67460000D01*
D10*
X251444000Y-74660000D02*
G75*
G03*
X251444000Y-74760000I0J-50000D01*
G01*
X251444000Y-74760000D02*
G75*
G03*
X251444000Y-74660000I0J50000D01*
G01*
D18*
%TO.C,U3*%
X230775000Y-75593999D02*
X230775000Y-76143997D01*
X230600000Y-75593999D02*
X230775000Y-75593999D01*
X227425000Y-75593999D02*
X227600000Y-75593999D01*
X227425000Y-75593999D02*
X227425000Y-75768999D01*
X230775000Y-77768995D02*
X230775000Y-77943996D01*
X227425000Y-77768995D02*
X227425000Y-77943996D01*
X230600000Y-77943996D02*
X230775000Y-77943996D01*
X227425000Y-77943996D02*
X227600000Y-77943996D01*
D15*
%TO.C,R1*%
X248605064Y-112670000D02*
X247150936Y-112670000D01*
X248605064Y-110850000D02*
X247150936Y-110850000D01*
%TO.C,R25*%
X233942936Y-95610000D02*
X235397064Y-95610000D01*
X233942936Y-97430000D02*
X235397064Y-97430000D01*
%TO.C,R17*%
X211573064Y-87270000D02*
X210118936Y-87270000D01*
X211573064Y-85450000D02*
X210118936Y-85450000D01*
D16*
%TO.C,SW2*%
X189122040Y-122024180D02*
X196869040Y-122024180D01*
X189122040Y-122696140D02*
X189122040Y-122024180D01*
X189122040Y-129085380D02*
X189122040Y-125207940D01*
X191369940Y-129085380D02*
X189122040Y-129085380D01*
X191369940Y-137594380D02*
X191369940Y-129085380D01*
X194621140Y-129085380D02*
X194621140Y-137594380D01*
X194621140Y-137594380D02*
X191369940Y-137594380D01*
X196869040Y-122024180D02*
X196869040Y-122696140D01*
X196869040Y-125207940D02*
X196869040Y-129085380D01*
X196869040Y-129085380D02*
X194621140Y-129085380D01*
D19*
X187725040Y-126451400D02*
G75*
G03*
X187725040Y-126451400I-381000J0D01*
G01*
D15*
%TO.C,R15*%
X211573064Y-79650000D02*
X210118936Y-79650000D01*
X211573064Y-77830000D02*
X210118936Y-77830000D01*
%TD*%
M02*
